G75*
G70*
%OFA0B0*%
%FSLAX24Y24*%
%IPPOS*%
%LPD*%
%AMOC8*
5,1,8,0,0,1.08239X$1,22.5*
%
%ADD10C,0.0000*%
%ADD11R,0.0079X0.0394*%
%ADD12R,0.0394X0.0079*%
%ADD13R,0.0157X0.0886*%
%ADD14C,0.0594*%
%ADD15R,0.0748X0.0748*%
%ADD16R,0.0433X0.0394*%
%ADD17R,0.0748X0.0433*%
%ADD18R,0.0394X0.0433*%
%ADD19R,0.0700X0.0700*%
%ADD20C,0.0700*%
%ADD21R,0.0315X0.0315*%
%ADD22R,0.0591X0.0591*%
%ADD23R,0.0256X0.1024*%
%ADD24C,0.0660*%
%ADD25OC8,0.0560*%
%ADD26R,0.0120X0.0390*%
%ADD27R,0.0315X0.0354*%
%ADD28R,0.0295X0.0157*%
%ADD29C,0.0357*%
%ADD30C,0.0080*%
%ADD31C,0.0120*%
%ADD32C,0.0100*%
D10*
X000141Y002141D02*
X000141Y017141D01*
X001511Y017141D02*
X001513Y017191D01*
X001519Y017241D01*
X001529Y017290D01*
X001543Y017338D01*
X001560Y017385D01*
X001581Y017430D01*
X001606Y017474D01*
X001634Y017515D01*
X001666Y017554D01*
X001700Y017591D01*
X001737Y017625D01*
X001777Y017655D01*
X001819Y017682D01*
X001863Y017706D01*
X001909Y017727D01*
X001956Y017743D01*
X002004Y017756D01*
X002054Y017765D01*
X002103Y017770D01*
X002154Y017771D01*
X002204Y017768D01*
X002253Y017761D01*
X002302Y017750D01*
X002350Y017735D01*
X002396Y017717D01*
X002441Y017695D01*
X002484Y017669D01*
X002525Y017640D01*
X002564Y017608D01*
X002600Y017573D01*
X002632Y017535D01*
X002662Y017495D01*
X002689Y017452D01*
X002712Y017408D01*
X002731Y017362D01*
X002747Y017314D01*
X002759Y017265D01*
X002767Y017216D01*
X002771Y017166D01*
X002771Y017116D01*
X002767Y017066D01*
X002759Y017017D01*
X002747Y016968D01*
X002731Y016920D01*
X002712Y016874D01*
X002689Y016830D01*
X002662Y016787D01*
X002632Y016747D01*
X002600Y016709D01*
X002564Y016674D01*
X002525Y016642D01*
X002484Y016613D01*
X002441Y016587D01*
X002396Y016565D01*
X002350Y016547D01*
X002302Y016532D01*
X002253Y016521D01*
X002204Y016514D01*
X002154Y016511D01*
X002103Y016512D01*
X002054Y016517D01*
X002004Y016526D01*
X001956Y016539D01*
X001909Y016555D01*
X001863Y016576D01*
X001819Y016600D01*
X001777Y016627D01*
X001737Y016657D01*
X001700Y016691D01*
X001666Y016728D01*
X001634Y016767D01*
X001606Y016808D01*
X001581Y016852D01*
X001560Y016897D01*
X001543Y016944D01*
X001529Y016992D01*
X001519Y017041D01*
X001513Y017091D01*
X001511Y017141D01*
X000141Y017141D02*
X000143Y017236D01*
X000150Y017331D01*
X000161Y017426D01*
X000177Y017520D01*
X000197Y017613D01*
X000222Y017704D01*
X000251Y017795D01*
X000284Y017884D01*
X000322Y017972D01*
X000363Y018057D01*
X000409Y018141D01*
X000458Y018222D01*
X000512Y018301D01*
X000569Y018377D01*
X000630Y018451D01*
X000694Y018521D01*
X000761Y018588D01*
X000831Y018652D01*
X000905Y018713D01*
X000981Y018770D01*
X001060Y018824D01*
X001141Y018873D01*
X001225Y018919D01*
X001310Y018960D01*
X001398Y018998D01*
X001487Y019031D01*
X001578Y019060D01*
X001669Y019085D01*
X001762Y019105D01*
X001856Y019121D01*
X001951Y019132D01*
X002046Y019139D01*
X002141Y019141D01*
X017141Y019141D01*
X016511Y017141D02*
X016513Y017191D01*
X016519Y017241D01*
X016529Y017290D01*
X016543Y017338D01*
X016560Y017385D01*
X016581Y017430D01*
X016606Y017474D01*
X016634Y017515D01*
X016666Y017554D01*
X016700Y017591D01*
X016737Y017625D01*
X016777Y017655D01*
X016819Y017682D01*
X016863Y017706D01*
X016909Y017727D01*
X016956Y017743D01*
X017004Y017756D01*
X017054Y017765D01*
X017103Y017770D01*
X017154Y017771D01*
X017204Y017768D01*
X017253Y017761D01*
X017302Y017750D01*
X017350Y017735D01*
X017396Y017717D01*
X017441Y017695D01*
X017484Y017669D01*
X017525Y017640D01*
X017564Y017608D01*
X017600Y017573D01*
X017632Y017535D01*
X017662Y017495D01*
X017689Y017452D01*
X017712Y017408D01*
X017731Y017362D01*
X017747Y017314D01*
X017759Y017265D01*
X017767Y017216D01*
X017771Y017166D01*
X017771Y017116D01*
X017767Y017066D01*
X017759Y017017D01*
X017747Y016968D01*
X017731Y016920D01*
X017712Y016874D01*
X017689Y016830D01*
X017662Y016787D01*
X017632Y016747D01*
X017600Y016709D01*
X017564Y016674D01*
X017525Y016642D01*
X017484Y016613D01*
X017441Y016587D01*
X017396Y016565D01*
X017350Y016547D01*
X017302Y016532D01*
X017253Y016521D01*
X017204Y016514D01*
X017154Y016511D01*
X017103Y016512D01*
X017054Y016517D01*
X017004Y016526D01*
X016956Y016539D01*
X016909Y016555D01*
X016863Y016576D01*
X016819Y016600D01*
X016777Y016627D01*
X016737Y016657D01*
X016700Y016691D01*
X016666Y016728D01*
X016634Y016767D01*
X016606Y016808D01*
X016581Y016852D01*
X016560Y016897D01*
X016543Y016944D01*
X016529Y016992D01*
X016519Y017041D01*
X016513Y017091D01*
X016511Y017141D01*
X017141Y019141D02*
X017236Y019139D01*
X017331Y019132D01*
X017426Y019121D01*
X017520Y019105D01*
X017613Y019085D01*
X017704Y019060D01*
X017795Y019031D01*
X017884Y018998D01*
X017972Y018960D01*
X018057Y018919D01*
X018141Y018873D01*
X018222Y018824D01*
X018301Y018770D01*
X018377Y018713D01*
X018451Y018652D01*
X018521Y018588D01*
X018588Y018521D01*
X018652Y018451D01*
X018713Y018377D01*
X018770Y018301D01*
X018824Y018222D01*
X018873Y018141D01*
X018919Y018057D01*
X018960Y017972D01*
X018998Y017884D01*
X019031Y017795D01*
X019060Y017704D01*
X019085Y017613D01*
X019105Y017520D01*
X019121Y017426D01*
X019132Y017331D01*
X019139Y017236D01*
X019141Y017141D01*
X019141Y002141D01*
X016511Y002141D02*
X016513Y002191D01*
X016519Y002241D01*
X016529Y002290D01*
X016543Y002338D01*
X016560Y002385D01*
X016581Y002430D01*
X016606Y002474D01*
X016634Y002515D01*
X016666Y002554D01*
X016700Y002591D01*
X016737Y002625D01*
X016777Y002655D01*
X016819Y002682D01*
X016863Y002706D01*
X016909Y002727D01*
X016956Y002743D01*
X017004Y002756D01*
X017054Y002765D01*
X017103Y002770D01*
X017154Y002771D01*
X017204Y002768D01*
X017253Y002761D01*
X017302Y002750D01*
X017350Y002735D01*
X017396Y002717D01*
X017441Y002695D01*
X017484Y002669D01*
X017525Y002640D01*
X017564Y002608D01*
X017600Y002573D01*
X017632Y002535D01*
X017662Y002495D01*
X017689Y002452D01*
X017712Y002408D01*
X017731Y002362D01*
X017747Y002314D01*
X017759Y002265D01*
X017767Y002216D01*
X017771Y002166D01*
X017771Y002116D01*
X017767Y002066D01*
X017759Y002017D01*
X017747Y001968D01*
X017731Y001920D01*
X017712Y001874D01*
X017689Y001830D01*
X017662Y001787D01*
X017632Y001747D01*
X017600Y001709D01*
X017564Y001674D01*
X017525Y001642D01*
X017484Y001613D01*
X017441Y001587D01*
X017396Y001565D01*
X017350Y001547D01*
X017302Y001532D01*
X017253Y001521D01*
X017204Y001514D01*
X017154Y001511D01*
X017103Y001512D01*
X017054Y001517D01*
X017004Y001526D01*
X016956Y001539D01*
X016909Y001555D01*
X016863Y001576D01*
X016819Y001600D01*
X016777Y001627D01*
X016737Y001657D01*
X016700Y001691D01*
X016666Y001728D01*
X016634Y001767D01*
X016606Y001808D01*
X016581Y001852D01*
X016560Y001897D01*
X016543Y001944D01*
X016529Y001992D01*
X016519Y002041D01*
X016513Y002091D01*
X016511Y002141D01*
X017141Y000141D02*
X017236Y000143D01*
X017331Y000150D01*
X017426Y000161D01*
X017520Y000177D01*
X017613Y000197D01*
X017704Y000222D01*
X017795Y000251D01*
X017884Y000284D01*
X017972Y000322D01*
X018057Y000363D01*
X018141Y000409D01*
X018222Y000458D01*
X018301Y000512D01*
X018377Y000569D01*
X018451Y000630D01*
X018521Y000694D01*
X018588Y000761D01*
X018652Y000831D01*
X018713Y000905D01*
X018770Y000981D01*
X018824Y001060D01*
X018873Y001141D01*
X018919Y001225D01*
X018960Y001310D01*
X018998Y001398D01*
X019031Y001487D01*
X019060Y001578D01*
X019085Y001669D01*
X019105Y001762D01*
X019121Y001856D01*
X019132Y001951D01*
X019139Y002046D01*
X019141Y002141D01*
X017141Y000141D02*
X002141Y000141D01*
X001511Y002141D02*
X001513Y002191D01*
X001519Y002241D01*
X001529Y002290D01*
X001543Y002338D01*
X001560Y002385D01*
X001581Y002430D01*
X001606Y002474D01*
X001634Y002515D01*
X001666Y002554D01*
X001700Y002591D01*
X001737Y002625D01*
X001777Y002655D01*
X001819Y002682D01*
X001863Y002706D01*
X001909Y002727D01*
X001956Y002743D01*
X002004Y002756D01*
X002054Y002765D01*
X002103Y002770D01*
X002154Y002771D01*
X002204Y002768D01*
X002253Y002761D01*
X002302Y002750D01*
X002350Y002735D01*
X002396Y002717D01*
X002441Y002695D01*
X002484Y002669D01*
X002525Y002640D01*
X002564Y002608D01*
X002600Y002573D01*
X002632Y002535D01*
X002662Y002495D01*
X002689Y002452D01*
X002712Y002408D01*
X002731Y002362D01*
X002747Y002314D01*
X002759Y002265D01*
X002767Y002216D01*
X002771Y002166D01*
X002771Y002116D01*
X002767Y002066D01*
X002759Y002017D01*
X002747Y001968D01*
X002731Y001920D01*
X002712Y001874D01*
X002689Y001830D01*
X002662Y001787D01*
X002632Y001747D01*
X002600Y001709D01*
X002564Y001674D01*
X002525Y001642D01*
X002484Y001613D01*
X002441Y001587D01*
X002396Y001565D01*
X002350Y001547D01*
X002302Y001532D01*
X002253Y001521D01*
X002204Y001514D01*
X002154Y001511D01*
X002103Y001512D01*
X002054Y001517D01*
X002004Y001526D01*
X001956Y001539D01*
X001909Y001555D01*
X001863Y001576D01*
X001819Y001600D01*
X001777Y001627D01*
X001737Y001657D01*
X001700Y001691D01*
X001666Y001728D01*
X001634Y001767D01*
X001606Y001808D01*
X001581Y001852D01*
X001560Y001897D01*
X001543Y001944D01*
X001529Y001992D01*
X001519Y002041D01*
X001513Y002091D01*
X001511Y002141D01*
X000141Y002141D02*
X000143Y002046D01*
X000150Y001951D01*
X000161Y001856D01*
X000177Y001762D01*
X000197Y001669D01*
X000222Y001578D01*
X000251Y001487D01*
X000284Y001398D01*
X000322Y001310D01*
X000363Y001225D01*
X000409Y001141D01*
X000458Y001060D01*
X000512Y000981D01*
X000569Y000905D01*
X000630Y000831D01*
X000694Y000761D01*
X000761Y000694D01*
X000831Y000630D01*
X000905Y000569D01*
X000981Y000512D01*
X001060Y000458D01*
X001141Y000409D01*
X001225Y000363D01*
X001310Y000322D01*
X001398Y000284D01*
X001487Y000251D01*
X001578Y000222D01*
X001669Y000197D01*
X001762Y000177D01*
X001856Y000161D01*
X001951Y000150D01*
X002046Y000143D01*
X002141Y000141D01*
X008746Y017420D02*
X008748Y017440D01*
X008754Y017460D01*
X008763Y017478D01*
X008776Y017495D01*
X008791Y017508D01*
X008809Y017518D01*
X008829Y017525D01*
X008849Y017528D01*
X008869Y017527D01*
X008889Y017522D01*
X008908Y017514D01*
X008925Y017502D01*
X008939Y017487D01*
X008950Y017469D01*
X008958Y017450D01*
X008962Y017430D01*
X008962Y017410D01*
X008958Y017390D01*
X008950Y017371D01*
X008939Y017353D01*
X008925Y017338D01*
X008908Y017326D01*
X008889Y017318D01*
X008869Y017313D01*
X008849Y017312D01*
X008829Y017315D01*
X008809Y017322D01*
X008791Y017332D01*
X008776Y017345D01*
X008763Y017362D01*
X008754Y017380D01*
X008748Y017400D01*
X008746Y017420D01*
X010321Y017420D02*
X010323Y017440D01*
X010329Y017460D01*
X010338Y017478D01*
X010351Y017495D01*
X010366Y017508D01*
X010384Y017518D01*
X010404Y017525D01*
X010424Y017528D01*
X010444Y017527D01*
X010464Y017522D01*
X010483Y017514D01*
X010500Y017502D01*
X010514Y017487D01*
X010525Y017469D01*
X010533Y017450D01*
X010537Y017430D01*
X010537Y017410D01*
X010533Y017390D01*
X010525Y017371D01*
X010514Y017353D01*
X010500Y017338D01*
X010483Y017326D01*
X010464Y017318D01*
X010444Y017313D01*
X010424Y017312D01*
X010404Y017315D01*
X010384Y017322D01*
X010366Y017332D01*
X010351Y017345D01*
X010338Y017362D01*
X010329Y017380D01*
X010323Y017400D01*
X010321Y017420D01*
D11*
X010224Y013913D03*
X010027Y013913D03*
X009830Y013913D03*
X009633Y013913D03*
X009436Y013913D03*
X009240Y013913D03*
X009043Y013913D03*
X008846Y013913D03*
X008649Y013913D03*
X008452Y013913D03*
X008255Y013913D03*
X008058Y013913D03*
X008058Y010369D03*
X008255Y010369D03*
X008452Y010369D03*
X008649Y010369D03*
X008846Y010369D03*
X009043Y010369D03*
X009240Y010369D03*
X009436Y010369D03*
X009633Y010369D03*
X009830Y010369D03*
X010027Y010369D03*
X010224Y010369D03*
D12*
X010913Y011058D03*
X010913Y011255D03*
X010913Y011452D03*
X010913Y011649D03*
X010913Y011846D03*
X010913Y012043D03*
X010913Y012240D03*
X010913Y012436D03*
X010913Y012633D03*
X010913Y012830D03*
X010913Y013027D03*
X010913Y013224D03*
X007369Y013224D03*
X007369Y013027D03*
X007369Y012830D03*
X007369Y012633D03*
X007369Y012436D03*
X007369Y012240D03*
X007369Y012043D03*
X007369Y011846D03*
X007369Y011649D03*
X007369Y011452D03*
X007369Y011255D03*
X007369Y011058D03*
D13*
X009129Y017115D03*
X009385Y017115D03*
X009641Y017115D03*
X009897Y017115D03*
X010153Y017115D03*
D14*
X010753Y018266D03*
X008529Y018266D03*
D15*
X009641Y018266D03*
D16*
X009641Y015476D03*
X009641Y014806D03*
X008641Y014806D03*
X008641Y015476D03*
X007641Y015476D03*
X007641Y014806D03*
X006476Y012641D03*
X005806Y012641D03*
X004226Y014141D03*
X003556Y014141D03*
X005806Y010641D03*
X006476Y010641D03*
X010641Y014806D03*
X010641Y015476D03*
X011641Y015476D03*
X011641Y014806D03*
X012641Y014806D03*
X012641Y015476D03*
X006641Y003476D03*
X006641Y002806D03*
X006641Y001976D03*
X006641Y001306D03*
D17*
X008413Y008688D03*
X008413Y009594D03*
X009869Y009594D03*
X009869Y008688D03*
D18*
X010766Y008806D03*
X010766Y009476D03*
X011641Y012666D03*
X011641Y013336D03*
X014766Y009788D03*
X014766Y009119D03*
X007516Y008806D03*
X007516Y009476D03*
X006476Y011641D03*
X005806Y011641D03*
X004976Y011641D03*
X004306Y011641D03*
X004306Y010641D03*
X004976Y010641D03*
X004976Y009641D03*
X004306Y009641D03*
X004306Y012641D03*
X004976Y012641D03*
X005641Y014806D03*
X005641Y015476D03*
X006641Y015476D03*
X006641Y014806D03*
X005641Y003476D03*
X005641Y002806D03*
D19*
X001641Y007141D03*
D20*
X001641Y008141D03*
X001641Y009141D03*
X001641Y010141D03*
X001641Y011141D03*
X001641Y012141D03*
D21*
X003096Y011641D03*
X003686Y011641D03*
X003686Y010641D03*
X003096Y010641D03*
X003096Y009641D03*
X003686Y009641D03*
X003686Y012641D03*
X003096Y012641D03*
D22*
X004106Y017641D03*
X007177Y017641D03*
X012106Y017641D03*
X015177Y017641D03*
D23*
X010641Y002619D03*
X010141Y002619D03*
X009641Y002619D03*
X009141Y002619D03*
X008641Y002619D03*
X008641Y001163D03*
X009141Y001163D03*
X009641Y001163D03*
X010141Y001163D03*
X010641Y001163D03*
D24*
X018141Y005641D03*
X018141Y006641D03*
X018141Y007641D03*
X018141Y008641D03*
X018141Y009641D03*
X018141Y010641D03*
X018141Y011641D03*
X018141Y012641D03*
X018141Y013641D03*
X016641Y013641D03*
X016641Y012641D03*
X016641Y011641D03*
X016641Y010641D03*
X016641Y009641D03*
X016641Y008641D03*
D25*
X014141Y006141D03*
X014141Y005141D03*
X013141Y005141D03*
X013141Y006141D03*
X012141Y006141D03*
X012141Y005141D03*
X011141Y005141D03*
X010141Y005141D03*
X009141Y005141D03*
X008141Y005141D03*
X007141Y005141D03*
X007141Y006141D03*
X008141Y006141D03*
X009141Y006141D03*
X010141Y006141D03*
X011141Y006141D03*
X006141Y006141D03*
X006141Y005141D03*
X005141Y005141D03*
X005141Y006141D03*
D26*
X012490Y010992D03*
X012745Y010992D03*
X013001Y010992D03*
X013257Y010992D03*
X013513Y010992D03*
X013769Y010992D03*
X014025Y010992D03*
X014281Y010992D03*
X014537Y010992D03*
X014793Y010992D03*
X014793Y013290D03*
X014537Y013290D03*
X014281Y013290D03*
X014025Y013290D03*
X013769Y013290D03*
X013513Y013290D03*
X013257Y013290D03*
X013001Y013290D03*
X012745Y013290D03*
X012490Y013290D03*
D27*
X013891Y014747D03*
X013517Y015535D03*
X014265Y015535D03*
D28*
X004966Y015397D03*
X004966Y015141D03*
X004966Y014885D03*
X004316Y014885D03*
X004316Y015397D03*
D29*
X005266Y016141D03*
X006141Y015641D03*
X007641Y014266D03*
X008141Y014391D03*
X009391Y013079D03*
X008954Y012891D03*
X009704Y012204D03*
X009954Y011829D03*
X009954Y011329D03*
X010391Y010891D03*
X009266Y011016D03*
X008016Y011516D03*
X006891Y012141D03*
X006829Y013204D03*
X006891Y013766D03*
X005391Y012141D03*
X005391Y011141D03*
X005391Y010141D03*
X008141Y006891D03*
X010141Y003641D03*
X012891Y008391D03*
X013891Y008391D03*
X014641Y010391D03*
X014141Y011641D03*
X015141Y011641D03*
X013249Y012697D03*
X012881Y012452D03*
X012141Y012766D03*
X012146Y011840D03*
X011656Y011656D03*
X012641Y010391D03*
X010016Y012579D03*
X009891Y013391D03*
X010141Y016141D03*
X008641Y016579D03*
X012641Y013766D03*
X013391Y014141D03*
X013891Y014141D03*
X012891Y016391D03*
D30*
X000566Y001151D02*
X000826Y000826D01*
X001151Y000566D01*
X001527Y000385D01*
X001933Y000293D01*
X002141Y000281D01*
X017083Y000281D01*
X017111Y000281D01*
X017141Y000281D01*
X017349Y000293D01*
X017755Y000385D01*
X018131Y000566D01*
X018456Y000826D01*
X018716Y001151D01*
X018897Y001527D01*
X018989Y001933D01*
X019001Y002141D01*
X019001Y017083D01*
X019001Y017097D01*
X019001Y017141D01*
X018989Y017349D01*
X018897Y017755D01*
X018716Y018131D01*
X018456Y018456D01*
X018131Y018716D01*
X017755Y018897D01*
X017349Y018989D01*
X017141Y019001D01*
X002199Y019001D01*
X002190Y019001D01*
X002141Y019001D01*
X001933Y018989D01*
X001527Y018897D01*
X001151Y018716D01*
X000826Y018456D01*
X000566Y018131D01*
X000385Y017755D01*
X000293Y017349D01*
X000281Y017141D01*
X000281Y002141D01*
X000293Y001933D01*
X000385Y001527D01*
X000566Y001151D01*
X000561Y001162D02*
X000846Y001162D01*
X000899Y001084D02*
X000620Y001084D01*
X000683Y001005D02*
X000965Y001005D01*
X000939Y001026D02*
X001321Y000721D01*
X001321Y000721D01*
X001776Y000542D01*
X001776Y000542D01*
X002264Y000506D01*
X002740Y000614D01*
X003164Y000859D01*
X003496Y001217D01*
X003496Y001217D01*
X003708Y001658D01*
X003781Y002141D01*
X003708Y002624D01*
X003708Y002624D01*
X003496Y003065D01*
X003164Y003423D01*
X002740Y003668D01*
X002264Y003776D01*
X002264Y003776D01*
X001776Y003740D01*
X001321Y003561D01*
X000939Y003257D01*
X000939Y003257D01*
X000939Y003257D01*
X000664Y002853D01*
X000664Y002853D01*
X000519Y002386D01*
X000519Y002385D01*
X000519Y001897D01*
X000519Y001897D01*
X000664Y001430D01*
X000939Y001026D01*
X000939Y001026D01*
X000939Y001026D01*
X001063Y000927D02*
X000746Y000927D01*
X000808Y000848D02*
X001162Y000848D01*
X001260Y000769D02*
X000897Y000769D01*
X000995Y000691D02*
X001397Y000691D01*
X001597Y000612D02*
X001094Y000612D01*
X001219Y000534D02*
X001888Y000534D01*
X001909Y000298D02*
X017373Y000298D01*
X017264Y000506D02*
X017740Y000614D01*
X018164Y000859D01*
X018496Y001217D01*
X018496Y001217D01*
X018708Y001658D01*
X018781Y002141D01*
X018708Y002624D01*
X018708Y002624D01*
X018496Y003065D01*
X018164Y003423D01*
X017740Y003668D01*
X017264Y003776D01*
X017264Y003776D01*
X016776Y003740D01*
X016321Y003561D01*
X015939Y003257D01*
X015939Y003257D01*
X015664Y002853D01*
X015664Y002853D01*
X015519Y002386D01*
X015519Y002385D01*
X015519Y001897D01*
X015519Y001897D01*
X015664Y001430D01*
X015939Y001026D01*
X016321Y000721D01*
X016776Y000542D01*
X017264Y000506D01*
X017264Y000506D01*
X017387Y000534D02*
X018064Y000534D01*
X018189Y000612D02*
X017731Y000612D01*
X017740Y000614D02*
X017740Y000614D01*
X017873Y000691D02*
X018287Y000691D01*
X018386Y000769D02*
X018009Y000769D01*
X018145Y000848D02*
X018474Y000848D01*
X018537Y000927D02*
X018226Y000927D01*
X018164Y000859D02*
X018164Y000859D01*
X018299Y001005D02*
X018599Y001005D01*
X018662Y001084D02*
X018372Y001084D01*
X018445Y001162D02*
X018721Y001162D01*
X018759Y001241D02*
X018507Y001241D01*
X018545Y001319D02*
X018797Y001319D01*
X018835Y001398D02*
X018583Y001398D01*
X018621Y001476D02*
X018872Y001476D01*
X018903Y001555D02*
X018659Y001555D01*
X018696Y001633D02*
X018921Y001633D01*
X018939Y001712D02*
X018716Y001712D01*
X018708Y001658D02*
X018708Y001658D01*
X018728Y001791D02*
X018957Y001791D01*
X018975Y001869D02*
X018740Y001869D01*
X018752Y001948D02*
X018990Y001948D01*
X018995Y002026D02*
X018764Y002026D01*
X018776Y002105D02*
X018999Y002105D01*
X019001Y002183D02*
X018775Y002183D01*
X018763Y002262D02*
X019001Y002262D01*
X019001Y002340D02*
X018751Y002340D01*
X018739Y002419D02*
X019001Y002419D01*
X019001Y002497D02*
X018727Y002497D01*
X018716Y002576D02*
X019001Y002576D01*
X019001Y002654D02*
X018694Y002654D01*
X018656Y002733D02*
X019001Y002733D01*
X019001Y002812D02*
X018618Y002812D01*
X018580Y002890D02*
X019001Y002890D01*
X019001Y002969D02*
X018542Y002969D01*
X018505Y003047D02*
X019001Y003047D01*
X019001Y003126D02*
X018440Y003126D01*
X018496Y003065D02*
X018496Y003065D01*
X018367Y003204D02*
X019001Y003204D01*
X019001Y003283D02*
X018294Y003283D01*
X018221Y003361D02*
X019001Y003361D01*
X019001Y003440D02*
X018135Y003440D01*
X018164Y003423D02*
X018164Y003423D01*
X017999Y003518D02*
X019001Y003518D01*
X019001Y003597D02*
X017863Y003597D01*
X017740Y003668D02*
X017740Y003668D01*
X017706Y003676D02*
X019001Y003676D01*
X019001Y003754D02*
X017362Y003754D01*
X016965Y003754D02*
X011009Y003754D01*
X011087Y003833D02*
X019001Y003833D01*
X019001Y003911D02*
X011166Y003911D01*
X011244Y003990D02*
X019001Y003990D01*
X019001Y004068D02*
X011323Y004068D01*
X011401Y004147D02*
X019001Y004147D01*
X019001Y004225D02*
X011480Y004225D01*
X011558Y004304D02*
X019001Y004304D01*
X019001Y004382D02*
X011637Y004382D01*
X011716Y004461D02*
X019001Y004461D01*
X019001Y004540D02*
X011794Y004540D01*
X011873Y004618D02*
X019001Y004618D01*
X019001Y004697D02*
X011951Y004697D01*
X011996Y004741D02*
X012307Y004741D01*
X012541Y004975D01*
X012541Y005301D01*
X012811Y005571D01*
X012811Y005711D01*
X012811Y005877D01*
X012967Y005721D01*
X013101Y005721D01*
X013101Y006101D01*
X013181Y006101D01*
X013181Y005721D01*
X013315Y005721D01*
X013561Y005967D01*
X013561Y006101D01*
X013181Y006101D01*
X013181Y006181D01*
X013101Y006181D01*
X013101Y006561D01*
X012967Y006561D01*
X012811Y006405D01*
X012811Y006571D01*
X014451Y008210D01*
X014451Y008351D01*
X014451Y008828D01*
X014457Y008816D01*
X014483Y008790D01*
X014515Y008772D01*
X014551Y008762D01*
X014726Y008762D01*
X014726Y009079D01*
X014806Y009079D01*
X014806Y008762D01*
X014981Y008762D01*
X015017Y008772D01*
X015049Y008790D01*
X015075Y008816D01*
X015093Y008848D01*
X015103Y008884D01*
X015103Y009079D01*
X014806Y009079D01*
X014806Y009159D01*
X015103Y009159D01*
X015103Y009354D01*
X015093Y009390D01*
X015075Y009421D01*
X015049Y009448D01*
X015023Y009462D01*
X015083Y009522D01*
X015083Y009618D01*
X015174Y009618D01*
X016191Y008601D01*
X016191Y008552D01*
X016260Y008386D01*
X016386Y008260D01*
X016461Y008229D01*
X016461Y007067D01*
X016567Y006961D01*
X017722Y005806D01*
X017691Y005731D01*
X017691Y005552D01*
X017760Y005386D01*
X017886Y005260D01*
X018052Y005191D01*
X018231Y005191D01*
X018396Y005260D01*
X018523Y005386D01*
X018591Y005552D01*
X018591Y005731D01*
X018523Y005896D01*
X018396Y006023D01*
X018231Y006091D01*
X018052Y006091D01*
X017977Y006060D01*
X016821Y007216D01*
X016821Y008229D01*
X016896Y008260D01*
X016961Y008325D01*
X016961Y008067D01*
X017067Y007961D01*
X017461Y007567D01*
X017567Y007461D01*
X017729Y007461D01*
X017760Y007386D01*
X017886Y007260D01*
X018052Y007191D01*
X018231Y007191D01*
X018396Y007260D01*
X018461Y007325D01*
X018461Y007216D01*
X018306Y007060D01*
X018231Y007091D01*
X018052Y007091D01*
X017886Y007023D01*
X017760Y006896D01*
X017691Y006731D01*
X017691Y006552D01*
X017760Y006386D01*
X017886Y006260D01*
X018052Y006191D01*
X018231Y006191D01*
X018396Y006260D01*
X018523Y006386D01*
X018591Y006552D01*
X018591Y006731D01*
X018560Y006806D01*
X018821Y007067D01*
X018821Y007216D01*
X018821Y007966D01*
X018716Y008071D01*
X018466Y008321D01*
X018457Y008321D01*
X018523Y008386D01*
X018591Y008552D01*
X018591Y008731D01*
X018560Y008806D01*
X018716Y008961D01*
X018821Y009067D01*
X018821Y012817D01*
X018821Y012966D01*
X018466Y013321D01*
X018457Y013321D01*
X018523Y013386D01*
X018591Y013552D01*
X018591Y013731D01*
X018523Y013896D01*
X018396Y014023D01*
X018231Y014091D01*
X018052Y014091D01*
X017886Y014023D01*
X017760Y013896D01*
X017691Y013731D01*
X017691Y013552D01*
X017760Y013386D01*
X017825Y013321D01*
X017716Y013321D01*
X017216Y013821D01*
X017067Y013821D01*
X017054Y013821D01*
X017023Y013896D01*
X016896Y014023D01*
X016731Y014091D01*
X016552Y014091D01*
X016386Y014023D01*
X016260Y013896D01*
X016191Y013731D01*
X016191Y013552D01*
X016260Y013386D01*
X016386Y013260D01*
X016552Y013191D01*
X016731Y013191D01*
X016896Y013260D01*
X017023Y013386D01*
X017054Y013461D01*
X017067Y013461D01*
X017461Y013067D01*
X017461Y013067D01*
X017567Y012961D01*
X017796Y012961D01*
X017783Y012947D01*
X017739Y012887D01*
X017706Y012821D01*
X017683Y012751D01*
X017672Y012681D01*
X018101Y012681D01*
X018101Y012601D01*
X018181Y012601D01*
X018181Y012172D01*
X018251Y012183D01*
X018321Y012206D01*
X018387Y012239D01*
X018447Y012283D01*
X018461Y012296D01*
X018461Y011957D01*
X018396Y012023D01*
X018231Y012091D01*
X018052Y012091D01*
X017886Y012023D01*
X017821Y011957D01*
X017821Y012067D01*
X017821Y012216D01*
X017321Y012716D01*
X017216Y012821D01*
X017054Y012821D01*
X017023Y012896D01*
X016896Y013023D01*
X016731Y013091D01*
X016552Y013091D01*
X016386Y013023D01*
X016260Y012896D01*
X016191Y012731D01*
X016191Y012552D01*
X016260Y012386D01*
X016386Y012260D01*
X016552Y012191D01*
X016731Y012191D01*
X016896Y012260D01*
X017023Y012386D01*
X017054Y012461D01*
X017067Y012461D01*
X017461Y012067D01*
X017461Y011076D01*
X017060Y011477D01*
X017091Y011552D01*
X017091Y011731D01*
X017023Y011896D01*
X016896Y012023D01*
X016731Y012091D01*
X016552Y012091D01*
X016386Y012023D01*
X016260Y011896D01*
X016224Y011811D01*
X015961Y011811D01*
X015461Y012311D01*
X015321Y012311D01*
X014282Y012311D01*
X014441Y012470D01*
X014441Y012602D01*
X014441Y012960D01*
X014458Y012955D01*
X014537Y012955D01*
X014615Y012955D01*
X014651Y012964D01*
X014665Y012972D01*
X014679Y012964D01*
X014714Y012955D01*
X014792Y012955D01*
X014792Y013289D01*
X014793Y013289D01*
X014793Y012955D01*
X014871Y012955D01*
X014907Y012964D01*
X014939Y012983D01*
X014965Y013009D01*
X014983Y013041D01*
X014993Y013076D01*
X014993Y013290D01*
X014993Y013503D01*
X014983Y013539D01*
X014965Y013571D01*
X014939Y013597D01*
X014907Y013615D01*
X014871Y013625D01*
X014793Y013625D01*
X014793Y013290D01*
X014993Y013290D01*
X014793Y013290D01*
X014793Y013290D01*
X014792Y013290D01*
X014792Y013290D01*
X014593Y013290D01*
X014537Y013290D01*
X014537Y013290D01*
X014537Y013290D01*
X014537Y013625D01*
X014615Y013625D01*
X014651Y013615D01*
X014665Y013607D01*
X014679Y013615D01*
X014714Y013625D01*
X014792Y013625D01*
X014792Y013290D01*
X014593Y013290D01*
X014537Y013290D01*
X014537Y013625D01*
X014458Y013625D01*
X014423Y013615D01*
X014396Y013600D01*
X014391Y013605D01*
X014171Y013605D01*
X014153Y013587D01*
X014135Y013605D01*
X013915Y013605D01*
X013897Y013587D01*
X013879Y013605D01*
X013659Y013605D01*
X013641Y013587D01*
X013623Y013605D01*
X013403Y013605D01*
X013385Y013587D01*
X013367Y013605D01*
X013148Y013605D01*
X013142Y013600D01*
X013115Y013615D01*
X013080Y013625D01*
X013001Y013625D01*
X012923Y013625D01*
X012905Y013620D01*
X012905Y013624D01*
X012939Y013707D01*
X012939Y013826D01*
X012894Y013935D01*
X012810Y014019D01*
X012700Y014065D01*
X012582Y014065D01*
X012472Y014019D01*
X012388Y013935D01*
X012384Y013926D01*
X011637Y013926D01*
X011544Y013832D01*
X011481Y013770D01*
X011481Y013672D01*
X011395Y013672D01*
X011324Y013602D01*
X011324Y013496D01*
X011248Y013496D01*
X011136Y013384D01*
X010846Y013384D01*
X010290Y013384D01*
X010157Y013384D01*
X009141Y012367D01*
X009114Y012395D01*
X009020Y012489D01*
X008770Y012489D01*
X008662Y012596D01*
X008559Y012699D01*
X008218Y013040D01*
X008218Y013576D01*
X008255Y013576D01*
X008255Y013912D01*
X008255Y013912D01*
X008255Y013576D01*
X008292Y013576D01*
X008292Y013396D01*
X008292Y013264D01*
X008356Y013200D01*
X008450Y013106D01*
X008747Y013106D01*
X008701Y013060D01*
X008655Y012950D01*
X008655Y012832D01*
X008701Y012722D01*
X008785Y012638D01*
X008894Y012593D01*
X009013Y012593D01*
X009123Y012638D01*
X009207Y012722D01*
X009245Y012816D01*
X009332Y012780D01*
X009450Y012780D01*
X009560Y012826D01*
X009644Y012910D01*
X009689Y013019D01*
X009689Y013138D01*
X009644Y013248D01*
X009596Y013295D01*
X009596Y013596D01*
X009722Y013596D01*
X009732Y013605D01*
X009741Y013596D01*
X009919Y013596D01*
X009929Y013605D01*
X009938Y013596D01*
X010116Y013596D01*
X010125Y013605D01*
X010135Y013596D01*
X010313Y013596D01*
X010383Y013666D01*
X010383Y013846D01*
X010384Y013846D01*
X010384Y014032D01*
X010395Y014044D01*
X011972Y014044D01*
X012105Y014044D01*
X012301Y014240D01*
X012301Y014373D01*
X012301Y014646D01*
X012305Y014646D01*
X012305Y014560D01*
X012375Y014490D01*
X012907Y014490D01*
X012978Y014560D01*
X012978Y015053D01*
X012907Y015123D01*
X012375Y015123D01*
X012305Y015053D01*
X012305Y014966D01*
X012301Y014966D01*
X012301Y016075D01*
X012593Y016366D01*
X012593Y016332D01*
X012596Y016323D01*
X012575Y016301D01*
X012481Y016207D01*
X012481Y015793D01*
X012375Y015793D01*
X012305Y015722D01*
X012305Y015229D01*
X012375Y015159D01*
X012907Y015159D01*
X012978Y015229D01*
X012978Y015306D01*
X013242Y015306D01*
X013310Y015238D01*
X013511Y015238D01*
X013481Y015207D01*
X013231Y014957D01*
X013231Y014825D01*
X013231Y014398D01*
X013222Y014394D01*
X013138Y014310D01*
X013093Y014200D01*
X012261Y014200D01*
X012301Y014279D02*
X013125Y014279D01*
X013093Y014200D02*
X013093Y014082D01*
X013138Y013972D01*
X013222Y013888D01*
X013332Y013843D01*
X013450Y013843D01*
X013560Y013888D01*
X013641Y013969D01*
X013722Y013888D01*
X013832Y013843D01*
X013950Y013843D01*
X014060Y013888D01*
X014144Y013972D01*
X014189Y014082D01*
X014189Y014200D01*
X019001Y014200D01*
X019001Y014122D02*
X014189Y014122D01*
X014189Y014200D02*
X014144Y014310D01*
X014061Y014393D01*
X014061Y014450D01*
X014098Y014450D01*
X014169Y014521D01*
X014169Y014974D01*
X014162Y014981D01*
X014207Y014981D01*
X014301Y015075D01*
X014425Y015199D01*
X014425Y015238D01*
X014472Y015238D01*
X014543Y015308D01*
X014543Y015762D01*
X014472Y015832D01*
X014058Y015832D01*
X013988Y015762D01*
X013988Y015308D01*
X013995Y015301D01*
X013788Y015301D01*
X013795Y015308D01*
X013795Y015762D01*
X013724Y015832D01*
X013310Y015832D01*
X013240Y015762D01*
X013240Y015646D01*
X012978Y015646D01*
X012978Y015722D01*
X012907Y015793D01*
X012801Y015793D01*
X012801Y016075D01*
X012823Y016096D01*
X012832Y016093D01*
X012950Y016093D01*
X013060Y016138D01*
X013144Y016222D01*
X013189Y016332D01*
X013189Y016450D01*
X013144Y016560D01*
X013060Y016644D01*
X012950Y016689D01*
X012916Y016689D01*
X013707Y017481D01*
X014761Y017481D01*
X014761Y017296D01*
X014832Y017226D01*
X015519Y017226D01*
X015519Y016897D01*
X015519Y016897D01*
X015664Y016430D01*
X015939Y016026D01*
X015939Y016026D01*
X016321Y015721D01*
X016321Y015721D01*
X016776Y015542D01*
X016776Y015542D01*
X017264Y015506D01*
X017740Y015614D01*
X018164Y015859D01*
X018496Y016217D01*
X018496Y016217D01*
X018708Y016658D01*
X018781Y017141D01*
X018708Y017624D01*
X018708Y017624D01*
X018496Y018065D01*
X018164Y018423D01*
X017740Y018668D01*
X017264Y018776D01*
X017264Y018776D01*
X016776Y018740D01*
X016321Y018561D01*
X015939Y018257D01*
X015939Y018257D01*
X015939Y018257D01*
X015664Y017853D01*
X015664Y017853D01*
X015592Y017620D01*
X015592Y017986D01*
X015521Y018056D01*
X014832Y018056D01*
X014761Y017986D01*
X014761Y017801D01*
X013707Y017801D01*
X013575Y017801D01*
X012075Y016301D01*
X011981Y016207D01*
X011981Y015739D01*
X011970Y015759D01*
X011944Y015785D01*
X011912Y015803D01*
X011876Y015813D01*
X011681Y015813D01*
X011681Y015516D01*
X011601Y015516D01*
X011601Y015813D01*
X011406Y015813D01*
X011371Y015803D01*
X011339Y015785D01*
X011313Y015759D01*
X011294Y015727D01*
X011285Y015691D01*
X011285Y015516D01*
X011601Y015516D01*
X011601Y015436D01*
X011285Y015436D01*
X011285Y015260D01*
X011294Y015225D01*
X011313Y015193D01*
X011339Y015167D01*
X011371Y015148D01*
X011406Y015139D01*
X011601Y015139D01*
X011601Y015436D01*
X011681Y015436D01*
X011681Y015139D01*
X011876Y015139D01*
X011912Y015148D01*
X011944Y015167D01*
X011970Y015193D01*
X011981Y015213D01*
X011981Y014832D01*
X011981Y014700D01*
X011981Y014373D01*
X011972Y014364D01*
X010424Y014364D01*
X010550Y014490D01*
X010907Y014490D01*
X010978Y014560D01*
X010978Y014646D01*
X011305Y014646D01*
X011305Y014560D01*
X011375Y014490D01*
X011907Y014490D01*
X011978Y014560D01*
X011978Y015053D01*
X011907Y015123D01*
X011375Y015123D01*
X011305Y015053D01*
X011305Y014966D01*
X010978Y014966D01*
X010978Y015053D01*
X010907Y015123D01*
X010375Y015123D01*
X010305Y015053D01*
X010305Y014696D01*
X009867Y014259D01*
X009867Y014230D01*
X009741Y014230D01*
X009732Y014220D01*
X009722Y014230D01*
X009544Y014230D01*
X009535Y014220D01*
X009525Y014230D01*
X009347Y014230D01*
X009338Y014220D01*
X009329Y014230D01*
X009150Y014230D01*
X009141Y014220D01*
X009132Y014230D01*
X009006Y014230D01*
X009006Y014231D01*
X009075Y014231D01*
X009207Y014231D01*
X009466Y014490D01*
X009907Y014490D01*
X009978Y014560D01*
X009978Y015053D01*
X009907Y015123D01*
X009375Y015123D01*
X009305Y015053D01*
X009305Y014781D01*
X009075Y014551D01*
X008969Y014551D01*
X008978Y014560D01*
X008978Y015053D01*
X008907Y015123D01*
X008375Y015123D01*
X008305Y015053D01*
X008305Y014646D01*
X008200Y014689D01*
X008082Y014689D01*
X007978Y014646D01*
X007978Y015053D01*
X007907Y015123D01*
X007375Y015123D01*
X007305Y015053D01*
X007305Y014560D01*
X007375Y014490D01*
X007443Y014490D01*
X007388Y014435D01*
X007343Y014325D01*
X007343Y014207D01*
X007372Y014137D01*
X007301Y014207D01*
X007301Y014762D01*
X007301Y014895D01*
X007301Y017226D01*
X007521Y017226D01*
X007592Y017296D01*
X007592Y017986D01*
X007521Y018056D01*
X006832Y018056D01*
X006761Y017986D01*
X006761Y017296D01*
X006832Y017226D01*
X006981Y017226D01*
X006981Y014966D01*
X006958Y014966D01*
X006958Y015073D01*
X006898Y015132D01*
X006924Y015147D01*
X006950Y015173D01*
X006968Y015205D01*
X006978Y015241D01*
X006978Y015436D01*
X006681Y015436D01*
X006681Y015516D01*
X006601Y015516D01*
X006601Y015832D01*
X006426Y015832D01*
X006390Y015823D01*
X006385Y015819D01*
X006310Y015894D01*
X006301Y015898D01*
X006301Y017325D01*
X006301Y017457D01*
X006051Y017707D01*
X005957Y017801D01*
X004521Y017801D01*
X004521Y017986D01*
X004451Y018056D01*
X003761Y018056D01*
X003690Y017986D01*
X003690Y017661D01*
X003496Y018065D01*
X003164Y018423D01*
X002740Y018668D01*
X002264Y018776D01*
X002264Y018776D01*
X001776Y018740D01*
X001321Y018561D01*
X000939Y018257D01*
X000939Y018257D01*
X000939Y018257D01*
X000664Y017853D01*
X000664Y017853D01*
X000519Y017386D01*
X000519Y017385D01*
X000519Y016897D01*
X000519Y016897D01*
X000664Y016430D01*
X000939Y016026D01*
X000939Y016026D01*
X001321Y015721D01*
X001321Y015721D01*
X001776Y015542D01*
X001776Y015542D01*
X002264Y015506D01*
X002740Y015614D01*
X003164Y015859D01*
X003496Y016217D01*
X003496Y016217D01*
X003708Y016658D01*
X003781Y017141D01*
X003768Y017226D01*
X004451Y017226D01*
X004521Y017296D01*
X004521Y017481D01*
X005825Y017481D01*
X005981Y017325D01*
X005981Y015898D01*
X005972Y015894D01*
X005889Y015811D01*
X005888Y015812D01*
X005446Y015812D01*
X005446Y015899D01*
X005519Y015972D01*
X005564Y016082D01*
X005564Y016200D01*
X005519Y016310D01*
X005435Y016394D01*
X005325Y016439D01*
X005207Y016439D01*
X005097Y016394D01*
X005013Y016310D01*
X004968Y016200D01*
X004968Y016082D01*
X005013Y015972D01*
X005086Y015899D01*
X005086Y015596D01*
X004769Y015596D01*
X004698Y015525D01*
X004698Y015269D01*
X004698Y015013D01*
X004698Y014757D01*
X004769Y014686D01*
X005163Y014686D01*
X005188Y014711D01*
X005278Y014711D01*
X005304Y014737D01*
X005304Y014571D01*
X005314Y014536D01*
X005332Y014504D01*
X005358Y014478D01*
X005390Y014459D01*
X005426Y014450D01*
X005601Y014450D01*
X005601Y014766D01*
X005681Y014766D01*
X005681Y014450D01*
X005856Y014450D01*
X005892Y014459D01*
X005924Y014478D01*
X005950Y014504D01*
X005968Y014536D01*
X005978Y014571D01*
X005978Y014766D01*
X005681Y014766D01*
X005681Y014846D01*
X005978Y014846D01*
X005978Y015041D01*
X005968Y015077D01*
X005950Y015109D01*
X005924Y015135D01*
X005898Y015150D01*
X005958Y015209D01*
X005958Y015402D01*
X005972Y015388D01*
X006082Y015343D01*
X006200Y015343D01*
X006304Y015386D01*
X006304Y015241D01*
X006314Y015205D01*
X006332Y015173D01*
X006358Y015147D01*
X006384Y015132D01*
X006324Y015073D01*
X006324Y014540D01*
X006395Y014470D01*
X006461Y014470D01*
X006461Y014466D01*
X006317Y014321D01*
X004562Y014321D01*
X004562Y014388D01*
X004496Y014454D01*
X004496Y014686D01*
X004514Y014686D01*
X004584Y014757D01*
X004584Y015014D01*
X004514Y015084D01*
X004119Y015084D01*
X004049Y015014D01*
X004049Y014757D01*
X004119Y014686D01*
X004136Y014686D01*
X004136Y014458D01*
X003959Y014458D01*
X003900Y014398D01*
X003885Y014424D01*
X003859Y014450D01*
X003827Y014468D01*
X003791Y014478D01*
X003596Y014478D01*
X003596Y014181D01*
X003516Y014181D01*
X003516Y014101D01*
X003200Y014101D01*
X003200Y013926D01*
X003209Y013890D01*
X003228Y013858D01*
X003254Y013832D01*
X003286Y013814D01*
X003321Y013804D01*
X003516Y013804D01*
X003516Y014101D01*
X003596Y014101D01*
X003596Y013804D01*
X003791Y013804D01*
X003827Y013814D01*
X003859Y013832D01*
X003885Y013858D01*
X003900Y013884D01*
X003959Y013824D01*
X004492Y013824D01*
X004562Y013895D01*
X004562Y013961D01*
X006466Y013961D01*
X006571Y014067D01*
X006821Y014317D01*
X006821Y014466D01*
X006821Y014470D01*
X006888Y014470D01*
X006958Y014540D01*
X006958Y014646D01*
X006981Y014646D01*
X006981Y014075D01*
X007020Y014035D01*
X006950Y014064D01*
X006832Y014064D01*
X006722Y014019D01*
X006638Y013935D01*
X006593Y013825D01*
X006593Y013801D01*
X001575Y013801D01*
X001481Y013707D01*
X000731Y012957D01*
X000731Y012825D01*
X000731Y010825D01*
X000825Y010731D01*
X001215Y010341D01*
X001171Y010235D01*
X001171Y010048D01*
X001243Y009875D01*
X001375Y009743D01*
X001548Y009671D01*
X001735Y009671D01*
X001907Y009743D01*
X002040Y009875D01*
X002111Y010048D01*
X002111Y010235D01*
X002040Y010407D01*
X001907Y010540D01*
X001735Y010611D01*
X001548Y010611D01*
X001441Y010567D01*
X001051Y010957D01*
X001051Y012825D01*
X001707Y013481D01*
X006700Y013481D01*
X006719Y013481D01*
X006660Y013457D01*
X006576Y013373D01*
X006572Y013364D01*
X002770Y013364D01*
X002637Y013364D01*
X002325Y013051D01*
X002231Y012957D01*
X002231Y011957D01*
X001841Y011567D01*
X001735Y011611D01*
X001548Y011611D01*
X001375Y011540D01*
X001243Y011407D01*
X001171Y011235D01*
X001171Y011048D01*
X001243Y010875D01*
X001375Y010743D01*
X001548Y010671D01*
X001735Y010671D01*
X001907Y010743D01*
X002040Y010875D01*
X002111Y011048D01*
X002111Y011235D01*
X002067Y011341D01*
X002551Y011825D01*
X002551Y011957D01*
X002551Y012825D01*
X002770Y013044D01*
X006572Y013044D01*
X006576Y013035D01*
X006652Y012958D01*
X006209Y012958D01*
X006150Y012898D01*
X006135Y012924D01*
X006109Y012950D01*
X006077Y012968D01*
X006041Y012978D01*
X005846Y012978D01*
X005846Y012681D01*
X005766Y012681D01*
X005766Y012601D01*
X005450Y012601D01*
X005450Y012439D01*
X005404Y012439D01*
X005293Y012550D01*
X005293Y012907D01*
X005222Y012978D01*
X004729Y012978D01*
X004659Y012907D01*
X004659Y012375D01*
X004729Y012305D01*
X005086Y012305D01*
X005121Y012269D01*
X005093Y012200D01*
X005093Y012082D01*
X005136Y011978D01*
X004729Y011978D01*
X004659Y011907D01*
X004659Y011375D01*
X004729Y011305D01*
X005086Y011305D01*
X005121Y011269D01*
X005093Y011200D01*
X005093Y011082D01*
X005136Y010978D01*
X004729Y010978D01*
X004659Y010907D01*
X004659Y010375D01*
X004729Y010305D01*
X005086Y010305D01*
X005121Y010269D01*
X005093Y010200D01*
X005093Y010082D01*
X005136Y009978D01*
X004729Y009978D01*
X004659Y009907D01*
X004659Y009375D01*
X004729Y009305D01*
X004816Y009305D01*
X004816Y009301D01*
X002084Y009301D01*
X002040Y009407D01*
X001907Y009540D01*
X001735Y009611D01*
X001548Y009611D01*
X001375Y009540D01*
X001243Y009407D01*
X001171Y009235D01*
X001171Y009048D01*
X001243Y008875D01*
X001375Y008743D01*
X001548Y008671D01*
X001735Y008671D01*
X001907Y008743D01*
X002040Y008875D01*
X002084Y008981D01*
X004957Y008981D01*
X005051Y009075D01*
X005136Y009159D01*
X005136Y009292D01*
X005136Y009305D01*
X005222Y009305D01*
X005293Y009375D01*
X005293Y009481D01*
X006207Y009481D01*
X006301Y009575D01*
X006636Y009909D01*
X006636Y010042D01*
X006636Y010324D01*
X006742Y010324D01*
X006812Y010395D01*
X006812Y010481D01*
X006832Y010481D01*
X006926Y010575D01*
X007250Y010898D01*
X007303Y010898D01*
X007898Y010898D01*
X007898Y010303D01*
X007899Y010303D01*
X007899Y010123D01*
X007969Y010053D01*
X008147Y010053D01*
X008157Y010062D01*
X008166Y010053D01*
X008344Y010053D01*
X008354Y010062D01*
X008363Y010053D01*
X008541Y010053D01*
X008551Y010062D01*
X008560Y010053D01*
X008686Y010053D01*
X008686Y010003D01*
X008686Y009930D01*
X007989Y009930D01*
X007919Y009860D01*
X007919Y009328D01*
X007989Y009257D01*
X008836Y009257D01*
X008907Y009328D01*
X008907Y009649D01*
X008981Y009575D01*
X008981Y008957D01*
X008907Y008883D01*
X008907Y008955D01*
X008836Y009025D01*
X007989Y009025D01*
X007919Y008955D01*
X007919Y008848D01*
X007833Y008848D01*
X007833Y009073D01*
X007773Y009132D01*
X007799Y009147D01*
X007825Y009173D01*
X007843Y009205D01*
X007853Y009241D01*
X007853Y009436D01*
X007556Y009436D01*
X007556Y009516D01*
X007476Y009516D01*
X007476Y009832D01*
X007301Y009832D01*
X007265Y009823D01*
X007233Y009804D01*
X007207Y009778D01*
X007189Y009746D01*
X007179Y009711D01*
X007179Y009516D01*
X007476Y009516D01*
X007476Y009436D01*
X007179Y009436D01*
X007179Y009241D01*
X007189Y009205D01*
X007207Y009173D01*
X007233Y009147D01*
X007259Y009132D01*
X007199Y009073D01*
X007199Y008540D01*
X007270Y008470D01*
X007763Y008470D01*
X007821Y008528D01*
X007919Y008528D01*
X007919Y008422D01*
X007989Y008352D01*
X008836Y008352D01*
X008907Y008422D01*
X008907Y008528D01*
X009005Y008528D01*
X009301Y008825D01*
X009301Y008957D01*
X009301Y009505D01*
X009372Y009434D01*
X009375Y009434D01*
X009375Y009328D01*
X009446Y009257D01*
X010293Y009257D01*
X010363Y009328D01*
X010363Y009434D01*
X010449Y009434D01*
X010449Y009209D01*
X010509Y009150D01*
X010483Y009135D01*
X010457Y009109D01*
X010439Y009077D01*
X010429Y009041D01*
X010429Y008846D01*
X010726Y008846D01*
X010726Y008766D01*
X010806Y008766D01*
X010806Y008450D01*
X010981Y008450D01*
X011017Y008459D01*
X011049Y008478D01*
X011075Y008504D01*
X011093Y008536D01*
X011103Y008571D01*
X011103Y008766D01*
X010806Y008766D01*
X010806Y008846D01*
X011103Y008846D01*
X011103Y009041D01*
X011093Y009077D01*
X011075Y009109D01*
X011049Y009135D01*
X011023Y009150D01*
X011083Y009209D01*
X011083Y009742D01*
X011013Y009812D01*
X010520Y009812D01*
X010461Y009754D01*
X010363Y009754D01*
X010363Y009860D01*
X010293Y009930D01*
X009446Y009930D01*
X009387Y009871D01*
X009206Y010053D01*
X009325Y010053D01*
X009343Y010042D01*
X009379Y010033D01*
X009436Y010033D01*
X009436Y010369D01*
X009437Y010369D01*
X009437Y010033D01*
X009494Y010033D01*
X009530Y010042D01*
X009548Y010053D01*
X009722Y010053D01*
X009732Y010062D01*
X009741Y010053D01*
X009919Y010053D01*
X009928Y010062D01*
X009938Y010053D01*
X010116Y010053D01*
X010125Y010062D01*
X010135Y010053D01*
X010313Y010053D01*
X010383Y010123D01*
X010383Y010209D01*
X011298Y010209D01*
X011431Y010209D01*
X012310Y011088D01*
X012310Y010748D01*
X012380Y010677D01*
X012552Y010677D01*
X012472Y010644D01*
X012388Y010560D01*
X012343Y010450D01*
X012343Y010332D01*
X012388Y010222D01*
X012471Y010139D01*
X012471Y009211D01*
X010821Y007561D01*
X006321Y007561D01*
X006221Y007461D01*
X005301Y006541D01*
X004975Y006541D01*
X004741Y006307D01*
X004741Y005975D01*
X004961Y005755D01*
X004961Y005527D01*
X004741Y005307D01*
X004741Y004975D01*
X004961Y004755D01*
X004961Y001567D01*
X005067Y001461D01*
X005401Y001126D01*
X005550Y001126D01*
X006305Y001126D01*
X006305Y001060D01*
X006375Y000990D01*
X006907Y000990D01*
X006978Y001060D01*
X006978Y001126D01*
X007401Y001126D01*
X007545Y000983D01*
X007694Y000983D01*
X008393Y000983D01*
X008393Y000601D01*
X008463Y000531D01*
X008819Y000531D01*
X008883Y000596D01*
X008901Y000565D01*
X008927Y000539D01*
X008959Y000520D01*
X008995Y000511D01*
X009117Y000511D01*
X009117Y001139D01*
X009165Y001139D01*
X009165Y001187D01*
X009117Y001187D01*
X009117Y001815D01*
X008995Y001815D01*
X008959Y001805D01*
X008927Y001787D01*
X008901Y001761D01*
X008883Y001730D01*
X008819Y001795D01*
X008463Y001795D01*
X008393Y001724D01*
X008393Y001343D01*
X007694Y001343D01*
X007550Y001486D01*
X007401Y001486D01*
X006978Y001486D01*
X006978Y001553D01*
X006907Y001623D01*
X006375Y001623D01*
X006305Y001553D01*
X006305Y001486D01*
X005550Y001486D01*
X005321Y001716D01*
X005321Y003193D01*
X005332Y003173D01*
X005358Y003147D01*
X005384Y003132D01*
X005324Y003073D01*
X005324Y002540D01*
X005395Y002470D01*
X005461Y002470D01*
X005461Y002442D01*
X005586Y002317D01*
X005692Y002211D01*
X006305Y002211D01*
X006305Y001729D01*
X006375Y001659D01*
X006907Y001659D01*
X006978Y001729D01*
X006978Y002222D01*
X006907Y002293D01*
X006821Y002293D01*
X006821Y002317D01*
X006821Y002466D01*
X006821Y002490D01*
X006907Y002490D01*
X006978Y002560D01*
X006978Y002626D01*
X006982Y002626D01*
X007131Y002626D01*
X007716Y003211D01*
X007821Y003317D01*
X007821Y004896D01*
X007961Y004755D01*
X007961Y004216D01*
X007961Y004067D01*
X008461Y003567D01*
X008461Y003249D01*
X008393Y003181D01*
X008393Y002058D01*
X008463Y001988D01*
X008819Y001988D01*
X008889Y002058D01*
X008889Y003181D01*
X008821Y003249D01*
X008821Y003716D01*
X008716Y003821D01*
X008321Y004216D01*
X008321Y004755D01*
X008541Y004975D01*
X008541Y005301D01*
X008811Y005571D01*
X008811Y005711D01*
X008811Y005877D01*
X008967Y005721D01*
X009101Y005721D01*
X009101Y006101D01*
X009181Y006101D01*
X009181Y005721D01*
X009315Y005721D01*
X009561Y005967D01*
X009561Y006101D01*
X009181Y006101D01*
X009181Y006181D01*
X009101Y006181D01*
X009101Y006561D01*
X009051Y006561D01*
X009461Y006971D01*
X010981Y006971D01*
X010571Y006561D01*
X010471Y006461D01*
X010471Y006405D01*
X010315Y006561D01*
X010181Y006561D01*
X010181Y006181D01*
X010101Y006181D01*
X010101Y006101D01*
X009721Y006101D01*
X009721Y005967D01*
X009877Y005811D01*
X009711Y005811D01*
X009571Y005811D01*
X009301Y005541D01*
X008975Y005541D01*
X008741Y005307D01*
X008741Y004975D01*
X008961Y004755D01*
X008961Y003249D01*
X008893Y003181D01*
X008893Y002058D01*
X008963Y001988D01*
X009319Y001988D01*
X009389Y002058D01*
X009389Y003181D01*
X009321Y003249D01*
X009321Y004755D01*
X009541Y004975D01*
X009541Y005301D01*
X009711Y005471D01*
X009906Y005471D01*
X009741Y005307D01*
X009741Y004975D01*
X009975Y004741D01*
X010307Y004741D01*
X010541Y004975D01*
X010541Y005307D01*
X010377Y005471D01*
X010461Y005471D01*
X010561Y005571D01*
X010811Y005821D01*
X010811Y005877D01*
X010967Y005721D01*
X011101Y005721D01*
X011101Y006101D01*
X011181Y006101D01*
X011181Y005721D01*
X011315Y005721D01*
X011471Y005877D01*
X011471Y005711D01*
X011301Y005541D01*
X010975Y005541D01*
X010741Y005307D01*
X010741Y004996D01*
X009567Y003821D01*
X009461Y003716D01*
X009461Y003249D01*
X009393Y003181D01*
X009393Y002058D01*
X009463Y001988D01*
X009819Y001988D01*
X009889Y002058D01*
X009889Y003181D01*
X009821Y003249D01*
X009821Y003567D01*
X009843Y003588D01*
X009843Y003582D01*
X009888Y003472D01*
X009961Y003399D01*
X009961Y003249D01*
X009893Y003181D01*
X009893Y002058D01*
X009963Y001988D01*
X010319Y001988D01*
X010389Y002058D01*
X010389Y003181D01*
X010321Y003249D01*
X010321Y003399D01*
X010394Y003472D01*
X010439Y003582D01*
X010439Y003700D01*
X010394Y003810D01*
X010310Y003894D01*
X010200Y003939D01*
X010194Y003939D01*
X010996Y004741D01*
X011307Y004741D01*
X011541Y004975D01*
X011541Y005301D01*
X011811Y005571D01*
X011811Y005711D01*
X011811Y005877D01*
X011967Y005721D01*
X012101Y005721D01*
X012101Y006101D01*
X012181Y006101D01*
X012181Y005721D01*
X012315Y005721D01*
X012471Y005877D01*
X012471Y005711D01*
X012301Y005541D01*
X011975Y005541D01*
X011741Y005307D01*
X011741Y004996D01*
X010567Y003821D01*
X010461Y003716D01*
X010461Y003249D01*
X010393Y003181D01*
X010393Y002058D01*
X010463Y001988D01*
X010819Y001988D01*
X010889Y002058D01*
X010889Y003181D01*
X010821Y003249D01*
X010821Y003567D01*
X011996Y004741D01*
X012341Y004775D02*
X012941Y004775D01*
X012975Y004741D02*
X013307Y004741D01*
X013541Y004975D01*
X013541Y005307D01*
X013307Y005541D01*
X012975Y005541D01*
X012741Y005307D01*
X012741Y004975D01*
X012975Y004741D01*
X012863Y004854D02*
X012419Y004854D01*
X012498Y004932D02*
X012784Y004932D01*
X012741Y005011D02*
X012541Y005011D01*
X012541Y005089D02*
X012741Y005089D01*
X012741Y005168D02*
X012541Y005168D01*
X012541Y005246D02*
X012741Y005246D01*
X012759Y005325D02*
X012565Y005325D01*
X012644Y005404D02*
X012838Y005404D01*
X012916Y005482D02*
X012722Y005482D01*
X012801Y005561D02*
X017691Y005561D01*
X017691Y005639D02*
X012811Y005639D01*
X012811Y005718D02*
X017691Y005718D01*
X017718Y005796D02*
X014390Y005796D01*
X014315Y005721D02*
X014561Y005967D01*
X014561Y006101D01*
X014181Y006101D01*
X014181Y005721D01*
X014315Y005721D01*
X014181Y005796D02*
X014101Y005796D01*
X014101Y005721D02*
X014101Y006101D01*
X014181Y006101D01*
X014181Y006181D01*
X014561Y006181D01*
X014561Y006315D01*
X014315Y006561D01*
X014181Y006561D01*
X014181Y006181D01*
X014101Y006181D01*
X014101Y006101D01*
X013721Y006101D01*
X013721Y005967D01*
X013967Y005721D01*
X014101Y005721D01*
X014101Y005875D02*
X014181Y005875D01*
X014181Y005953D02*
X014101Y005953D01*
X014101Y006032D02*
X014181Y006032D01*
X014181Y006110D02*
X017417Y006110D01*
X017496Y006032D02*
X014561Y006032D01*
X014547Y005953D02*
X017574Y005953D01*
X017653Y005875D02*
X014469Y005875D01*
X014561Y006189D02*
X017339Y006189D01*
X017260Y006267D02*
X014561Y006267D01*
X014530Y006346D02*
X017182Y006346D01*
X017103Y006425D02*
X014452Y006425D01*
X014373Y006503D02*
X017025Y006503D01*
X016946Y006582D02*
X012822Y006582D01*
X012811Y006503D02*
X012909Y006503D01*
X012831Y006425D02*
X012811Y006425D01*
X013101Y006425D02*
X013181Y006425D01*
X013181Y006503D02*
X013101Y006503D01*
X013181Y006561D02*
X013181Y006181D01*
X013561Y006181D01*
X013561Y006315D01*
X013315Y006561D01*
X013181Y006561D01*
X013373Y006503D02*
X013909Y006503D01*
X013967Y006561D02*
X013721Y006315D01*
X013721Y006181D01*
X014101Y006181D01*
X014101Y006561D01*
X013967Y006561D01*
X014101Y006503D02*
X014181Y006503D01*
X014181Y006425D02*
X014101Y006425D01*
X014101Y006346D02*
X014181Y006346D01*
X014181Y006267D02*
X014101Y006267D01*
X014101Y006189D02*
X014181Y006189D01*
X014101Y006110D02*
X013181Y006110D01*
X013181Y006032D02*
X013101Y006032D01*
X013101Y005953D02*
X013181Y005953D01*
X013181Y005875D02*
X013101Y005875D01*
X013101Y005796D02*
X013181Y005796D01*
X013390Y005796D02*
X013892Y005796D01*
X013813Y005875D02*
X013469Y005875D01*
X013547Y005953D02*
X013735Y005953D01*
X013721Y006032D02*
X013561Y006032D01*
X013561Y006189D02*
X013721Y006189D01*
X013721Y006267D02*
X013561Y006267D01*
X013530Y006346D02*
X013752Y006346D01*
X013831Y006425D02*
X013452Y006425D01*
X013181Y006346D02*
X013101Y006346D01*
X013101Y006267D02*
X013181Y006267D01*
X013181Y006189D02*
X013101Y006189D01*
X012813Y005875D02*
X012811Y005875D01*
X012811Y005796D02*
X012892Y005796D01*
X012471Y005796D02*
X012390Y005796D01*
X012469Y005875D02*
X012471Y005875D01*
X012471Y005718D02*
X011811Y005718D01*
X011811Y005796D02*
X011892Y005796D01*
X011813Y005875D02*
X011811Y005875D01*
X012101Y005875D02*
X012181Y005875D01*
X012181Y005953D02*
X012101Y005953D01*
X012101Y006032D02*
X012181Y006032D01*
X012181Y006181D02*
X012101Y006181D01*
X012101Y006561D01*
X011967Y006561D01*
X011811Y006405D01*
X011811Y006571D01*
X013593Y008352D01*
X013593Y008332D01*
X013638Y008222D01*
X013722Y008138D01*
X013832Y008093D01*
X013852Y008093D01*
X012571Y006811D01*
X012471Y006711D01*
X012471Y006405D01*
X012315Y006561D01*
X012181Y006561D01*
X012181Y006181D01*
X012181Y006189D02*
X012101Y006189D01*
X012101Y006267D02*
X012181Y006267D01*
X012181Y006346D02*
X012101Y006346D01*
X012101Y006425D02*
X012181Y006425D01*
X012181Y006503D02*
X012101Y006503D01*
X011909Y006503D02*
X011811Y006503D01*
X011811Y006425D02*
X011831Y006425D01*
X011822Y006582D02*
X012471Y006582D01*
X012471Y006660D02*
X011901Y006660D01*
X011979Y006739D02*
X012498Y006739D01*
X012577Y006817D02*
X012058Y006817D01*
X012136Y006896D02*
X012655Y006896D01*
X012734Y006974D02*
X012215Y006974D01*
X012293Y007053D02*
X012813Y007053D01*
X012891Y007131D02*
X012372Y007131D01*
X012450Y007210D02*
X012970Y007210D01*
X013048Y007289D02*
X012529Y007289D01*
X012607Y007367D02*
X013127Y007367D01*
X013205Y007446D02*
X012686Y007446D01*
X012765Y007524D02*
X013284Y007524D01*
X013362Y007603D02*
X012843Y007603D01*
X012922Y007681D02*
X013441Y007681D01*
X013519Y007760D02*
X013000Y007760D01*
X013079Y007838D02*
X013598Y007838D01*
X013677Y007917D02*
X013157Y007917D01*
X013236Y007995D02*
X013755Y007995D01*
X013834Y008074D02*
X013314Y008074D01*
X013393Y008153D02*
X013708Y008153D01*
X013634Y008231D02*
X013471Y008231D01*
X013550Y008310D02*
X013602Y008310D01*
X014079Y007838D02*
X016461Y007838D01*
X016461Y007760D02*
X014000Y007760D01*
X013922Y007681D02*
X016461Y007681D01*
X016461Y007603D02*
X013843Y007603D01*
X013765Y007524D02*
X016461Y007524D01*
X016461Y007446D02*
X013686Y007446D01*
X013607Y007367D02*
X016461Y007367D01*
X016461Y007289D02*
X013529Y007289D01*
X013450Y007210D02*
X016461Y007210D01*
X016461Y007131D02*
X013372Y007131D01*
X013293Y007053D02*
X016475Y007053D01*
X016553Y006974D02*
X013215Y006974D01*
X013136Y006896D02*
X016632Y006896D01*
X016710Y006817D02*
X013058Y006817D01*
X012979Y006739D02*
X016789Y006739D01*
X016867Y006660D02*
X012901Y006660D01*
X012471Y006503D02*
X012373Y006503D01*
X012452Y006425D02*
X012471Y006425D01*
X012181Y005796D02*
X012101Y005796D01*
X012320Y005561D02*
X011801Y005561D01*
X011811Y005639D02*
X012399Y005639D01*
X011916Y005482D02*
X011722Y005482D01*
X011644Y005404D02*
X011838Y005404D01*
X011759Y005325D02*
X011565Y005325D01*
X011541Y005246D02*
X011741Y005246D01*
X011741Y005168D02*
X011541Y005168D01*
X011541Y005089D02*
X011741Y005089D01*
X011741Y005011D02*
X011541Y005011D01*
X011498Y004932D02*
X011678Y004932D01*
X011599Y004854D02*
X011419Y004854D01*
X011341Y004775D02*
X011521Y004775D01*
X011442Y004697D02*
X010951Y004697D01*
X010873Y004618D02*
X011364Y004618D01*
X011285Y004540D02*
X010794Y004540D01*
X010715Y004461D02*
X011206Y004461D01*
X011128Y004382D02*
X010637Y004382D01*
X010558Y004304D02*
X011049Y004304D01*
X010971Y004225D02*
X010480Y004225D01*
X010401Y004147D02*
X010892Y004147D01*
X010814Y004068D02*
X010323Y004068D01*
X010244Y003990D02*
X010735Y003990D01*
X010657Y003911D02*
X010269Y003911D01*
X010372Y003833D02*
X010578Y003833D01*
X010500Y003754D02*
X010417Y003754D01*
X010439Y003676D02*
X010461Y003676D01*
X010461Y003597D02*
X010439Y003597D01*
X010461Y003518D02*
X010413Y003518D01*
X010461Y003440D02*
X010362Y003440D01*
X010321Y003361D02*
X010461Y003361D01*
X010461Y003283D02*
X010321Y003283D01*
X010366Y003204D02*
X010417Y003204D01*
X010393Y003126D02*
X010389Y003126D01*
X010389Y003047D02*
X010393Y003047D01*
X010389Y002969D02*
X010393Y002969D01*
X010389Y002890D02*
X010393Y002890D01*
X010389Y002812D02*
X010393Y002812D01*
X010389Y002733D02*
X010393Y002733D01*
X010389Y002654D02*
X010393Y002654D01*
X010389Y002576D02*
X010393Y002576D01*
X010389Y002497D02*
X010393Y002497D01*
X010389Y002419D02*
X010393Y002419D01*
X010389Y002340D02*
X010393Y002340D01*
X010389Y002262D02*
X010393Y002262D01*
X010389Y002183D02*
X010393Y002183D01*
X010389Y002105D02*
X010393Y002105D01*
X010425Y002026D02*
X010357Y002026D01*
X010319Y001795D02*
X009963Y001795D01*
X009899Y001730D01*
X009881Y001761D01*
X009855Y001787D01*
X009823Y001805D01*
X009787Y001815D01*
X009665Y001815D01*
X009665Y001187D01*
X009617Y001187D01*
X009617Y001815D01*
X009495Y001815D01*
X009459Y001805D01*
X009427Y001787D01*
X009401Y001761D01*
X009391Y001743D01*
X009381Y001761D01*
X009355Y001787D01*
X009323Y001805D01*
X009287Y001815D01*
X009165Y001815D01*
X009165Y001187D01*
X009373Y001187D01*
X009617Y001187D01*
X009617Y001139D01*
X009373Y001139D01*
X009165Y001139D01*
X009165Y000511D01*
X009287Y000511D01*
X009323Y000520D01*
X009355Y000539D01*
X009381Y000565D01*
X009391Y000582D01*
X009401Y000565D01*
X009427Y000539D01*
X009459Y000520D01*
X009495Y000511D01*
X009617Y000511D01*
X009617Y001139D01*
X009665Y001139D01*
X009665Y000511D01*
X009787Y000511D01*
X009823Y000520D01*
X009855Y000539D01*
X009881Y000565D01*
X009899Y000596D01*
X009963Y000531D01*
X010319Y000531D01*
X010383Y000596D01*
X010401Y000565D01*
X010427Y000539D01*
X010459Y000520D01*
X010495Y000511D01*
X010617Y000511D01*
X010617Y001139D01*
X010665Y001139D01*
X010665Y001187D01*
X010617Y001187D01*
X010617Y001815D01*
X010495Y001815D01*
X010459Y001805D01*
X010427Y001787D01*
X010401Y001761D01*
X010383Y001730D01*
X010319Y001795D01*
X010323Y001791D02*
X010434Y001791D01*
X010617Y001791D02*
X010665Y001791D01*
X010665Y001815D02*
X010665Y001187D01*
X010909Y001187D01*
X010909Y001693D01*
X010899Y001729D01*
X010881Y001761D01*
X010855Y001787D01*
X010823Y001805D01*
X010787Y001815D01*
X010665Y001815D01*
X010665Y001712D02*
X010617Y001712D01*
X010617Y001633D02*
X010665Y001633D01*
X010665Y001555D02*
X010617Y001555D01*
X010617Y001476D02*
X010665Y001476D01*
X010665Y001398D02*
X010617Y001398D01*
X010617Y001319D02*
X010665Y001319D01*
X010665Y001241D02*
X010617Y001241D01*
X010665Y001162D02*
X015846Y001162D01*
X015899Y001084D02*
X010909Y001084D01*
X010909Y001139D02*
X010665Y001139D01*
X010665Y000511D01*
X010787Y000511D01*
X010823Y000520D01*
X010855Y000539D01*
X010881Y000565D01*
X010899Y000597D01*
X010909Y000632D01*
X010909Y001139D01*
X010909Y001241D02*
X015792Y001241D01*
X015739Y001319D02*
X010909Y001319D01*
X010909Y001398D02*
X015685Y001398D01*
X015664Y001430D02*
X015664Y001430D01*
X015649Y001476D02*
X010909Y001476D01*
X010909Y001555D02*
X015625Y001555D01*
X015601Y001633D02*
X010909Y001633D01*
X010904Y001712D02*
X015576Y001712D01*
X015552Y001791D02*
X010848Y001791D01*
X010857Y002026D02*
X015519Y002026D01*
X015519Y001948D02*
X006978Y001948D01*
X006978Y002026D02*
X008425Y002026D01*
X008393Y002105D02*
X006978Y002105D01*
X006978Y002183D02*
X008393Y002183D01*
X008393Y002262D02*
X006938Y002262D01*
X006821Y002340D02*
X008393Y002340D01*
X008393Y002419D02*
X006821Y002419D01*
X006915Y002497D02*
X008393Y002497D01*
X008393Y002576D02*
X006978Y002576D01*
X007159Y002654D02*
X008393Y002654D01*
X008393Y002733D02*
X007238Y002733D01*
X007316Y002812D02*
X008393Y002812D01*
X008393Y002890D02*
X007395Y002890D01*
X007473Y002969D02*
X008393Y002969D01*
X008393Y003047D02*
X007552Y003047D01*
X007630Y003126D02*
X008393Y003126D01*
X008417Y003204D02*
X007709Y003204D01*
X007787Y003283D02*
X008461Y003283D01*
X008461Y003361D02*
X007821Y003361D01*
X007821Y003440D02*
X008461Y003440D01*
X008461Y003518D02*
X007821Y003518D01*
X007821Y003597D02*
X008431Y003597D01*
X008352Y003676D02*
X007821Y003676D01*
X007821Y003754D02*
X008274Y003754D01*
X008195Y003833D02*
X007821Y003833D01*
X007821Y003911D02*
X008116Y003911D01*
X008038Y003990D02*
X007821Y003990D01*
X007821Y004068D02*
X007961Y004068D01*
X007961Y004147D02*
X007821Y004147D01*
X007821Y004225D02*
X007961Y004225D01*
X007961Y004304D02*
X007821Y004304D01*
X007821Y004382D02*
X007961Y004382D01*
X007961Y004461D02*
X007821Y004461D01*
X007821Y004540D02*
X007961Y004540D01*
X007961Y004618D02*
X007821Y004618D01*
X007821Y004697D02*
X007961Y004697D01*
X007941Y004775D02*
X007821Y004775D01*
X007821Y004854D02*
X007863Y004854D01*
X007461Y004854D02*
X007419Y004854D01*
X007461Y004896D02*
X007461Y003466D01*
X006982Y002986D01*
X006978Y002986D01*
X006978Y003053D01*
X006907Y003123D01*
X006375Y003123D01*
X006305Y003053D01*
X006305Y002571D01*
X005958Y002571D01*
X005958Y003073D01*
X005898Y003132D01*
X005924Y003147D01*
X005950Y003173D01*
X005968Y003205D01*
X005978Y003241D01*
X005978Y003436D01*
X005681Y003436D01*
X005681Y003516D01*
X005601Y003516D01*
X005601Y003832D01*
X005426Y003832D01*
X005390Y003823D01*
X005358Y003804D01*
X005332Y003778D01*
X005321Y003759D01*
X005321Y004755D01*
X005541Y004975D01*
X005541Y005307D01*
X005321Y005527D01*
X005321Y005755D01*
X005541Y005975D01*
X005541Y006301D01*
X006461Y007221D01*
X009231Y007221D01*
X008571Y006561D01*
X008471Y006461D01*
X008471Y006405D01*
X008315Y006561D01*
X008181Y006561D01*
X008181Y006181D01*
X008101Y006181D01*
X008101Y006561D01*
X008066Y006561D01*
X008097Y006593D01*
X008200Y006593D01*
X008310Y006638D01*
X008394Y006722D01*
X008439Y006832D01*
X008439Y006950D01*
X008394Y007060D01*
X008310Y007144D01*
X008200Y007189D01*
X008082Y007189D01*
X007972Y007144D01*
X007888Y007060D01*
X007843Y006950D01*
X007843Y006847D01*
X007461Y006466D01*
X007461Y006415D01*
X007315Y006561D01*
X007181Y006561D01*
X007181Y006181D01*
X007101Y006181D01*
X007101Y006101D01*
X007181Y006101D01*
X007181Y005721D01*
X007315Y005721D01*
X007461Y005867D01*
X007461Y005387D01*
X007307Y005541D01*
X006975Y005541D01*
X006741Y005307D01*
X006741Y004975D01*
X006975Y004741D01*
X007307Y004741D01*
X007461Y004896D01*
X007461Y004775D02*
X007341Y004775D01*
X007461Y004697D02*
X005321Y004697D01*
X005321Y004618D02*
X007461Y004618D01*
X007461Y004540D02*
X005321Y004540D01*
X005321Y004461D02*
X007461Y004461D01*
X007461Y004382D02*
X005321Y004382D01*
X005321Y004304D02*
X007461Y004304D01*
X007461Y004225D02*
X005321Y004225D01*
X005321Y004147D02*
X007461Y004147D01*
X007461Y004068D02*
X005321Y004068D01*
X005321Y003990D02*
X007461Y003990D01*
X007461Y003911D02*
X005321Y003911D01*
X005321Y003833D02*
X007461Y003833D01*
X007461Y003754D02*
X006972Y003754D01*
X006970Y003759D02*
X006944Y003785D01*
X006912Y003803D01*
X006876Y003813D01*
X006681Y003813D01*
X006681Y003516D01*
X006601Y003516D01*
X006601Y003813D01*
X006406Y003813D01*
X006371Y003803D01*
X006339Y003785D01*
X006313Y003759D01*
X006294Y003727D01*
X006285Y003691D01*
X006285Y003516D01*
X006601Y003516D01*
X006601Y003436D01*
X006285Y003436D01*
X006285Y003260D01*
X006294Y003225D01*
X006313Y003193D01*
X006339Y003167D01*
X006371Y003148D01*
X006406Y003139D01*
X006601Y003139D01*
X006601Y003436D01*
X006681Y003436D01*
X006681Y003516D01*
X006998Y003516D01*
X006998Y003691D01*
X006988Y003727D01*
X006970Y003759D01*
X006998Y003676D02*
X007461Y003676D01*
X007461Y003597D02*
X006998Y003597D01*
X006998Y003518D02*
X007461Y003518D01*
X007435Y003440D02*
X006681Y003440D01*
X006681Y003436D02*
X006998Y003436D01*
X006998Y003260D01*
X006988Y003225D01*
X006970Y003193D01*
X006944Y003167D01*
X006912Y003148D01*
X006876Y003139D01*
X006681Y003139D01*
X006681Y003436D01*
X006681Y003361D02*
X006601Y003361D01*
X006601Y003283D02*
X006681Y003283D01*
X006681Y003204D02*
X006601Y003204D01*
X006601Y003440D02*
X005681Y003440D01*
X005681Y003516D02*
X005978Y003516D01*
X005978Y003711D01*
X005968Y003746D01*
X005950Y003778D01*
X005924Y003804D01*
X005892Y003823D01*
X005856Y003832D01*
X005681Y003832D01*
X005681Y003516D01*
X005681Y003518D02*
X005601Y003518D01*
X005601Y003597D02*
X005681Y003597D01*
X005681Y003676D02*
X005601Y003676D01*
X005601Y003754D02*
X005681Y003754D01*
X005964Y003754D02*
X006310Y003754D01*
X006285Y003676D02*
X005978Y003676D01*
X005978Y003597D02*
X006285Y003597D01*
X006285Y003518D02*
X005978Y003518D01*
X005978Y003361D02*
X006285Y003361D01*
X006285Y003283D02*
X005978Y003283D01*
X005968Y003204D02*
X006306Y003204D01*
X006305Y003047D02*
X005958Y003047D01*
X005958Y002969D02*
X006305Y002969D01*
X006305Y002890D02*
X005958Y002890D01*
X005958Y002812D02*
X006305Y002812D01*
X006305Y002733D02*
X005958Y002733D01*
X005958Y002654D02*
X006305Y002654D01*
X006305Y002576D02*
X005958Y002576D01*
X005641Y002262D02*
X005321Y002262D01*
X005321Y002340D02*
X005562Y002340D01*
X005484Y002419D02*
X005321Y002419D01*
X005321Y002497D02*
X005367Y002497D01*
X005324Y002576D02*
X005321Y002576D01*
X005321Y002654D02*
X005324Y002654D01*
X005321Y002733D02*
X005324Y002733D01*
X005321Y002812D02*
X005324Y002812D01*
X005321Y002890D02*
X005324Y002890D01*
X005321Y002969D02*
X005324Y002969D01*
X005321Y003047D02*
X005324Y003047D01*
X005321Y003126D02*
X005377Y003126D01*
X004961Y003126D02*
X003440Y003126D01*
X003496Y003065D02*
X003496Y003065D01*
X003505Y003047D02*
X004961Y003047D01*
X004961Y002969D02*
X003542Y002969D01*
X003580Y002890D02*
X004961Y002890D01*
X004961Y002812D02*
X003618Y002812D01*
X003656Y002733D02*
X004961Y002733D01*
X004961Y002654D02*
X003694Y002654D01*
X003716Y002576D02*
X004961Y002576D01*
X004961Y002497D02*
X003727Y002497D01*
X003739Y002419D02*
X004961Y002419D01*
X004961Y002340D02*
X003751Y002340D01*
X003763Y002262D02*
X004961Y002262D01*
X004961Y002183D02*
X003775Y002183D01*
X003776Y002105D02*
X004961Y002105D01*
X004961Y002026D02*
X003764Y002026D01*
X003752Y001948D02*
X004961Y001948D01*
X004961Y001869D02*
X003740Y001869D01*
X003728Y001791D02*
X004961Y001791D01*
X004961Y001712D02*
X003716Y001712D01*
X003708Y001658D02*
X003708Y001658D01*
X003696Y001633D02*
X004961Y001633D01*
X004973Y001555D02*
X003659Y001555D01*
X003621Y001476D02*
X005051Y001476D01*
X005130Y001398D02*
X003583Y001398D01*
X003545Y001319D02*
X005208Y001319D01*
X005287Y001241D02*
X003507Y001241D01*
X003445Y001162D02*
X005365Y001162D01*
X005482Y001555D02*
X006306Y001555D01*
X006322Y001712D02*
X005325Y001712D01*
X005321Y001791D02*
X006305Y001791D01*
X006305Y001869D02*
X005321Y001869D01*
X005321Y001948D02*
X006305Y001948D01*
X006305Y002026D02*
X005321Y002026D01*
X005321Y002105D02*
X006305Y002105D01*
X006305Y002183D02*
X005321Y002183D01*
X005403Y001633D02*
X008393Y001633D01*
X008393Y001555D02*
X006976Y001555D01*
X006960Y001712D02*
X008393Y001712D01*
X008459Y001791D02*
X006978Y001791D01*
X006978Y001869D02*
X015528Y001869D01*
X015519Y002105D02*
X010889Y002105D01*
X010889Y002183D02*
X015519Y002183D01*
X015519Y002262D02*
X010889Y002262D01*
X010889Y002340D02*
X015519Y002340D01*
X015530Y002419D02*
X010889Y002419D01*
X010889Y002497D02*
X015554Y002497D01*
X015578Y002576D02*
X010889Y002576D01*
X010889Y002654D02*
X015602Y002654D01*
X015627Y002733D02*
X010889Y002733D01*
X010889Y002812D02*
X015651Y002812D01*
X015689Y002890D02*
X010889Y002890D01*
X010889Y002969D02*
X015743Y002969D01*
X015796Y003047D02*
X010889Y003047D01*
X010889Y003126D02*
X015850Y003126D01*
X015903Y003204D02*
X010866Y003204D01*
X010821Y003283D02*
X015972Y003283D01*
X016070Y003361D02*
X010821Y003361D01*
X010821Y003440D02*
X016169Y003440D01*
X016267Y003518D02*
X010821Y003518D01*
X010852Y003597D02*
X016412Y003597D01*
X016321Y003561D02*
X016321Y003561D01*
X016612Y003676D02*
X010930Y003676D01*
X010206Y004461D02*
X009321Y004461D01*
X009321Y004382D02*
X010128Y004382D01*
X010049Y004304D02*
X009321Y004304D01*
X009321Y004225D02*
X009971Y004225D01*
X009892Y004147D02*
X009321Y004147D01*
X009321Y004068D02*
X009814Y004068D01*
X009735Y003990D02*
X009321Y003990D01*
X009321Y003911D02*
X009657Y003911D01*
X009578Y003833D02*
X009321Y003833D01*
X009321Y003754D02*
X009500Y003754D01*
X009461Y003676D02*
X009321Y003676D01*
X009321Y003597D02*
X009461Y003597D01*
X009461Y003518D02*
X009321Y003518D01*
X009321Y003440D02*
X009461Y003440D01*
X009461Y003361D02*
X009321Y003361D01*
X009321Y003283D02*
X009461Y003283D01*
X009417Y003204D02*
X009366Y003204D01*
X009389Y003126D02*
X009393Y003126D01*
X009389Y003047D02*
X009393Y003047D01*
X009389Y002969D02*
X009393Y002969D01*
X009389Y002890D02*
X009393Y002890D01*
X009389Y002812D02*
X009393Y002812D01*
X009389Y002733D02*
X009393Y002733D01*
X009389Y002654D02*
X009393Y002654D01*
X009389Y002576D02*
X009393Y002576D01*
X009389Y002497D02*
X009393Y002497D01*
X009389Y002419D02*
X009393Y002419D01*
X009389Y002340D02*
X009393Y002340D01*
X009389Y002262D02*
X009393Y002262D01*
X009389Y002183D02*
X009393Y002183D01*
X009389Y002105D02*
X009393Y002105D01*
X009425Y002026D02*
X009357Y002026D01*
X009348Y001791D02*
X009434Y001791D01*
X009617Y001791D02*
X009665Y001791D01*
X009665Y001712D02*
X009617Y001712D01*
X009617Y001633D02*
X009665Y001633D01*
X009665Y001555D02*
X009617Y001555D01*
X009617Y001476D02*
X009665Y001476D01*
X009665Y001398D02*
X009617Y001398D01*
X009617Y001319D02*
X009665Y001319D01*
X009665Y001241D02*
X009617Y001241D01*
X009617Y001162D02*
X009165Y001162D01*
X009165Y001084D02*
X009117Y001084D01*
X009117Y001005D02*
X009165Y001005D01*
X009165Y000927D02*
X009117Y000927D01*
X009117Y000848D02*
X009165Y000848D01*
X009165Y000769D02*
X009117Y000769D01*
X009117Y000691D02*
X009165Y000691D01*
X009165Y000612D02*
X009117Y000612D01*
X009117Y000534D02*
X009165Y000534D01*
X009346Y000534D02*
X009436Y000534D01*
X009617Y000534D02*
X009665Y000534D01*
X009665Y000612D02*
X009617Y000612D01*
X009617Y000691D02*
X009665Y000691D01*
X009665Y000769D02*
X009617Y000769D01*
X009617Y000848D02*
X009665Y000848D01*
X009665Y000927D02*
X009617Y000927D01*
X009617Y001005D02*
X009665Y001005D01*
X009665Y001084D02*
X009617Y001084D01*
X009165Y001241D02*
X009117Y001241D01*
X009117Y001319D02*
X009165Y001319D01*
X009165Y001398D02*
X009117Y001398D01*
X009117Y001476D02*
X009165Y001476D01*
X009165Y001555D02*
X009117Y001555D01*
X009117Y001633D02*
X009165Y001633D01*
X009165Y001712D02*
X009117Y001712D01*
X009117Y001791D02*
X009165Y001791D01*
X008934Y001791D02*
X008823Y001791D01*
X008857Y002026D02*
X008925Y002026D01*
X008893Y002105D02*
X008889Y002105D01*
X008889Y002183D02*
X008893Y002183D01*
X008889Y002262D02*
X008893Y002262D01*
X008889Y002340D02*
X008893Y002340D01*
X008889Y002419D02*
X008893Y002419D01*
X008889Y002497D02*
X008893Y002497D01*
X008889Y002576D02*
X008893Y002576D01*
X008889Y002654D02*
X008893Y002654D01*
X008889Y002733D02*
X008893Y002733D01*
X008889Y002812D02*
X008893Y002812D01*
X008889Y002890D02*
X008893Y002890D01*
X008889Y002969D02*
X008893Y002969D01*
X008889Y003047D02*
X008893Y003047D01*
X008889Y003126D02*
X008893Y003126D01*
X008917Y003204D02*
X008866Y003204D01*
X008821Y003283D02*
X008961Y003283D01*
X008961Y003361D02*
X008821Y003361D01*
X008821Y003440D02*
X008961Y003440D01*
X008961Y003518D02*
X008821Y003518D01*
X008821Y003597D02*
X008961Y003597D01*
X008961Y003676D02*
X008821Y003676D01*
X008783Y003754D02*
X008961Y003754D01*
X008961Y003833D02*
X008704Y003833D01*
X008626Y003911D02*
X008961Y003911D01*
X008961Y003990D02*
X008547Y003990D01*
X008468Y004068D02*
X008961Y004068D01*
X008961Y004147D02*
X008390Y004147D01*
X008321Y004225D02*
X008961Y004225D01*
X008961Y004304D02*
X008321Y004304D01*
X008321Y004382D02*
X008961Y004382D01*
X008961Y004461D02*
X008321Y004461D01*
X008321Y004540D02*
X008961Y004540D01*
X008961Y004618D02*
X008321Y004618D01*
X008321Y004697D02*
X008961Y004697D01*
X008941Y004775D02*
X008341Y004775D01*
X008419Y004854D02*
X008863Y004854D01*
X008784Y004932D02*
X008498Y004932D01*
X008541Y005011D02*
X008741Y005011D01*
X008741Y005089D02*
X008541Y005089D01*
X008541Y005168D02*
X008741Y005168D01*
X008741Y005246D02*
X008541Y005246D01*
X008565Y005325D02*
X008759Y005325D01*
X008838Y005404D02*
X008644Y005404D01*
X008722Y005482D02*
X008916Y005482D01*
X008801Y005561D02*
X009320Y005561D01*
X009399Y005639D02*
X008811Y005639D01*
X008811Y005718D02*
X009477Y005718D01*
X009556Y005796D02*
X009390Y005796D01*
X009469Y005875D02*
X009813Y005875D01*
X009735Y005953D02*
X009547Y005953D01*
X009561Y006032D02*
X009721Y006032D01*
X009721Y006181D02*
X010101Y006181D01*
X010101Y006561D01*
X009967Y006561D01*
X009721Y006315D01*
X009721Y006181D01*
X009721Y006189D02*
X009561Y006189D01*
X009561Y006181D02*
X009561Y006315D01*
X009315Y006561D01*
X009181Y006561D01*
X009181Y006181D01*
X009561Y006181D01*
X009561Y006267D02*
X009721Y006267D01*
X009752Y006346D02*
X009530Y006346D01*
X009452Y006425D02*
X009831Y006425D01*
X009909Y006503D02*
X009373Y006503D01*
X009181Y006503D02*
X009101Y006503D01*
X009101Y006425D02*
X009181Y006425D01*
X009181Y006346D02*
X009101Y006346D01*
X009101Y006267D02*
X009181Y006267D01*
X009181Y006189D02*
X009101Y006189D01*
X009181Y006110D02*
X010101Y006110D01*
X010101Y006189D02*
X010181Y006189D01*
X010181Y006267D02*
X010101Y006267D01*
X010101Y006346D02*
X010181Y006346D01*
X010181Y006425D02*
X010101Y006425D01*
X010101Y006503D02*
X010181Y006503D01*
X010373Y006503D02*
X010513Y006503D01*
X010471Y006425D02*
X010452Y006425D01*
X010591Y006582D02*
X009072Y006582D01*
X009151Y006660D02*
X010670Y006660D01*
X010748Y006739D02*
X009229Y006739D01*
X009308Y006817D02*
X010827Y006817D01*
X010905Y006896D02*
X009386Y006896D01*
X009141Y007131D02*
X008323Y007131D01*
X008397Y007053D02*
X009063Y007053D01*
X008984Y006974D02*
X008430Y006974D01*
X008439Y006896D02*
X008905Y006896D01*
X008827Y006817D02*
X008434Y006817D01*
X008401Y006739D02*
X008748Y006739D01*
X008670Y006660D02*
X008332Y006660D01*
X008373Y006503D02*
X008513Y006503D01*
X008471Y006425D02*
X008452Y006425D01*
X008591Y006582D02*
X008086Y006582D01*
X008101Y006503D02*
X008181Y006503D01*
X008181Y006425D02*
X008101Y006425D01*
X008101Y006346D02*
X008181Y006346D01*
X008181Y006267D02*
X008101Y006267D01*
X008101Y006189D02*
X008181Y006189D01*
X008181Y006101D02*
X008181Y005721D01*
X008315Y005721D01*
X008471Y005877D01*
X008471Y005711D01*
X008301Y005541D01*
X007975Y005541D01*
X007821Y005387D01*
X007821Y005867D01*
X007967Y005721D01*
X008101Y005721D01*
X008101Y006101D01*
X008181Y006101D01*
X008181Y006032D02*
X008101Y006032D01*
X008101Y005953D02*
X008181Y005953D01*
X008181Y005875D02*
X008101Y005875D01*
X008101Y005796D02*
X008181Y005796D01*
X008390Y005796D02*
X008471Y005796D01*
X008471Y005718D02*
X007821Y005718D01*
X007821Y005796D02*
X007892Y005796D01*
X007821Y005639D02*
X008399Y005639D01*
X008320Y005561D02*
X007821Y005561D01*
X007821Y005482D02*
X007916Y005482D01*
X007838Y005404D02*
X007821Y005404D01*
X007461Y005404D02*
X007444Y005404D01*
X007461Y005482D02*
X007366Y005482D01*
X007461Y005561D02*
X005321Y005561D01*
X005321Y005639D02*
X007461Y005639D01*
X007461Y005718D02*
X005321Y005718D01*
X005362Y005796D02*
X005892Y005796D01*
X005967Y005721D02*
X006101Y005721D01*
X006101Y006101D01*
X006181Y006101D01*
X006181Y005721D01*
X006315Y005721D01*
X006561Y005967D01*
X006561Y006101D01*
X006181Y006101D01*
X006181Y006181D01*
X006561Y006181D01*
X006561Y006315D01*
X006315Y006561D01*
X006181Y006561D01*
X006181Y006181D01*
X006101Y006181D01*
X006101Y006101D01*
X005721Y006101D01*
X005721Y005967D01*
X005967Y005721D01*
X006101Y005796D02*
X006181Y005796D01*
X006181Y005875D02*
X006101Y005875D01*
X006101Y005953D02*
X006181Y005953D01*
X006181Y006032D02*
X006101Y006032D01*
X006101Y006110D02*
X005541Y006110D01*
X005541Y006032D02*
X005721Y006032D01*
X005735Y005953D02*
X005519Y005953D01*
X005440Y005875D02*
X005813Y005875D01*
X005721Y006181D02*
X006101Y006181D01*
X006101Y006561D01*
X005967Y006561D01*
X005721Y006315D01*
X005721Y006181D01*
X005721Y006189D02*
X005541Y006189D01*
X005541Y006267D02*
X005721Y006267D01*
X005752Y006346D02*
X005586Y006346D01*
X005665Y006425D02*
X005831Y006425D01*
X005909Y006503D02*
X005744Y006503D01*
X005822Y006582D02*
X007577Y006582D01*
X007656Y006660D02*
X005901Y006660D01*
X005979Y006739D02*
X007734Y006739D01*
X007813Y006817D02*
X006058Y006817D01*
X006136Y006896D02*
X007843Y006896D01*
X007853Y006974D02*
X006215Y006974D01*
X006293Y007053D02*
X007885Y007053D01*
X007959Y007131D02*
X006372Y007131D01*
X006450Y007210D02*
X009220Y007210D01*
X009446Y008352D02*
X010293Y008352D01*
X010363Y008422D01*
X010363Y008955D01*
X010293Y009025D01*
X009446Y009025D01*
X009375Y008955D01*
X009375Y008422D01*
X009446Y008352D01*
X009409Y008388D02*
X008873Y008388D01*
X008907Y008467D02*
X009375Y008467D01*
X009375Y008545D02*
X009021Y008545D01*
X009100Y008624D02*
X009375Y008624D01*
X009375Y008702D02*
X009179Y008702D01*
X009257Y008781D02*
X009375Y008781D01*
X009375Y008859D02*
X009301Y008859D01*
X009301Y008938D02*
X009375Y008938D01*
X009437Y009016D02*
X009301Y009016D01*
X009301Y009095D02*
X010449Y009095D01*
X010429Y009016D02*
X010301Y009016D01*
X010363Y008938D02*
X010429Y008938D01*
X010429Y008859D02*
X010363Y008859D01*
X010363Y008781D02*
X010726Y008781D01*
X010726Y008766D02*
X010429Y008766D01*
X010429Y008571D01*
X010439Y008536D01*
X010457Y008504D01*
X010483Y008478D01*
X010515Y008459D01*
X010551Y008450D01*
X010726Y008450D01*
X010726Y008766D01*
X010726Y008702D02*
X010806Y008702D01*
X010806Y008624D02*
X010726Y008624D01*
X010726Y008545D02*
X010806Y008545D01*
X010806Y008467D02*
X010726Y008467D01*
X010503Y008467D02*
X010363Y008467D01*
X010363Y008545D02*
X010436Y008545D01*
X010429Y008624D02*
X010363Y008624D01*
X010363Y008702D02*
X010429Y008702D01*
X010329Y008388D02*
X011648Y008388D01*
X011726Y008467D02*
X011029Y008467D01*
X011096Y008545D02*
X011805Y008545D01*
X011883Y008624D02*
X011103Y008624D01*
X011103Y008702D02*
X011962Y008702D01*
X012040Y008781D02*
X010806Y008781D01*
X011103Y008859D02*
X012119Y008859D01*
X012198Y008938D02*
X011103Y008938D01*
X011103Y009016D02*
X012276Y009016D01*
X012355Y009095D02*
X011083Y009095D01*
X011047Y009174D02*
X012433Y009174D01*
X012471Y009252D02*
X011083Y009252D01*
X011083Y009331D02*
X012471Y009331D01*
X012471Y009409D02*
X011083Y009409D01*
X011083Y009488D02*
X012471Y009488D01*
X012471Y009566D02*
X011083Y009566D01*
X011083Y009645D02*
X012471Y009645D01*
X012471Y009723D02*
X011083Y009723D01*
X011023Y009802D02*
X012471Y009802D01*
X012471Y009880D02*
X010343Y009880D01*
X010363Y009802D02*
X010509Y009802D01*
X010648Y009594D02*
X010766Y009476D01*
X010648Y009594D02*
X009869Y009594D01*
X009438Y009594D01*
X009043Y009990D01*
X009043Y010369D01*
X008846Y010369D02*
X008846Y009936D01*
X009141Y009641D01*
X009141Y008891D01*
X008938Y008688D01*
X008413Y008688D01*
X007634Y008688D01*
X007516Y008806D01*
X007199Y008781D02*
X001946Y008781D01*
X002024Y008859D02*
X007199Y008859D01*
X007199Y008938D02*
X002066Y008938D01*
X001810Y008702D02*
X007199Y008702D01*
X007199Y008624D02*
X001726Y008624D01*
X001756Y008619D02*
X001681Y008631D01*
X001681Y008181D01*
X002131Y008181D01*
X002119Y008256D01*
X002095Y008329D01*
X002060Y008398D01*
X002015Y008460D01*
X001960Y008515D01*
X001898Y008560D01*
X001829Y008595D01*
X001756Y008619D01*
X001681Y008624D02*
X001601Y008624D01*
X001601Y008631D02*
X001526Y008619D01*
X001453Y008595D01*
X001384Y008560D01*
X001322Y008515D01*
X001267Y008460D01*
X001222Y008398D01*
X001187Y008329D01*
X001163Y008256D01*
X001151Y008181D01*
X001601Y008181D01*
X001601Y008101D01*
X001681Y008101D01*
X001681Y007651D01*
X001756Y007663D01*
X001829Y007687D01*
X001898Y007722D01*
X001960Y007767D01*
X002015Y007822D01*
X002060Y007884D01*
X002095Y007953D01*
X002119Y008026D01*
X002131Y008101D01*
X001681Y008101D01*
X001681Y008181D01*
X001601Y008181D01*
X001601Y008631D01*
X001556Y008624D02*
X000281Y008624D01*
X000281Y008702D02*
X001472Y008702D01*
X001337Y008781D02*
X000281Y008781D01*
X000281Y008859D02*
X001258Y008859D01*
X001216Y008938D02*
X000281Y008938D01*
X000281Y009016D02*
X001184Y009016D01*
X001171Y009095D02*
X000281Y009095D01*
X000281Y009174D02*
X001171Y009174D01*
X001178Y009252D02*
X000281Y009252D01*
X000281Y009331D02*
X001211Y009331D01*
X001245Y009409D02*
X000281Y009409D01*
X000281Y009488D02*
X001323Y009488D01*
X001440Y009566D02*
X000281Y009566D01*
X000281Y009645D02*
X003057Y009645D01*
X003057Y009680D02*
X003057Y009602D01*
X003135Y009602D01*
X003135Y009680D01*
X003393Y009680D01*
X003393Y009817D01*
X003384Y009853D01*
X003365Y009885D01*
X003339Y009911D01*
X003307Y009929D01*
X003272Y009939D01*
X003135Y009939D01*
X003135Y009680D01*
X003057Y009680D01*
X003057Y009939D01*
X002920Y009939D01*
X002884Y009929D01*
X002852Y009911D01*
X002826Y009885D01*
X002808Y009853D01*
X002798Y009817D01*
X002798Y009680D01*
X003057Y009680D01*
X003057Y009723D02*
X003135Y009723D01*
X003135Y009645D02*
X003409Y009645D01*
X003393Y009602D02*
X003135Y009602D01*
X003135Y009344D01*
X003272Y009344D01*
X003307Y009353D01*
X003339Y009372D01*
X003365Y009398D01*
X003384Y009430D01*
X003393Y009465D01*
X003393Y009602D01*
X003393Y009566D02*
X003409Y009566D01*
X003409Y009488D02*
X003393Y009488D01*
X003409Y009434D02*
X003479Y009364D01*
X003894Y009364D01*
X003964Y009434D01*
X003964Y009481D01*
X003990Y009481D01*
X003990Y009375D01*
X004060Y009305D01*
X004553Y009305D01*
X004623Y009375D01*
X004623Y009907D01*
X004553Y009978D01*
X004060Y009978D01*
X003990Y009907D01*
X003990Y009801D01*
X003964Y009801D01*
X003964Y009848D01*
X003894Y009919D01*
X003479Y009919D01*
X003409Y009848D01*
X003409Y009434D01*
X003434Y009409D02*
X003372Y009409D01*
X003135Y009409D02*
X003057Y009409D01*
X003057Y009344D02*
X003057Y009602D01*
X002798Y009602D01*
X002798Y009465D01*
X002808Y009430D01*
X002826Y009398D01*
X002852Y009372D01*
X002884Y009353D01*
X002920Y009344D01*
X003057Y009344D01*
X003057Y009488D02*
X003135Y009488D01*
X003135Y009566D02*
X003057Y009566D01*
X003057Y009802D02*
X003135Y009802D01*
X003135Y009880D02*
X003057Y009880D01*
X002824Y009880D02*
X002042Y009880D01*
X002074Y009959D02*
X004041Y009959D01*
X003990Y009880D02*
X003932Y009880D01*
X003964Y009802D02*
X003990Y009802D01*
X003686Y009641D02*
X004306Y009641D01*
X004623Y009645D02*
X004659Y009645D01*
X004659Y009723D02*
X004623Y009723D01*
X004623Y009802D02*
X004659Y009802D01*
X004659Y009880D02*
X004623Y009880D01*
X004572Y009959D02*
X004711Y009959D01*
X004553Y010305D02*
X004623Y010375D01*
X004623Y010907D01*
X004553Y010978D01*
X004060Y010978D01*
X003990Y010907D01*
X003990Y010801D01*
X003964Y010801D01*
X003964Y010848D01*
X003894Y010919D01*
X003479Y010919D01*
X003409Y010848D01*
X003409Y010434D01*
X003479Y010364D01*
X003894Y010364D01*
X003964Y010434D01*
X003964Y010481D01*
X003990Y010481D01*
X003990Y010375D01*
X004060Y010305D01*
X004553Y010305D01*
X004600Y010352D02*
X004682Y010352D01*
X004659Y010430D02*
X004623Y010430D01*
X004623Y010509D02*
X004659Y010509D01*
X004659Y010587D02*
X004623Y010587D01*
X004623Y010666D02*
X004659Y010666D01*
X004659Y010744D02*
X004623Y010744D01*
X004623Y010823D02*
X004659Y010823D01*
X004659Y010902D02*
X004623Y010902D01*
X004306Y010641D02*
X003686Y010641D01*
X003964Y010823D02*
X003990Y010823D01*
X003990Y010902D02*
X003911Y010902D01*
X004060Y011305D02*
X004553Y011305D01*
X004623Y011375D01*
X004623Y011907D01*
X004553Y011978D01*
X004060Y011978D01*
X003990Y011907D01*
X003990Y011801D01*
X003964Y011801D01*
X003964Y011848D01*
X003894Y011919D01*
X003479Y011919D01*
X003409Y011848D01*
X003409Y011434D01*
X003479Y011364D01*
X003894Y011364D01*
X003964Y011434D01*
X003964Y011481D01*
X003990Y011481D01*
X003990Y011375D01*
X004060Y011305D01*
X003992Y011373D02*
X003903Y011373D01*
X003964Y011451D02*
X003990Y011451D01*
X003686Y011641D02*
X004306Y011641D01*
X004623Y011608D02*
X004659Y011608D01*
X004659Y011530D02*
X004623Y011530D01*
X004623Y011451D02*
X004659Y011451D01*
X004661Y011373D02*
X004621Y011373D01*
X004623Y011687D02*
X004659Y011687D01*
X004659Y011766D02*
X004623Y011766D01*
X004623Y011844D02*
X004659Y011844D01*
X004674Y011923D02*
X004608Y011923D01*
X004553Y012305D02*
X004060Y012305D01*
X003990Y012375D01*
X003990Y012481D01*
X003964Y012481D01*
X003964Y012434D01*
X003894Y012364D01*
X003479Y012364D01*
X003409Y012434D01*
X003409Y012848D01*
X003479Y012919D01*
X003894Y012919D01*
X003964Y012848D01*
X003964Y012801D01*
X003990Y012801D01*
X003990Y012907D01*
X004060Y012978D01*
X004553Y012978D01*
X004623Y012907D01*
X004623Y012375D01*
X004553Y012305D01*
X004564Y012315D02*
X004718Y012315D01*
X004659Y012394D02*
X004623Y012394D01*
X004623Y012472D02*
X004659Y012472D01*
X004659Y012551D02*
X004623Y012551D01*
X004623Y012629D02*
X004659Y012629D01*
X004659Y012708D02*
X004623Y012708D01*
X004623Y012787D02*
X004659Y012787D01*
X004659Y012865D02*
X004623Y012865D01*
X004587Y012944D02*
X004695Y012944D01*
X004976Y012641D02*
X005391Y012226D01*
X005391Y012141D01*
X005093Y012158D02*
X002551Y012158D01*
X002551Y012080D02*
X005094Y012080D01*
X005126Y012001D02*
X002551Y012001D01*
X002551Y011923D02*
X002873Y011923D01*
X002884Y011929D02*
X002852Y011911D01*
X002826Y011885D01*
X002808Y011853D01*
X002798Y011817D01*
X002798Y011680D01*
X003057Y011680D01*
X003057Y011939D01*
X002920Y011939D01*
X002884Y011929D01*
X002806Y011844D02*
X002551Y011844D01*
X002492Y011766D02*
X002798Y011766D01*
X002798Y011687D02*
X002413Y011687D01*
X002335Y011608D02*
X003057Y011608D01*
X003057Y011602D02*
X002798Y011602D01*
X002798Y011465D01*
X002808Y011430D01*
X002826Y011398D01*
X002852Y011372D01*
X002884Y011353D01*
X002920Y011344D01*
X003057Y011344D01*
X003057Y011602D01*
X003135Y011602D01*
X003135Y011680D01*
X003393Y011680D01*
X003393Y011817D01*
X003384Y011853D01*
X003365Y011885D01*
X003339Y011911D01*
X003307Y011929D01*
X003272Y011939D01*
X003135Y011939D01*
X003135Y011680D01*
X003057Y011680D01*
X003057Y011602D01*
X003057Y011530D02*
X003135Y011530D01*
X003135Y011602D02*
X003135Y011344D01*
X003272Y011344D01*
X003307Y011353D01*
X003339Y011372D01*
X003365Y011398D01*
X003384Y011430D01*
X003393Y011465D01*
X003393Y011602D01*
X003135Y011602D01*
X003135Y011608D02*
X003409Y011608D01*
X003409Y011530D02*
X003393Y011530D01*
X003390Y011451D02*
X003409Y011451D01*
X003470Y011373D02*
X003340Y011373D01*
X003135Y011373D02*
X003057Y011373D01*
X003057Y011451D02*
X003135Y011451D01*
X003135Y011687D02*
X003057Y011687D01*
X003057Y011766D02*
X003135Y011766D01*
X003135Y011844D02*
X003057Y011844D01*
X003057Y011923D02*
X003135Y011923D01*
X003318Y011923D02*
X004005Y011923D01*
X003990Y011844D02*
X003964Y011844D01*
X004049Y012315D02*
X002551Y012315D01*
X002551Y012237D02*
X005108Y012237D01*
X005371Y012472D02*
X005450Y012472D01*
X005450Y012551D02*
X005293Y012551D01*
X005293Y012629D02*
X005766Y012629D01*
X005766Y012601D02*
X005846Y012601D01*
X005846Y012304D01*
X006041Y012304D01*
X006077Y012314D01*
X006109Y012332D01*
X006135Y012358D01*
X006150Y012384D01*
X006209Y012324D01*
X006652Y012324D01*
X006638Y012310D01*
X006593Y012200D01*
X006593Y012082D01*
X006636Y011978D01*
X006229Y011978D01*
X006159Y011907D01*
X006159Y011375D01*
X006229Y011305D01*
X006722Y011305D01*
X006793Y011375D01*
X006793Y011481D01*
X006895Y011481D01*
X006989Y011575D01*
X007053Y011639D01*
X007053Y011560D01*
X007062Y011551D01*
X007053Y011541D01*
X007053Y011367D01*
X007042Y011349D01*
X007033Y011313D01*
X007033Y011255D01*
X007033Y011197D01*
X007042Y011162D01*
X007049Y011150D01*
X006799Y010901D01*
X006742Y010958D01*
X006209Y010958D01*
X006150Y010898D01*
X006135Y010924D01*
X006109Y010950D01*
X006077Y010968D01*
X006041Y010978D01*
X005846Y010978D01*
X005846Y010681D01*
X005766Y010681D01*
X005766Y010601D01*
X005450Y010601D01*
X005450Y010439D01*
X005404Y010439D01*
X005293Y010551D01*
X005293Y010859D01*
X005332Y010843D01*
X005450Y010843D01*
X005450Y010681D01*
X005766Y010681D01*
X005766Y010978D01*
X005646Y010978D01*
X005689Y011082D01*
X005689Y011200D01*
X005655Y011285D01*
X005766Y011285D01*
X005766Y011601D01*
X005470Y011601D01*
X005470Y011432D01*
X005450Y011439D01*
X005404Y011439D01*
X005293Y011551D01*
X005293Y011859D01*
X005332Y011843D01*
X005450Y011843D01*
X005470Y011851D01*
X005470Y011681D01*
X005766Y011681D01*
X005766Y011601D01*
X005846Y011601D01*
X005846Y011285D01*
X006022Y011285D01*
X006057Y011294D01*
X006089Y011313D01*
X006115Y011339D01*
X006134Y011371D01*
X006143Y011406D01*
X006143Y011601D01*
X005847Y011601D01*
X005847Y011681D01*
X006143Y011681D01*
X006143Y011876D01*
X006134Y011912D01*
X006115Y011944D01*
X006089Y011970D01*
X006057Y011988D01*
X006022Y011998D01*
X005846Y011998D01*
X005846Y011681D01*
X005766Y011681D01*
X005766Y011998D01*
X005655Y011998D01*
X005689Y012082D01*
X005689Y012200D01*
X005646Y012304D01*
X005766Y012304D01*
X005766Y012601D01*
X005766Y012551D02*
X005846Y012551D01*
X005846Y012472D02*
X005766Y012472D01*
X005766Y012394D02*
X005846Y012394D01*
X005846Y012315D02*
X005766Y012315D01*
X005674Y012237D02*
X006608Y012237D01*
X006593Y012158D02*
X005689Y012158D01*
X005689Y012080D02*
X006594Y012080D01*
X006626Y012001D02*
X005656Y012001D01*
X005766Y011923D02*
X005846Y011923D01*
X005846Y011844D02*
X005766Y011844D01*
X005766Y011766D02*
X005846Y011766D01*
X005846Y011687D02*
X005766Y011687D01*
X005766Y011608D02*
X005293Y011608D01*
X005293Y011687D02*
X005470Y011687D01*
X005470Y011766D02*
X005293Y011766D01*
X005293Y011844D02*
X005328Y011844D01*
X005454Y011844D02*
X005470Y011844D01*
X005470Y011530D02*
X005313Y011530D01*
X005392Y011451D02*
X005470Y011451D01*
X005391Y011226D02*
X004976Y011641D01*
X005096Y011294D02*
X002086Y011294D01*
X002099Y011373D02*
X002851Y011373D01*
X002802Y011451D02*
X002178Y011451D01*
X002256Y011530D02*
X002798Y011530D01*
X002391Y011891D02*
X001641Y011141D01*
X001171Y011137D02*
X001051Y011137D01*
X001051Y011059D02*
X001171Y011059D01*
X001199Y010980D02*
X001051Y010980D01*
X001107Y010902D02*
X001232Y010902D01*
X001185Y010823D02*
X001294Y010823D01*
X001264Y010744D02*
X001373Y010744D01*
X001343Y010666D02*
X003057Y010666D01*
X003057Y010680D02*
X003057Y010602D01*
X003135Y010602D01*
X003135Y010680D01*
X003393Y010680D01*
X003393Y010817D01*
X003384Y010853D01*
X003365Y010885D01*
X003339Y010911D01*
X003307Y010929D01*
X003272Y010939D01*
X003135Y010939D01*
X003135Y010680D01*
X003057Y010680D01*
X003057Y010939D01*
X002920Y010939D01*
X002884Y010929D01*
X002852Y010911D01*
X002826Y010885D01*
X002808Y010853D01*
X002798Y010817D01*
X002798Y010680D01*
X003057Y010680D01*
X003057Y010744D02*
X003135Y010744D01*
X003135Y010666D02*
X003409Y010666D01*
X003393Y010602D02*
X003135Y010602D01*
X003135Y010344D01*
X003272Y010344D01*
X003307Y010353D01*
X003339Y010372D01*
X003365Y010398D01*
X003384Y010430D01*
X003413Y010430D01*
X003384Y010430D02*
X003393Y010465D01*
X003393Y010602D01*
X003393Y010587D02*
X003409Y010587D01*
X003409Y010509D02*
X003393Y010509D01*
X003302Y010352D02*
X004013Y010352D01*
X003990Y010430D02*
X003960Y010430D01*
X003409Y010744D02*
X003393Y010744D01*
X003392Y010823D02*
X003409Y010823D01*
X003462Y010902D02*
X003348Y010902D01*
X003135Y010902D02*
X003057Y010902D01*
X003057Y010823D02*
X003135Y010823D01*
X003057Y010602D02*
X002798Y010602D01*
X002798Y010465D01*
X002808Y010430D01*
X002017Y010430D01*
X002063Y010352D02*
X002890Y010352D01*
X002884Y010353D02*
X002920Y010344D01*
X003057Y010344D01*
X003057Y010602D01*
X003057Y010587D02*
X003135Y010587D01*
X003135Y010509D02*
X003057Y010509D01*
X003057Y010430D02*
X003135Y010430D01*
X003135Y010352D02*
X003057Y010352D01*
X002884Y010353D02*
X002852Y010372D01*
X002826Y010398D01*
X002808Y010430D01*
X002798Y010509D02*
X001938Y010509D01*
X001792Y010587D02*
X002798Y010587D01*
X002798Y010744D02*
X001909Y010744D01*
X001988Y010823D02*
X002800Y010823D01*
X002843Y010902D02*
X002051Y010902D01*
X002083Y010980D02*
X005135Y010980D01*
X005102Y011059D02*
X002111Y011059D01*
X002111Y011137D02*
X005093Y011137D01*
X005099Y011216D02*
X002111Y011216D01*
X001882Y011608D02*
X001741Y011608D01*
X001735Y011671D02*
X001907Y011743D01*
X002040Y011875D01*
X002111Y012048D01*
X002111Y012235D01*
X002040Y012407D01*
X001907Y012540D01*
X001735Y012611D01*
X001548Y012611D01*
X001375Y012540D01*
X001243Y012407D01*
X001171Y012235D01*
X001171Y012048D01*
X001243Y011875D01*
X001375Y011743D01*
X001548Y011671D01*
X001735Y011671D01*
X001773Y011687D02*
X001961Y011687D01*
X001930Y011766D02*
X002039Y011766D01*
X002009Y011844D02*
X002118Y011844D01*
X002059Y011923D02*
X002196Y011923D01*
X002231Y012001D02*
X002092Y012001D01*
X002111Y012080D02*
X002231Y012080D01*
X002231Y012158D02*
X002111Y012158D01*
X002110Y012237D02*
X002231Y012237D01*
X002231Y012315D02*
X002078Y012315D01*
X002045Y012394D02*
X002231Y012394D01*
X002231Y012472D02*
X001974Y012472D01*
X001880Y012551D02*
X002231Y012551D01*
X002231Y012629D02*
X001051Y012629D01*
X001051Y012551D02*
X001402Y012551D01*
X001308Y012472D02*
X001051Y012472D01*
X001051Y012394D02*
X001237Y012394D01*
X001205Y012315D02*
X001051Y012315D01*
X001051Y012237D02*
X001172Y012237D01*
X001171Y012158D02*
X001051Y012158D01*
X001051Y012080D02*
X001171Y012080D01*
X001190Y012001D02*
X001051Y012001D01*
X001051Y011923D02*
X001223Y011923D01*
X001273Y011844D02*
X001051Y011844D01*
X001051Y011766D02*
X001352Y011766D01*
X001509Y011687D02*
X001051Y011687D01*
X001051Y011608D02*
X001541Y011608D01*
X001365Y011530D02*
X001051Y011530D01*
X001051Y011451D02*
X001287Y011451D01*
X001228Y011373D02*
X001051Y011373D01*
X001051Y011294D02*
X001196Y011294D01*
X001171Y011216D02*
X001051Y011216D01*
X000731Y011216D02*
X000281Y011216D01*
X000281Y011294D02*
X000731Y011294D01*
X000731Y011373D02*
X000281Y011373D01*
X000281Y011451D02*
X000731Y011451D01*
X000731Y011530D02*
X000281Y011530D01*
X000281Y011608D02*
X000731Y011608D01*
X000731Y011687D02*
X000281Y011687D01*
X000281Y011766D02*
X000731Y011766D01*
X000731Y011844D02*
X000281Y011844D01*
X000281Y011923D02*
X000731Y011923D01*
X000731Y012001D02*
X000281Y012001D01*
X000281Y012080D02*
X000731Y012080D01*
X000731Y012158D02*
X000281Y012158D01*
X000281Y012237D02*
X000731Y012237D01*
X000731Y012315D02*
X000281Y012315D01*
X000281Y012394D02*
X000731Y012394D01*
X000731Y012472D02*
X000281Y012472D01*
X000281Y012551D02*
X000731Y012551D01*
X000731Y012629D02*
X000281Y012629D01*
X000281Y012708D02*
X000731Y012708D01*
X000731Y012787D02*
X000281Y012787D01*
X000281Y012865D02*
X000731Y012865D01*
X000731Y012944D02*
X000281Y012944D01*
X000281Y013022D02*
X000796Y013022D01*
X000874Y013101D02*
X000281Y013101D01*
X000281Y013179D02*
X000953Y013179D01*
X001032Y013258D02*
X000281Y013258D01*
X000281Y013336D02*
X001110Y013336D01*
X001189Y013415D02*
X000281Y013415D01*
X000281Y013493D02*
X001267Y013493D01*
X001346Y013572D02*
X000281Y013572D01*
X000281Y013651D02*
X001424Y013651D01*
X001503Y013729D02*
X000281Y013729D01*
X000281Y013808D02*
X003309Y013808D01*
X003212Y013886D02*
X000281Y013886D01*
X000281Y013965D02*
X003200Y013965D01*
X003200Y014043D02*
X000281Y014043D01*
X000281Y014122D02*
X003516Y014122D01*
X003516Y014181D02*
X003200Y014181D01*
X003200Y014356D01*
X003209Y014392D01*
X003228Y014424D01*
X003254Y014450D01*
X003286Y014468D01*
X003321Y014478D01*
X003516Y014478D01*
X003516Y014181D01*
X003516Y014200D02*
X003596Y014200D01*
X003596Y014279D02*
X003516Y014279D01*
X003516Y014357D02*
X003596Y014357D01*
X003596Y014436D02*
X003516Y014436D01*
X003240Y014436D02*
X000281Y014436D01*
X000281Y014515D02*
X004136Y014515D01*
X004136Y014593D02*
X000281Y014593D01*
X000281Y014672D02*
X004136Y014672D01*
X004055Y014750D02*
X000281Y014750D01*
X000281Y014829D02*
X004049Y014829D01*
X004049Y014907D02*
X000281Y014907D01*
X000281Y014986D02*
X004049Y014986D01*
X004099Y015064D02*
X000281Y015064D01*
X000281Y015143D02*
X004698Y015143D01*
X004698Y015221D02*
X004537Y015221D01*
X004514Y015198D02*
X004584Y015269D01*
X004584Y015525D01*
X004514Y015596D01*
X004119Y015596D01*
X004049Y015525D01*
X004049Y015269D01*
X004119Y015198D01*
X004514Y015198D01*
X004584Y015300D02*
X004698Y015300D01*
X004698Y015379D02*
X004584Y015379D01*
X004584Y015457D02*
X004698Y015457D01*
X004708Y015536D02*
X004574Y015536D01*
X004533Y015064D02*
X004698Y015064D01*
X004698Y014986D02*
X004584Y014986D01*
X004584Y014907D02*
X004698Y014907D01*
X004698Y014829D02*
X004584Y014829D01*
X004577Y014750D02*
X004705Y014750D01*
X004496Y014672D02*
X005304Y014672D01*
X005304Y014593D02*
X004496Y014593D01*
X004496Y014515D02*
X005326Y014515D01*
X005601Y014515D02*
X005681Y014515D01*
X005681Y014593D02*
X005601Y014593D01*
X005601Y014672D02*
X005681Y014672D01*
X005681Y014750D02*
X005601Y014750D01*
X005681Y014829D02*
X006324Y014829D01*
X006324Y014907D02*
X005978Y014907D01*
X005978Y014986D02*
X006324Y014986D01*
X006324Y015064D02*
X005972Y015064D01*
X005910Y015143D02*
X006366Y015143D01*
X006309Y015221D02*
X005958Y015221D01*
X005958Y015300D02*
X006304Y015300D01*
X006304Y015379D02*
X006287Y015379D01*
X005995Y015379D02*
X005958Y015379D01*
X006141Y015641D02*
X006141Y017391D01*
X005891Y017641D01*
X004106Y017641D01*
X003690Y017735D02*
X003655Y017735D01*
X003690Y017813D02*
X003617Y017813D01*
X003579Y017892D02*
X003690Y017892D01*
X003690Y017970D02*
X003542Y017970D01*
X003504Y018049D02*
X003753Y018049D01*
X003438Y018128D02*
X008115Y018128D01*
X008124Y018098D02*
X008155Y018037D01*
X008196Y017981D01*
X008244Y017933D01*
X008300Y017892D01*
X008361Y017861D01*
X008427Y017840D01*
X008489Y017830D01*
X008489Y018226D01*
X008569Y018226D01*
X008569Y018306D01*
X008965Y018306D01*
X008955Y018368D01*
X008934Y018434D01*
X008902Y018495D01*
X008862Y018551D01*
X008813Y018599D01*
X008758Y018640D01*
X008697Y018671D01*
X008631Y018692D01*
X008569Y018702D01*
X008569Y018306D01*
X008489Y018306D01*
X008489Y018702D01*
X008427Y018692D01*
X008361Y018671D01*
X008300Y018640D01*
X008244Y018599D01*
X002860Y018599D01*
X002740Y018668D02*
X002740Y018668D01*
X002698Y018677D02*
X008381Y018677D01*
X008489Y018677D02*
X008569Y018677D01*
X008569Y018599D02*
X008489Y018599D01*
X008489Y018520D02*
X008569Y018520D01*
X008569Y018442D02*
X008489Y018442D01*
X008489Y018363D02*
X008569Y018363D01*
X008569Y018285D02*
X009147Y018285D01*
X009147Y018363D02*
X008956Y018363D01*
X008930Y018442D02*
X009147Y018442D01*
X009147Y018520D02*
X008884Y018520D01*
X008814Y018599D02*
X009147Y018599D01*
X009147Y018677D02*
X008677Y018677D01*
X008489Y018306D02*
X008489Y018226D01*
X008093Y018226D01*
X008103Y018164D01*
X008124Y018098D01*
X008149Y018049D02*
X007529Y018049D01*
X007592Y017970D02*
X008207Y017970D01*
X008301Y017892D02*
X007592Y017892D01*
X007592Y017813D02*
X009176Y017813D01*
X009147Y017842D02*
X009217Y017772D01*
X010065Y017772D01*
X010135Y017842D01*
X010135Y018690D01*
X010065Y018760D01*
X009217Y018760D01*
X009147Y018690D01*
X009147Y017842D01*
X009147Y017892D02*
X008757Y017892D01*
X008758Y017892D02*
X008813Y017933D01*
X008862Y017981D01*
X008902Y018037D01*
X008934Y018098D01*
X008955Y018164D01*
X008965Y018226D01*
X008569Y018226D01*
X008569Y017830D01*
X008631Y017840D01*
X008697Y017861D01*
X008758Y017892D01*
X008851Y017970D02*
X009147Y017970D01*
X009147Y018049D02*
X008909Y018049D01*
X008943Y018128D02*
X009147Y018128D01*
X009147Y018206D02*
X008962Y018206D01*
X008569Y018206D02*
X008489Y018206D01*
X008489Y018128D02*
X008569Y018128D01*
X008569Y018049D02*
X008489Y018049D01*
X008489Y017970D02*
X008569Y017970D01*
X008569Y017892D02*
X008489Y017892D01*
X008713Y017630D02*
X008643Y017560D01*
X008605Y017469D01*
X008605Y017370D01*
X008643Y017279D01*
X008713Y017209D01*
X008804Y017171D01*
X008903Y017171D01*
X008911Y017175D01*
X008911Y017115D01*
X009129Y017115D01*
X009129Y017697D01*
X009032Y017697D01*
X008996Y017688D01*
X008965Y017669D01*
X008945Y017650D01*
X008903Y017668D01*
X008804Y017668D01*
X008713Y017630D01*
X008776Y017656D02*
X007592Y017656D01*
X007592Y017578D02*
X008661Y017578D01*
X008618Y017499D02*
X007592Y017499D01*
X007592Y017421D02*
X008605Y017421D01*
X008617Y017342D02*
X007592Y017342D01*
X007559Y017264D02*
X008659Y017264D01*
X008771Y017185D02*
X007301Y017185D01*
X007301Y017106D02*
X008911Y017106D01*
X008911Y017114D02*
X008911Y016653D01*
X008920Y016618D01*
X008939Y016586D01*
X008965Y016560D01*
X008996Y016541D01*
X009032Y016532D01*
X009129Y016532D01*
X009129Y017114D01*
X009129Y017114D01*
X008911Y017114D01*
X008911Y017028D02*
X007301Y017028D01*
X007301Y016949D02*
X008911Y016949D01*
X008911Y016871D02*
X007301Y016871D01*
X007301Y016792D02*
X008911Y016792D01*
X008911Y016714D02*
X007301Y016714D01*
X007301Y016635D02*
X008915Y016635D01*
X008970Y016557D02*
X007301Y016557D01*
X007301Y016478D02*
X009417Y016478D01*
X009481Y016542D02*
X008732Y015793D01*
X008375Y015793D01*
X008305Y015722D01*
X008305Y015636D01*
X007978Y015636D01*
X007978Y015722D01*
X007907Y015793D01*
X007375Y015793D01*
X007305Y015722D01*
X007305Y015229D01*
X007375Y015159D01*
X007907Y015159D01*
X007978Y015229D01*
X007978Y015316D01*
X008305Y015316D01*
X008305Y015229D01*
X008375Y015159D01*
X008907Y015159D01*
X008978Y015229D01*
X008978Y015586D01*
X009481Y016090D01*
X009481Y015793D01*
X009375Y015793D01*
X009305Y015722D01*
X009305Y015229D01*
X009375Y015159D01*
X009907Y015159D01*
X009978Y015229D01*
X009978Y015722D01*
X009907Y015793D01*
X009801Y015793D01*
X009801Y016075D01*
X009843Y016116D01*
X009843Y016082D01*
X009888Y015972D01*
X009972Y015888D01*
X010024Y015867D01*
X010087Y015804D01*
X010305Y015586D01*
X010305Y015229D01*
X010375Y015159D01*
X010907Y015159D01*
X010978Y015229D01*
X010978Y015722D01*
X010907Y015793D01*
X010550Y015793D01*
X010383Y015961D01*
X010394Y015972D01*
X010439Y016082D01*
X010439Y016200D01*
X010394Y016310D01*
X010313Y016391D01*
X010313Y016583D01*
X010352Y016622D01*
X010352Y017183D01*
X010379Y017171D01*
X010478Y017171D01*
X010569Y017209D01*
X010639Y017279D01*
X010677Y017370D01*
X010677Y017469D01*
X010639Y017560D01*
X010569Y017630D01*
X010478Y017668D01*
X010379Y017668D01*
X010317Y017642D01*
X010281Y017677D01*
X010024Y017677D01*
X009770Y017677D01*
X009513Y017677D01*
X009280Y017677D01*
X009262Y017688D01*
X009226Y017697D01*
X009129Y017697D01*
X009129Y017115D01*
X009129Y017115D01*
X009129Y017114D01*
X009129Y016532D01*
X009226Y016532D01*
X009262Y016541D01*
X009280Y016552D01*
X009481Y016552D01*
X009481Y016542D01*
X009641Y016476D02*
X008641Y015476D01*
X007641Y015476D01*
X007354Y015771D02*
X007301Y015771D01*
X007301Y015693D02*
X007305Y015693D01*
X007301Y015614D02*
X007305Y015614D01*
X007301Y015536D02*
X007305Y015536D01*
X007301Y015457D02*
X007305Y015457D01*
X007301Y015379D02*
X007305Y015379D01*
X007301Y015300D02*
X007305Y015300D01*
X007301Y015221D02*
X007312Y015221D01*
X007301Y015143D02*
X011391Y015143D01*
X011316Y015064D02*
X010966Y015064D01*
X010978Y014986D02*
X011305Y014986D01*
X011296Y015221D02*
X010970Y015221D01*
X010978Y015300D02*
X011285Y015300D01*
X011285Y015379D02*
X010978Y015379D01*
X010978Y015457D02*
X011601Y015457D01*
X011601Y015379D02*
X011681Y015379D01*
X011681Y015300D02*
X011601Y015300D01*
X011601Y015221D02*
X011681Y015221D01*
X011681Y015143D02*
X011601Y015143D01*
X011891Y015143D02*
X011981Y015143D01*
X011981Y015064D02*
X011966Y015064D01*
X011978Y014986D02*
X011981Y014986D01*
X011978Y014907D02*
X011981Y014907D01*
X011978Y014829D02*
X011981Y014829D01*
X011978Y014750D02*
X011981Y014750D01*
X011978Y014672D02*
X011981Y014672D01*
X011978Y014593D02*
X011981Y014593D01*
X011981Y014515D02*
X011932Y014515D01*
X011981Y014436D02*
X010497Y014436D01*
X010280Y014672D02*
X009978Y014672D01*
X009978Y014750D02*
X010305Y014750D01*
X010305Y014829D02*
X009978Y014829D01*
X009978Y014907D02*
X010305Y014907D01*
X010305Y014986D02*
X009978Y014986D01*
X009966Y015064D02*
X010316Y015064D01*
X010312Y015221D02*
X009970Y015221D01*
X009978Y015300D02*
X010305Y015300D01*
X010305Y015379D02*
X009978Y015379D01*
X009978Y015457D02*
X010305Y015457D01*
X010305Y015536D02*
X009978Y015536D01*
X009978Y015614D02*
X010276Y015614D01*
X010198Y015693D02*
X009978Y015693D01*
X009929Y015771D02*
X010119Y015771D01*
X010041Y015850D02*
X009801Y015850D01*
X009801Y015928D02*
X009932Y015928D01*
X009874Y016007D02*
X009801Y016007D01*
X009812Y016085D02*
X009843Y016085D01*
X010141Y016141D02*
X010153Y016129D01*
X010153Y015964D01*
X010641Y015476D01*
X010978Y015536D02*
X011285Y015536D01*
X011285Y015614D02*
X010978Y015614D01*
X010978Y015693D02*
X011285Y015693D01*
X011325Y015771D02*
X010929Y015771D01*
X010493Y015850D02*
X011981Y015850D01*
X011981Y015928D02*
X010415Y015928D01*
X010408Y016007D02*
X011981Y016007D01*
X011981Y016085D02*
X010439Y016085D01*
X010439Y016164D02*
X011981Y016164D01*
X012016Y016242D02*
X010422Y016242D01*
X010383Y016321D02*
X012095Y016321D01*
X012173Y016400D02*
X010313Y016400D01*
X010313Y016478D02*
X012252Y016478D01*
X012330Y016557D02*
X010313Y016557D01*
X010352Y016635D02*
X012409Y016635D01*
X012487Y016714D02*
X010352Y016714D01*
X010352Y016792D02*
X012566Y016792D01*
X012645Y016871D02*
X010352Y016871D01*
X010352Y016949D02*
X012723Y016949D01*
X012802Y017028D02*
X010352Y017028D01*
X010352Y017106D02*
X012880Y017106D01*
X012959Y017185D02*
X010511Y017185D01*
X010623Y017264D02*
X011696Y017264D01*
X011698Y017260D02*
X011724Y017234D01*
X011756Y017215D01*
X011792Y017206D01*
X012066Y017206D01*
X012066Y017601D01*
X012146Y017601D01*
X012146Y017681D01*
X012541Y017681D01*
X012541Y017955D01*
X012531Y017990D01*
X012513Y018022D01*
X012487Y018048D01*
X012455Y018067D01*
X012419Y018076D01*
X012146Y018076D01*
X012146Y017681D01*
X012066Y017681D01*
X012066Y018076D01*
X011792Y018076D01*
X011756Y018067D01*
X011724Y018048D01*
X011698Y018022D01*
X011680Y017990D01*
X011670Y017955D01*
X011670Y017681D01*
X012066Y017681D01*
X012066Y017601D01*
X011670Y017601D01*
X011670Y017327D01*
X011680Y017292D01*
X011698Y017260D01*
X011670Y017342D02*
X010665Y017342D01*
X010677Y017421D02*
X011670Y017421D01*
X011670Y017499D02*
X010664Y017499D01*
X010621Y017578D02*
X011670Y017578D01*
X011670Y017735D02*
X007592Y017735D01*
X007177Y017641D02*
X007141Y017606D01*
X007141Y014829D01*
X007119Y014806D01*
X006641Y014806D01*
X006821Y014436D02*
X006981Y014436D01*
X006981Y014515D02*
X006932Y014515D01*
X006958Y014593D02*
X006981Y014593D01*
X006981Y014357D02*
X006821Y014357D01*
X006783Y014279D02*
X006981Y014279D01*
X006981Y014200D02*
X006705Y014200D01*
X006626Y014122D02*
X006981Y014122D01*
X007002Y014043D02*
X007013Y014043D01*
X007141Y014141D02*
X007141Y014829D01*
X007301Y014829D02*
X007305Y014829D01*
X007301Y014907D02*
X007305Y014907D01*
X007301Y014986D02*
X007305Y014986D01*
X007301Y015064D02*
X007316Y015064D01*
X006981Y015064D02*
X006958Y015064D01*
X006958Y014986D02*
X006981Y014986D01*
X006981Y015143D02*
X006916Y015143D01*
X006973Y015221D02*
X006981Y015221D01*
X006978Y015300D02*
X006981Y015300D01*
X006978Y015379D02*
X006981Y015379D01*
X006981Y015457D02*
X006681Y015457D01*
X006681Y015516D02*
X006978Y015516D01*
X006978Y015711D01*
X006968Y015746D01*
X006950Y015778D01*
X006924Y015804D01*
X006892Y015823D01*
X006856Y015832D01*
X006681Y015832D01*
X006681Y015516D01*
X006681Y015536D02*
X006601Y015536D01*
X006601Y015614D02*
X006681Y015614D01*
X006681Y015693D02*
X006601Y015693D01*
X006601Y015771D02*
X006681Y015771D01*
X006954Y015771D02*
X006981Y015771D01*
X006978Y015693D02*
X006981Y015693D01*
X006978Y015614D02*
X006981Y015614D01*
X006978Y015536D02*
X006981Y015536D01*
X006981Y015850D02*
X006354Y015850D01*
X006301Y015928D02*
X006981Y015928D01*
X006981Y016007D02*
X006301Y016007D01*
X006301Y016085D02*
X006981Y016085D01*
X006981Y016164D02*
X006301Y016164D01*
X006301Y016242D02*
X006981Y016242D01*
X006981Y016321D02*
X006301Y016321D01*
X006301Y016400D02*
X006981Y016400D01*
X006981Y016478D02*
X006301Y016478D01*
X006301Y016557D02*
X006981Y016557D01*
X006981Y016635D02*
X006301Y016635D01*
X006301Y016714D02*
X006981Y016714D01*
X006981Y016792D02*
X006301Y016792D01*
X006301Y016871D02*
X006981Y016871D01*
X006981Y016949D02*
X006301Y016949D01*
X006301Y017028D02*
X006981Y017028D01*
X006981Y017106D02*
X006301Y017106D01*
X006301Y017185D02*
X006981Y017185D01*
X006794Y017264D02*
X006301Y017264D01*
X006301Y017342D02*
X006761Y017342D01*
X006761Y017421D02*
X006301Y017421D01*
X006259Y017499D02*
X006761Y017499D01*
X006761Y017578D02*
X006181Y017578D01*
X006102Y017656D02*
X006761Y017656D01*
X006761Y017735D02*
X006024Y017735D01*
X005885Y017421D02*
X004521Y017421D01*
X004521Y017342D02*
X005964Y017342D01*
X005981Y017264D02*
X004488Y017264D01*
X004521Y017813D02*
X006761Y017813D01*
X006761Y017892D02*
X004521Y017892D01*
X004521Y017970D02*
X006761Y017970D01*
X006824Y018049D02*
X004458Y018049D01*
X003774Y017185D02*
X005981Y017185D01*
X005981Y017106D02*
X003776Y017106D01*
X003781Y017141D02*
X003781Y017141D01*
X003764Y017028D02*
X005981Y017028D01*
X005981Y016949D02*
X003752Y016949D01*
X003740Y016871D02*
X005981Y016871D01*
X005981Y016792D02*
X003728Y016792D01*
X003717Y016714D02*
X005981Y016714D01*
X005981Y016635D02*
X003697Y016635D01*
X003708Y016658D02*
X003708Y016658D01*
X003660Y016557D02*
X005981Y016557D01*
X005981Y016478D02*
X003622Y016478D01*
X003584Y016400D02*
X005110Y016400D01*
X005024Y016321D02*
X003546Y016321D01*
X003508Y016242D02*
X004985Y016242D01*
X004968Y016164D02*
X003447Y016164D01*
X003374Y016085D02*
X004968Y016085D01*
X004999Y016007D02*
X003301Y016007D01*
X003228Y015928D02*
X005057Y015928D01*
X005086Y015850D02*
X003148Y015850D01*
X003164Y015859D02*
X003164Y015859D01*
X003012Y015771D02*
X005086Y015771D01*
X005086Y015693D02*
X002876Y015693D01*
X002740Y015614D02*
X002740Y015614D01*
X002739Y015614D02*
X005086Y015614D01*
X005446Y015850D02*
X005928Y015850D01*
X005981Y015928D02*
X005475Y015928D01*
X005533Y016007D02*
X005981Y016007D01*
X005981Y016085D02*
X005564Y016085D01*
X005564Y016164D02*
X005981Y016164D01*
X005981Y016242D02*
X005547Y016242D01*
X005508Y016321D02*
X005981Y016321D01*
X005981Y016400D02*
X005422Y016400D01*
X004059Y015536D02*
X002395Y015536D01*
X002264Y015506D02*
X002264Y015506D01*
X001864Y015536D02*
X000281Y015536D01*
X000281Y015614D02*
X001593Y015614D01*
X001393Y015693D02*
X000281Y015693D01*
X000281Y015771D02*
X001258Y015771D01*
X001159Y015850D02*
X000281Y015850D01*
X000281Y015928D02*
X001061Y015928D01*
X000962Y016007D02*
X000281Y016007D01*
X000281Y016085D02*
X000898Y016085D01*
X000939Y016026D02*
X000939Y016026D01*
X000845Y016164D02*
X000281Y016164D01*
X000281Y016242D02*
X000791Y016242D01*
X000737Y016321D02*
X000281Y016321D01*
X000281Y016400D02*
X000684Y016400D01*
X000664Y016430D02*
X000664Y016430D01*
X000649Y016478D02*
X000281Y016478D01*
X000281Y016557D02*
X000624Y016557D01*
X000600Y016635D02*
X000281Y016635D01*
X000281Y016714D02*
X000576Y016714D01*
X000552Y016792D02*
X000281Y016792D01*
X000281Y016871D02*
X000527Y016871D01*
X000519Y016949D02*
X000281Y016949D01*
X000281Y017028D02*
X000519Y017028D01*
X000519Y017106D02*
X000281Y017106D01*
X000284Y017185D02*
X000519Y017185D01*
X000519Y017264D02*
X000288Y017264D01*
X000292Y017342D02*
X000519Y017342D01*
X000530Y017421D02*
X000309Y017421D01*
X000327Y017499D02*
X000554Y017499D01*
X000579Y017578D02*
X000345Y017578D01*
X000363Y017656D02*
X000603Y017656D01*
X000627Y017735D02*
X000381Y017735D01*
X000413Y017813D02*
X000651Y017813D01*
X000690Y017892D02*
X000451Y017892D01*
X000489Y017970D02*
X000744Y017970D01*
X000797Y018049D02*
X000527Y018049D01*
X000565Y018128D02*
X000851Y018128D01*
X000904Y018206D02*
X000626Y018206D01*
X000689Y018285D02*
X000974Y018285D01*
X001073Y018363D02*
X000752Y018363D01*
X000814Y018442D02*
X001171Y018442D01*
X001270Y018520D02*
X000906Y018520D01*
X001004Y018599D02*
X001416Y018599D01*
X001321Y018561D02*
X001321Y018561D01*
X001234Y018756D02*
X001988Y018756D01*
X001776Y018740D02*
X001776Y018740D01*
X001617Y018677D02*
X001103Y018677D01*
X001397Y018834D02*
X017885Y018834D01*
X018048Y018756D02*
X017354Y018756D01*
X017312Y018991D02*
X001970Y018991D01*
X001598Y018913D02*
X017684Y018913D01*
X017698Y018677D02*
X018179Y018677D01*
X018278Y018599D02*
X017860Y018599D01*
X017740Y018668D02*
X017740Y018668D01*
X017996Y018520D02*
X018376Y018520D01*
X018468Y018442D02*
X018132Y018442D01*
X018164Y018423D02*
X018164Y018423D01*
X018219Y018363D02*
X018531Y018363D01*
X018593Y018285D02*
X018292Y018285D01*
X018365Y018206D02*
X018656Y018206D01*
X018717Y018128D02*
X018438Y018128D01*
X018496Y018065D02*
X018496Y018065D01*
X018504Y018049D02*
X018755Y018049D01*
X018793Y017970D02*
X018542Y017970D01*
X018579Y017892D02*
X018831Y017892D01*
X018869Y017813D02*
X018617Y017813D01*
X018655Y017735D02*
X018901Y017735D01*
X018919Y017656D02*
X018693Y017656D01*
X018715Y017578D02*
X018937Y017578D01*
X018955Y017499D02*
X018727Y017499D01*
X018739Y017421D02*
X018973Y017421D01*
X018990Y017342D02*
X018751Y017342D01*
X018763Y017264D02*
X018994Y017264D01*
X018999Y017185D02*
X018774Y017185D01*
X018776Y017106D02*
X019001Y017106D01*
X019001Y017028D02*
X018764Y017028D01*
X018752Y016949D02*
X019001Y016949D01*
X019001Y016871D02*
X018740Y016871D01*
X018728Y016792D02*
X019001Y016792D01*
X019001Y016714D02*
X018717Y016714D01*
X018708Y016658D02*
X018708Y016658D01*
X018697Y016635D02*
X019001Y016635D01*
X019001Y016557D02*
X018660Y016557D01*
X018622Y016478D02*
X019001Y016478D01*
X019001Y016400D02*
X018584Y016400D01*
X018546Y016321D02*
X019001Y016321D01*
X019001Y016242D02*
X018508Y016242D01*
X018447Y016164D02*
X019001Y016164D01*
X019001Y016085D02*
X018374Y016085D01*
X018301Y016007D02*
X019001Y016007D01*
X019001Y015928D02*
X018228Y015928D01*
X018164Y015859D02*
X018164Y015859D01*
X018164Y015859D01*
X018148Y015850D02*
X019001Y015850D01*
X019001Y015771D02*
X018012Y015771D01*
X017876Y015693D02*
X019001Y015693D01*
X019001Y015614D02*
X017739Y015614D01*
X017740Y015614D02*
X017740Y015614D01*
X017395Y015536D02*
X019001Y015536D01*
X019001Y015457D02*
X014543Y015457D01*
X014543Y015379D02*
X019001Y015379D01*
X019001Y015300D02*
X014535Y015300D01*
X014425Y015221D02*
X019001Y015221D01*
X019001Y015143D02*
X014369Y015143D01*
X014291Y015064D02*
X019001Y015064D01*
X019001Y014986D02*
X014212Y014986D01*
X014169Y014907D02*
X019001Y014907D01*
X019001Y014829D02*
X014169Y014829D01*
X014169Y014750D02*
X019001Y014750D01*
X019001Y014672D02*
X014169Y014672D01*
X014169Y014593D02*
X019001Y014593D01*
X019001Y014515D02*
X014163Y014515D01*
X014061Y014436D02*
X019001Y014436D01*
X019001Y014357D02*
X014097Y014357D01*
X014157Y014279D02*
X019001Y014279D01*
X019001Y014043D02*
X018346Y014043D01*
X018454Y013965D02*
X019001Y013965D01*
X019001Y013886D02*
X018527Y013886D01*
X018559Y013808D02*
X019001Y013808D01*
X019001Y013729D02*
X018591Y013729D01*
X018591Y013651D02*
X019001Y013651D01*
X019001Y013572D02*
X018591Y013572D01*
X018567Y013493D02*
X019001Y013493D01*
X019001Y013415D02*
X018534Y013415D01*
X018473Y013336D02*
X019001Y013336D01*
X019001Y013258D02*
X018529Y013258D01*
X018607Y013179D02*
X019001Y013179D01*
X019001Y013101D02*
X018686Y013101D01*
X018764Y013022D02*
X019001Y013022D01*
X019001Y012944D02*
X018821Y012944D01*
X018821Y012865D02*
X019001Y012865D01*
X019001Y012787D02*
X018821Y012787D01*
X018821Y012708D02*
X019001Y012708D01*
X019001Y012629D02*
X018821Y012629D01*
X018821Y012551D02*
X019001Y012551D01*
X019001Y012472D02*
X018821Y012472D01*
X018821Y012394D02*
X019001Y012394D01*
X019001Y012315D02*
X018821Y012315D01*
X018821Y012237D02*
X019001Y012237D01*
X019001Y012158D02*
X018821Y012158D01*
X018821Y012080D02*
X019001Y012080D01*
X019001Y012001D02*
X018821Y012001D01*
X018821Y011923D02*
X019001Y011923D01*
X019001Y011844D02*
X018821Y011844D01*
X018821Y011766D02*
X019001Y011766D01*
X019001Y011687D02*
X018821Y011687D01*
X018821Y011608D02*
X019001Y011608D01*
X019001Y011530D02*
X018821Y011530D01*
X018821Y011451D02*
X019001Y011451D01*
X019001Y011373D02*
X018821Y011373D01*
X018821Y011294D02*
X019001Y011294D01*
X019001Y011216D02*
X018821Y011216D01*
X018821Y011137D02*
X019001Y011137D01*
X019001Y011059D02*
X018821Y011059D01*
X018821Y010980D02*
X019001Y010980D01*
X019001Y010902D02*
X018821Y010902D01*
X018821Y010823D02*
X019001Y010823D01*
X019001Y010744D02*
X018821Y010744D01*
X018821Y010666D02*
X019001Y010666D01*
X019001Y010587D02*
X018821Y010587D01*
X018821Y010509D02*
X019001Y010509D01*
X019001Y010430D02*
X018821Y010430D01*
X018821Y010352D02*
X019001Y010352D01*
X019001Y010273D02*
X018821Y010273D01*
X018821Y010195D02*
X019001Y010195D01*
X019001Y010116D02*
X018821Y010116D01*
X018821Y010038D02*
X019001Y010038D01*
X019001Y009959D02*
X018821Y009959D01*
X018821Y009880D02*
X019001Y009880D01*
X019001Y009802D02*
X018821Y009802D01*
X018821Y009723D02*
X019001Y009723D01*
X019001Y009645D02*
X018821Y009645D01*
X018821Y009566D02*
X019001Y009566D01*
X019001Y009488D02*
X018821Y009488D01*
X018821Y009409D02*
X019001Y009409D01*
X019001Y009331D02*
X018821Y009331D01*
X018821Y009252D02*
X019001Y009252D01*
X019001Y009174D02*
X018821Y009174D01*
X018821Y009095D02*
X019001Y009095D01*
X019001Y009016D02*
X018771Y009016D01*
X018692Y008938D02*
X019001Y008938D01*
X019001Y008859D02*
X018614Y008859D01*
X018570Y008781D02*
X019001Y008781D01*
X019001Y008702D02*
X018591Y008702D01*
X018591Y008624D02*
X019001Y008624D01*
X019001Y008545D02*
X018588Y008545D01*
X018556Y008467D02*
X019001Y008467D01*
X019001Y008388D02*
X018523Y008388D01*
X018477Y008310D02*
X019001Y008310D01*
X019001Y008231D02*
X018556Y008231D01*
X018634Y008153D02*
X019001Y008153D01*
X019001Y008074D02*
X018713Y008074D01*
X018791Y007995D02*
X019001Y007995D01*
X019001Y007917D02*
X018821Y007917D01*
X018821Y007838D02*
X019001Y007838D01*
X019001Y007760D02*
X018821Y007760D01*
X018821Y007681D02*
X019001Y007681D01*
X019001Y007603D02*
X018821Y007603D01*
X018821Y007524D02*
X019001Y007524D01*
X019001Y007446D02*
X018821Y007446D01*
X018821Y007367D02*
X019001Y007367D01*
X019001Y007289D02*
X018821Y007289D01*
X018821Y007210D02*
X019001Y007210D01*
X019001Y007131D02*
X018821Y007131D01*
X018807Y007053D02*
X019001Y007053D01*
X019001Y006974D02*
X018729Y006974D01*
X018650Y006896D02*
X019001Y006896D01*
X019001Y006817D02*
X018572Y006817D01*
X018588Y006739D02*
X019001Y006739D01*
X019001Y006660D02*
X018591Y006660D01*
X018591Y006582D02*
X019001Y006582D01*
X019001Y006503D02*
X018571Y006503D01*
X018538Y006425D02*
X019001Y006425D01*
X019001Y006346D02*
X018482Y006346D01*
X018404Y006267D02*
X019001Y006267D01*
X019001Y006189D02*
X017848Y006189D01*
X017878Y006267D02*
X017769Y006267D01*
X017800Y006346D02*
X017691Y006346D01*
X017744Y006425D02*
X017612Y006425D01*
X017534Y006503D02*
X017711Y006503D01*
X017691Y006582D02*
X017455Y006582D01*
X017376Y006660D02*
X017691Y006660D01*
X017694Y006739D02*
X017298Y006739D01*
X017219Y006817D02*
X017727Y006817D01*
X017760Y006896D02*
X017141Y006896D01*
X017062Y006974D02*
X017838Y006974D01*
X017959Y007053D02*
X016984Y007053D01*
X016905Y007131D02*
X018377Y007131D01*
X018456Y007210D02*
X018276Y007210D01*
X018425Y007289D02*
X018461Y007289D01*
X018006Y007210D02*
X016827Y007210D01*
X016821Y007289D02*
X017857Y007289D01*
X017779Y007367D02*
X016821Y007367D01*
X016821Y007446D02*
X017735Y007446D01*
X017503Y007524D02*
X016821Y007524D01*
X016821Y007603D02*
X017425Y007603D01*
X017346Y007681D02*
X016821Y007681D01*
X016821Y007760D02*
X017268Y007760D01*
X017189Y007838D02*
X016821Y007838D01*
X016821Y007917D02*
X017111Y007917D01*
X017032Y007995D02*
X016821Y007995D01*
X016821Y008074D02*
X016961Y008074D01*
X016961Y008153D02*
X016821Y008153D01*
X016827Y008231D02*
X016961Y008231D01*
X016961Y008310D02*
X016946Y008310D01*
X016455Y008231D02*
X014451Y008231D01*
X014451Y008310D02*
X016336Y008310D01*
X016259Y008388D02*
X014451Y008388D01*
X014451Y008467D02*
X016226Y008467D01*
X016194Y008545D02*
X014451Y008545D01*
X014451Y008624D02*
X016168Y008624D01*
X016089Y008702D02*
X014451Y008702D01*
X014451Y008781D02*
X014500Y008781D01*
X014726Y008781D02*
X014806Y008781D01*
X014806Y008859D02*
X014726Y008859D01*
X014726Y008938D02*
X014806Y008938D01*
X014806Y009016D02*
X014726Y009016D01*
X014806Y009095D02*
X015697Y009095D01*
X015775Y009016D02*
X015103Y009016D01*
X015103Y008938D02*
X015854Y008938D01*
X015932Y008859D02*
X015096Y008859D01*
X015032Y008781D02*
X016011Y008781D01*
X016256Y009016D02*
X016380Y009016D01*
X016386Y009023D02*
X016318Y008954D01*
X015314Y009958D01*
X015174Y009958D01*
X015083Y009958D01*
X015083Y010054D01*
X015013Y010125D01*
X014936Y010125D01*
X014936Y010196D01*
X014936Y010323D01*
X014939Y010332D01*
X014939Y010449D01*
X014963Y010472D01*
X014963Y010613D01*
X014963Y010738D01*
X014973Y010748D01*
X014973Y011237D01*
X014902Y011307D01*
X014683Y011307D01*
X014665Y011289D01*
X014646Y011307D01*
X014548Y011307D01*
X014711Y011471D01*
X014889Y011471D01*
X014972Y011388D01*
X015082Y011343D01*
X015200Y011343D01*
X015310Y011388D01*
X015394Y011472D01*
X015439Y011582D01*
X015439Y011700D01*
X015394Y011810D01*
X015310Y011894D01*
X015200Y011939D01*
X015082Y011939D01*
X014972Y011894D01*
X014889Y011811D01*
X014571Y011811D01*
X014471Y011711D01*
X014439Y011680D01*
X014439Y011700D01*
X014394Y011810D01*
X014310Y011894D01*
X014200Y011939D01*
X014180Y011939D01*
X014211Y011971D01*
X015321Y011971D01*
X015721Y011571D01*
X015821Y011471D01*
X016224Y011471D01*
X016260Y011386D01*
X016386Y011260D01*
X016552Y011191D01*
X016731Y011191D01*
X016806Y011222D01*
X017211Y010817D01*
X017211Y009326D01*
X017060Y009477D01*
X017091Y009552D01*
X017091Y009731D01*
X017023Y009896D01*
X016896Y010023D01*
X016731Y010091D01*
X016552Y010091D01*
X016386Y010023D01*
X016260Y009896D01*
X016191Y009731D01*
X016191Y009552D01*
X016260Y009386D01*
X016386Y009260D01*
X016552Y009191D01*
X016731Y009191D01*
X016806Y009222D01*
X016961Y009067D01*
X016961Y008957D01*
X016896Y009023D01*
X016731Y009091D01*
X016552Y009091D01*
X016386Y009023D01*
X016178Y009095D02*
X016933Y009095D01*
X016961Y009016D02*
X016902Y009016D01*
X016854Y009174D02*
X016099Y009174D01*
X016020Y009252D02*
X016404Y009252D01*
X016315Y009331D02*
X015942Y009331D01*
X015863Y009409D02*
X016250Y009409D01*
X016218Y009488D02*
X015785Y009488D01*
X015706Y009566D02*
X016191Y009566D01*
X016191Y009645D02*
X015628Y009645D01*
X015549Y009723D02*
X016191Y009723D01*
X016221Y009802D02*
X015471Y009802D01*
X015392Y009880D02*
X016253Y009880D01*
X016323Y009959D02*
X015083Y009959D01*
X015083Y010038D02*
X016422Y010038D01*
X016461Y010206D02*
X016531Y010183D01*
X016601Y010172D01*
X016601Y010601D01*
X016172Y010601D01*
X016183Y010531D01*
X016206Y010461D01*
X016239Y010395D01*
X016283Y010335D01*
X016335Y010283D01*
X016395Y010239D01*
X016461Y010206D01*
X016494Y010195D02*
X014936Y010195D01*
X014936Y010273D02*
X016348Y010273D01*
X016270Y010352D02*
X014939Y010352D01*
X014939Y010430D02*
X016221Y010430D01*
X016190Y010509D02*
X014963Y010509D01*
X014963Y010587D02*
X016174Y010587D01*
X016172Y010681D02*
X016601Y010681D01*
X016601Y010601D01*
X016681Y010601D01*
X016681Y010172D01*
X016751Y010183D01*
X016821Y010206D01*
X016887Y010239D01*
X016947Y010283D01*
X017000Y010335D01*
X017043Y010395D01*
X017077Y010461D01*
X017099Y010531D01*
X017111Y010601D01*
X016681Y010601D01*
X016681Y010681D01*
X016601Y010681D01*
X016601Y011111D01*
X016531Y011099D01*
X016461Y011077D01*
X016395Y011043D01*
X016335Y011000D01*
X016283Y010947D01*
X016239Y010887D01*
X016206Y010821D01*
X016183Y010751D01*
X016172Y010681D01*
X016182Y010744D02*
X014969Y010744D01*
X014963Y010666D02*
X016601Y010666D01*
X016601Y010744D02*
X016681Y010744D01*
X016681Y010681D02*
X016681Y011111D01*
X016751Y011099D01*
X016821Y011077D01*
X016887Y011043D01*
X016947Y011000D01*
X017000Y010947D01*
X017043Y010887D01*
X017077Y010821D01*
X017099Y010751D01*
X017111Y010681D01*
X016681Y010681D01*
X016681Y010666D02*
X017211Y010666D01*
X017211Y010744D02*
X017101Y010744D01*
X017076Y010823D02*
X017205Y010823D01*
X017126Y010902D02*
X017033Y010902D01*
X017048Y010980D02*
X016967Y010980D01*
X016969Y011059D02*
X016857Y011059D01*
X016890Y011137D02*
X014973Y011137D01*
X014973Y011059D02*
X016425Y011059D01*
X016315Y010980D02*
X014973Y010980D01*
X014973Y010902D02*
X016249Y010902D01*
X016206Y010823D02*
X014973Y010823D01*
X014973Y011216D02*
X016492Y011216D01*
X016352Y011294D02*
X014915Y011294D01*
X015009Y011373D02*
X014613Y011373D01*
X014660Y011294D02*
X014670Y011294D01*
X014692Y011451D02*
X014909Y011451D01*
X015273Y011373D02*
X016273Y011373D01*
X016233Y011451D02*
X015373Y011451D01*
X015418Y011530D02*
X015762Y011530D01*
X015683Y011608D02*
X015439Y011608D01*
X015439Y011687D02*
X015605Y011687D01*
X015526Y011766D02*
X015413Y011766D01*
X015448Y011844D02*
X015360Y011844D01*
X015369Y011923D02*
X015241Y011923D01*
X015536Y012237D02*
X016441Y012237D01*
X016330Y012315D02*
X014287Y012315D01*
X014365Y012394D02*
X016256Y012394D01*
X016224Y012472D02*
X014441Y012472D01*
X014441Y012551D02*
X016191Y012551D01*
X016191Y012629D02*
X014441Y012629D01*
X014441Y012708D02*
X016191Y012708D01*
X016214Y012787D02*
X014441Y012787D01*
X014441Y012865D02*
X016247Y012865D01*
X016307Y012944D02*
X014441Y012944D01*
X014537Y012955D02*
X014537Y013289D01*
X014537Y012955D01*
X014537Y013022D02*
X014537Y013022D01*
X014537Y013101D02*
X014537Y013101D01*
X014537Y013179D02*
X014537Y013179D01*
X014537Y013258D02*
X014537Y013258D01*
X014537Y013289D02*
X014537Y013289D01*
X014537Y013336D02*
X014537Y013336D01*
X014537Y013415D02*
X014537Y013415D01*
X014537Y013493D02*
X014537Y013493D01*
X014537Y013572D02*
X014537Y013572D01*
X014792Y013572D02*
X014793Y013572D01*
X014792Y013493D02*
X014793Y013493D01*
X014792Y013415D02*
X014793Y013415D01*
X014792Y013336D02*
X014793Y013336D01*
X014792Y013258D02*
X014793Y013258D01*
X014792Y013179D02*
X014793Y013179D01*
X014792Y013101D02*
X014793Y013101D01*
X014792Y013022D02*
X014793Y013022D01*
X014972Y013022D02*
X016386Y013022D01*
X016390Y013258D02*
X014993Y013258D01*
X014993Y013336D02*
X016309Y013336D01*
X016248Y013415D02*
X014993Y013415D01*
X014993Y013493D02*
X016215Y013493D01*
X016191Y013572D02*
X014963Y013572D01*
X014993Y013179D02*
X017348Y013179D01*
X017270Y013258D02*
X016892Y013258D01*
X016973Y013336D02*
X017191Y013336D01*
X017113Y013415D02*
X017034Y013415D01*
X016896Y013022D02*
X017505Y013022D01*
X017427Y013101D02*
X014993Y013101D01*
X014281Y013290D02*
X014281Y012536D01*
X013386Y011641D01*
X012636Y011641D01*
X011364Y010369D01*
X010224Y010369D01*
X010383Y010195D02*
X012416Y010195D01*
X012367Y010273D02*
X011494Y010273D01*
X011573Y010352D02*
X012343Y010352D01*
X012343Y010430D02*
X011651Y010430D01*
X011730Y010509D02*
X012367Y010509D01*
X012415Y010587D02*
X011809Y010587D01*
X011887Y010666D02*
X012525Y010666D01*
X012313Y010744D02*
X011966Y010744D01*
X012044Y010823D02*
X012310Y010823D01*
X012310Y010902D02*
X012123Y010902D01*
X012201Y010980D02*
X012310Y010980D01*
X012310Y011059D02*
X012280Y011059D01*
X011803Y011058D02*
X012636Y011891D01*
X013386Y011891D01*
X014025Y012530D01*
X014025Y013290D01*
X013769Y013290D02*
X013769Y012524D01*
X013386Y012141D01*
X011712Y012141D01*
X011220Y011649D01*
X010913Y011649D01*
X010913Y011452D02*
X011452Y011452D01*
X011656Y011656D01*
X011745Y011255D02*
X012146Y011656D01*
X012146Y011840D01*
X011582Y012237D02*
X011230Y012237D01*
X011230Y012315D02*
X011406Y012315D01*
X011390Y012319D02*
X011426Y012310D01*
X011601Y012310D01*
X011601Y012626D01*
X011681Y012626D01*
X011681Y012310D01*
X011856Y012310D01*
X011892Y012319D01*
X011924Y012338D01*
X011950Y012364D01*
X011968Y012396D01*
X011978Y012431D01*
X011978Y012626D01*
X011681Y012626D01*
X011681Y012706D01*
X011978Y012706D01*
X011978Y012901D01*
X011968Y012937D01*
X011950Y012969D01*
X011924Y012995D01*
X011898Y013010D01*
X011958Y013069D01*
X011958Y013602D01*
X011954Y013606D01*
X012360Y013606D01*
X012344Y013597D01*
X012317Y013571D01*
X012299Y013539D01*
X012290Y013503D01*
X012290Y013290D01*
X012489Y013290D01*
X012489Y013290D01*
X012290Y013290D01*
X012290Y013076D01*
X012299Y013041D01*
X012317Y013009D01*
X012344Y012983D01*
X012375Y012964D01*
X012411Y012955D01*
X012489Y012955D01*
X012489Y013289D01*
X012490Y013289D01*
X012490Y012955D01*
X012568Y012955D01*
X012604Y012964D01*
X012631Y012980D01*
X012636Y012975D01*
X012855Y012975D01*
X012860Y012980D01*
X012887Y012964D01*
X012923Y012955D01*
X013001Y012955D01*
X013001Y013289D01*
X013001Y013289D01*
X013001Y012955D01*
X013080Y012955D01*
X013097Y012960D01*
X013097Y012958D01*
X013080Y012950D01*
X012996Y012866D01*
X012950Y012757D01*
X012950Y012747D01*
X012940Y012751D01*
X012822Y012751D01*
X012712Y012705D01*
X012628Y012621D01*
X012583Y012512D01*
X012583Y012393D01*
X012621Y012301D01*
X011779Y012301D01*
X011646Y012301D01*
X011230Y011885D01*
X011230Y011935D01*
X011220Y011944D01*
X011230Y011954D01*
X011230Y012132D01*
X011220Y012141D01*
X011230Y012150D01*
X011230Y012329D01*
X011220Y012338D01*
X011230Y012347D01*
X011230Y012525D01*
X011220Y012535D01*
X011230Y012544D01*
X011230Y012722D01*
X011220Y012732D01*
X011230Y012741D01*
X011230Y012915D01*
X011240Y012934D01*
X011250Y012969D01*
X011250Y013027D01*
X011250Y013064D01*
X011269Y013064D01*
X011324Y013119D01*
X011324Y013069D01*
X011384Y013010D01*
X011358Y012995D01*
X011332Y012969D01*
X011314Y012937D01*
X011304Y012901D01*
X011304Y012706D01*
X011601Y012706D01*
X011601Y012626D01*
X011304Y012626D01*
X011304Y012431D01*
X011314Y012396D01*
X011332Y012364D01*
X011358Y012338D01*
X011390Y012319D01*
X011315Y012394D02*
X011230Y012394D01*
X011230Y012472D02*
X011304Y012472D01*
X011304Y012551D02*
X011230Y012551D01*
X011230Y012629D02*
X011601Y012629D01*
X011601Y012551D02*
X011681Y012551D01*
X011681Y012629D02*
X012636Y012629D01*
X012599Y012551D02*
X011978Y012551D01*
X011978Y012472D02*
X012583Y012472D01*
X012583Y012394D02*
X011967Y012394D01*
X011876Y012315D02*
X012615Y012315D01*
X012881Y012452D02*
X013004Y012330D01*
X013310Y012330D01*
X013555Y012575D01*
X013555Y012820D01*
X013513Y012862D01*
X013513Y013290D01*
X013257Y013290D02*
X013257Y012706D01*
X013249Y012697D01*
X012963Y012787D02*
X011978Y012787D01*
X011978Y012865D02*
X012995Y012865D01*
X013073Y012944D02*
X011965Y012944D01*
X011911Y013022D02*
X012310Y013022D01*
X012290Y013101D02*
X011958Y013101D01*
X011958Y013179D02*
X012290Y013179D01*
X012290Y013258D02*
X011958Y013258D01*
X011958Y013336D02*
X012290Y013336D01*
X012290Y013415D02*
X011958Y013415D01*
X011958Y013493D02*
X012290Y013493D01*
X012319Y013572D02*
X011958Y013572D01*
X011704Y013766D02*
X012641Y013766D01*
X012745Y013662D01*
X012745Y013290D01*
X013001Y013290D02*
X013001Y013625D01*
X013001Y013290D01*
X013001Y013290D01*
X013001Y013258D02*
X013001Y013258D01*
X013001Y013336D02*
X013001Y013336D01*
X013001Y013415D02*
X013001Y013415D01*
X013001Y013493D02*
X013001Y013493D01*
X013001Y013572D02*
X013001Y013572D01*
X012916Y013651D02*
X016191Y013651D01*
X016191Y013729D02*
X012939Y013729D01*
X012939Y013808D02*
X016223Y013808D01*
X016256Y013886D02*
X014055Y013886D01*
X014137Y013965D02*
X016328Y013965D01*
X016436Y014043D02*
X014174Y014043D01*
X013727Y013886D02*
X013555Y013886D01*
X013637Y013965D02*
X013645Y013965D01*
X013391Y014141D02*
X013391Y014891D01*
X013641Y015141D01*
X014141Y015141D01*
X014265Y015265D01*
X014265Y015535D01*
X013988Y015536D02*
X013795Y015536D01*
X013795Y015614D02*
X013988Y015614D01*
X013988Y015693D02*
X013795Y015693D01*
X013785Y015771D02*
X013997Y015771D01*
X013988Y015457D02*
X013795Y015457D01*
X013795Y015379D02*
X013988Y015379D01*
X013495Y015221D02*
X012970Y015221D01*
X012978Y015300D02*
X013248Y015300D01*
X013417Y015143D02*
X012301Y015143D01*
X012301Y015221D02*
X012312Y015221D01*
X012301Y015300D02*
X012305Y015300D01*
X012301Y015379D02*
X012305Y015379D01*
X012301Y015457D02*
X012305Y015457D01*
X012301Y015536D02*
X012305Y015536D01*
X012301Y015614D02*
X012305Y015614D01*
X012301Y015693D02*
X012305Y015693D01*
X012301Y015771D02*
X012354Y015771D01*
X012301Y015850D02*
X012481Y015850D01*
X012481Y015928D02*
X012301Y015928D01*
X012301Y016007D02*
X012481Y016007D01*
X012481Y016085D02*
X012312Y016085D01*
X012390Y016164D02*
X012481Y016164D01*
X012469Y016242D02*
X012516Y016242D01*
X012547Y016321D02*
X012595Y016321D01*
X012641Y016141D02*
X012641Y015476D01*
X012978Y015693D02*
X013240Y015693D01*
X013249Y015771D02*
X012929Y015771D01*
X012801Y015850D02*
X016159Y015850D01*
X016061Y015928D02*
X012801Y015928D01*
X012801Y016007D02*
X015962Y016007D01*
X015939Y016026D02*
X015939Y016026D01*
X015898Y016085D02*
X012812Y016085D01*
X012641Y016141D02*
X012891Y016391D01*
X013069Y016635D02*
X015600Y016635D01*
X015624Y016557D02*
X013146Y016557D01*
X013178Y016478D02*
X015649Y016478D01*
X015664Y016430D02*
X015664Y016430D01*
X015684Y016400D02*
X013189Y016400D01*
X013185Y016321D02*
X015737Y016321D01*
X015791Y016242D02*
X013153Y016242D01*
X013086Y016164D02*
X015845Y016164D01*
X016258Y015771D02*
X014533Y015771D01*
X014543Y015693D02*
X016393Y015693D01*
X016593Y015614D02*
X014543Y015614D01*
X014543Y015536D02*
X016864Y015536D01*
X017264Y015506D02*
X017264Y015506D01*
X016846Y014043D02*
X017936Y014043D01*
X017828Y013965D02*
X016954Y013965D01*
X017027Y013886D02*
X017756Y013886D01*
X017723Y013808D02*
X017229Y013808D01*
X017308Y013729D02*
X017691Y013729D01*
X017691Y013651D02*
X017386Y013651D01*
X017465Y013572D02*
X017691Y013572D01*
X017715Y013493D02*
X017543Y013493D01*
X017622Y013415D02*
X017748Y013415D01*
X017700Y013336D02*
X017809Y013336D01*
X017780Y012944D02*
X016975Y012944D01*
X017035Y012865D02*
X017728Y012865D01*
X017694Y012787D02*
X017250Y012787D01*
X017329Y012708D02*
X017676Y012708D01*
X017672Y012601D02*
X017683Y012531D01*
X017706Y012461D01*
X017739Y012395D01*
X017783Y012335D01*
X017835Y012283D01*
X017895Y012239D01*
X017961Y012206D01*
X018031Y012183D01*
X018101Y012172D01*
X018101Y012601D01*
X017672Y012601D01*
X017679Y012551D02*
X017486Y012551D01*
X017564Y012472D02*
X017702Y012472D01*
X017740Y012394D02*
X017643Y012394D01*
X017721Y012315D02*
X017802Y012315D01*
X017800Y012237D02*
X017899Y012237D01*
X017821Y012158D02*
X018461Y012158D01*
X018461Y012080D02*
X018258Y012080D01*
X018181Y012237D02*
X018101Y012237D01*
X018101Y012315D02*
X018181Y012315D01*
X018181Y012394D02*
X018101Y012394D01*
X018101Y012472D02*
X018181Y012472D01*
X018181Y012551D02*
X018101Y012551D01*
X018101Y012629D02*
X017407Y012629D01*
X017212Y012315D02*
X016952Y012315D01*
X017026Y012394D02*
X017134Y012394D01*
X017291Y012237D02*
X016841Y012237D01*
X016758Y012080D02*
X017448Y012080D01*
X017461Y012001D02*
X016917Y012001D01*
X016996Y011923D02*
X017461Y011923D01*
X017461Y011844D02*
X017044Y011844D01*
X017077Y011766D02*
X017461Y011766D01*
X017461Y011687D02*
X017091Y011687D01*
X017091Y011608D02*
X017461Y011608D01*
X017461Y011530D02*
X017082Y011530D01*
X017085Y011451D02*
X017461Y011451D01*
X017461Y011373D02*
X017164Y011373D01*
X017242Y011294D02*
X017461Y011294D01*
X017461Y011216D02*
X017321Y011216D01*
X017399Y011137D02*
X017461Y011137D01*
X017211Y010587D02*
X017108Y010587D01*
X017092Y010509D02*
X017211Y010509D01*
X017211Y010430D02*
X017061Y010430D01*
X017012Y010352D02*
X017211Y010352D01*
X017211Y010273D02*
X016934Y010273D01*
X016788Y010195D02*
X017211Y010195D01*
X017211Y010116D02*
X015021Y010116D01*
X015083Y009566D02*
X015225Y009566D01*
X015304Y009488D02*
X015049Y009488D01*
X015082Y009409D02*
X015383Y009409D01*
X015461Y009331D02*
X015103Y009331D01*
X015103Y009252D02*
X015540Y009252D01*
X015618Y009174D02*
X015103Y009174D01*
X014393Y008153D02*
X016461Y008153D01*
X016461Y008074D02*
X014314Y008074D01*
X014236Y007995D02*
X016461Y007995D01*
X016461Y007917D02*
X014157Y007917D01*
X012852Y008093D02*
X011571Y006811D01*
X011471Y006711D01*
X011471Y006405D01*
X011315Y006561D01*
X011181Y006561D01*
X011181Y006181D01*
X011101Y006181D01*
X011101Y006561D01*
X011051Y006561D01*
X011211Y006721D01*
X011461Y006721D01*
X011561Y006821D01*
X012833Y008093D01*
X012852Y008093D01*
X012834Y008074D02*
X012814Y008074D01*
X012755Y007995D02*
X012736Y007995D01*
X012677Y007917D02*
X012657Y007917D01*
X012598Y007838D02*
X012579Y007838D01*
X012519Y007760D02*
X012500Y007760D01*
X012441Y007681D02*
X012422Y007681D01*
X012362Y007603D02*
X012343Y007603D01*
X012284Y007524D02*
X012265Y007524D01*
X012205Y007446D02*
X012186Y007446D01*
X012127Y007367D02*
X012107Y007367D01*
X012048Y007289D02*
X012029Y007289D01*
X011970Y007210D02*
X011950Y007210D01*
X011891Y007131D02*
X011872Y007131D01*
X011813Y007053D02*
X011793Y007053D01*
X011734Y006974D02*
X011715Y006974D01*
X011655Y006896D02*
X011636Y006896D01*
X011577Y006817D02*
X011558Y006817D01*
X011498Y006739D02*
X011479Y006739D01*
X011471Y006660D02*
X011151Y006660D01*
X011072Y006582D02*
X011471Y006582D01*
X011471Y006503D02*
X011373Y006503D01*
X011452Y006425D02*
X011471Y006425D01*
X011181Y006425D02*
X011101Y006425D01*
X011101Y006503D02*
X011181Y006503D01*
X011181Y006346D02*
X011101Y006346D01*
X011101Y006267D02*
X011181Y006267D01*
X011181Y006189D02*
X011101Y006189D01*
X011101Y006032D02*
X011181Y006032D01*
X011181Y005953D02*
X011101Y005953D01*
X011101Y005875D02*
X011181Y005875D01*
X011181Y005796D02*
X011101Y005796D01*
X010892Y005796D02*
X010787Y005796D01*
X010811Y005875D02*
X010813Y005875D01*
X010708Y005718D02*
X011471Y005718D01*
X011471Y005796D02*
X011390Y005796D01*
X011469Y005875D02*
X011471Y005875D01*
X011399Y005639D02*
X010630Y005639D01*
X010551Y005561D02*
X011320Y005561D01*
X010916Y005482D02*
X010472Y005482D01*
X010444Y005404D02*
X010838Y005404D01*
X010759Y005325D02*
X010523Y005325D01*
X010541Y005246D02*
X010741Y005246D01*
X010741Y005168D02*
X010541Y005168D01*
X010541Y005089D02*
X010741Y005089D01*
X010741Y005011D02*
X010541Y005011D01*
X010498Y004932D02*
X010678Y004932D01*
X010599Y004854D02*
X010419Y004854D01*
X010341Y004775D02*
X010521Y004775D01*
X010442Y004697D02*
X009321Y004697D01*
X009321Y004618D02*
X010364Y004618D01*
X010285Y004540D02*
X009321Y004540D01*
X009341Y004775D02*
X009941Y004775D01*
X009863Y004854D02*
X009419Y004854D01*
X009498Y004932D02*
X009784Y004932D01*
X009741Y005011D02*
X009541Y005011D01*
X009541Y005089D02*
X009741Y005089D01*
X009741Y005168D02*
X009541Y005168D01*
X009541Y005246D02*
X009741Y005246D01*
X009759Y005325D02*
X009565Y005325D01*
X009644Y005404D02*
X009838Y005404D01*
X009181Y005796D02*
X009101Y005796D01*
X009101Y005875D02*
X009181Y005875D01*
X009181Y005953D02*
X009101Y005953D01*
X009101Y006032D02*
X009181Y006032D01*
X008892Y005796D02*
X008811Y005796D01*
X008811Y005875D02*
X008813Y005875D01*
X008471Y005875D02*
X008469Y005875D01*
X007461Y005796D02*
X007390Y005796D01*
X007181Y005796D02*
X007101Y005796D01*
X007101Y005721D02*
X007101Y006101D01*
X006721Y006101D01*
X006721Y005967D01*
X006967Y005721D01*
X007101Y005721D01*
X007101Y005875D02*
X007181Y005875D01*
X007181Y005953D02*
X007101Y005953D01*
X007101Y006032D02*
X007181Y006032D01*
X007101Y006110D02*
X006181Y006110D01*
X006181Y006189D02*
X006101Y006189D01*
X006101Y006267D02*
X006181Y006267D01*
X006181Y006346D02*
X006101Y006346D01*
X006101Y006425D02*
X006181Y006425D01*
X006181Y006503D02*
X006101Y006503D01*
X006373Y006503D02*
X006909Y006503D01*
X006967Y006561D02*
X006721Y006315D01*
X006721Y006181D01*
X007101Y006181D01*
X007101Y006561D01*
X006967Y006561D01*
X007101Y006503D02*
X007181Y006503D01*
X007181Y006425D02*
X007101Y006425D01*
X007101Y006346D02*
X007181Y006346D01*
X007181Y006267D02*
X007101Y006267D01*
X007101Y006189D02*
X007181Y006189D01*
X007452Y006425D02*
X007461Y006425D01*
X007499Y006503D02*
X007373Y006503D01*
X006831Y006425D02*
X006452Y006425D01*
X006530Y006346D02*
X006752Y006346D01*
X006721Y006267D02*
X006561Y006267D01*
X006561Y006189D02*
X006721Y006189D01*
X006721Y006032D02*
X006561Y006032D01*
X006547Y005953D02*
X006735Y005953D01*
X006813Y005875D02*
X006469Y005875D01*
X006390Y005796D02*
X006892Y005796D01*
X006916Y005482D02*
X006366Y005482D01*
X006307Y005541D02*
X006541Y005307D01*
X006541Y004975D01*
X006307Y004741D01*
X005975Y004741D01*
X005741Y004975D01*
X005741Y005307D01*
X005975Y005541D01*
X006307Y005541D01*
X006444Y005404D02*
X006838Y005404D01*
X006759Y005325D02*
X006523Y005325D01*
X006541Y005246D02*
X006741Y005246D01*
X006741Y005168D02*
X006541Y005168D01*
X006541Y005089D02*
X006741Y005089D01*
X006741Y005011D02*
X006541Y005011D01*
X006498Y004932D02*
X006784Y004932D01*
X006863Y004854D02*
X006419Y004854D01*
X006341Y004775D02*
X006941Y004775D01*
X005941Y004775D02*
X005341Y004775D01*
X005419Y004854D02*
X005863Y004854D01*
X005784Y004932D02*
X005498Y004932D01*
X005541Y005011D02*
X005741Y005011D01*
X005741Y005089D02*
X005541Y005089D01*
X005541Y005168D02*
X005741Y005168D01*
X005741Y005246D02*
X005541Y005246D01*
X005523Y005325D02*
X005759Y005325D01*
X005838Y005404D02*
X005444Y005404D01*
X005366Y005482D02*
X005916Y005482D01*
X004961Y005561D02*
X000281Y005561D01*
X000281Y005639D02*
X004961Y005639D01*
X004961Y005718D02*
X000281Y005718D01*
X000281Y005796D02*
X004920Y005796D01*
X004842Y005875D02*
X000281Y005875D01*
X000281Y005953D02*
X004763Y005953D01*
X004741Y006032D02*
X000281Y006032D01*
X000281Y006110D02*
X004741Y006110D01*
X004741Y006189D02*
X000281Y006189D01*
X000281Y006267D02*
X004741Y006267D01*
X004780Y006346D02*
X000281Y006346D01*
X000281Y006425D02*
X004859Y006425D01*
X004937Y006503D02*
X000281Y006503D01*
X000281Y006582D02*
X005341Y006582D01*
X005420Y006660D02*
X002043Y006660D01*
X002045Y006661D02*
X002077Y006679D01*
X002103Y006705D01*
X002122Y006737D01*
X002131Y006773D01*
X002131Y007101D01*
X001681Y007101D01*
X001681Y006651D01*
X002010Y006651D01*
X002045Y006661D01*
X002122Y006739D02*
X005498Y006739D01*
X005577Y006817D02*
X002131Y006817D01*
X002131Y006896D02*
X005655Y006896D01*
X005734Y006974D02*
X002131Y006974D01*
X002131Y007053D02*
X005813Y007053D01*
X005891Y007131D02*
X001681Y007131D01*
X001681Y007101D02*
X001681Y007181D01*
X002131Y007181D01*
X002131Y007510D01*
X002122Y007545D01*
X002103Y007577D01*
X002077Y007603D01*
X002045Y007622D01*
X002010Y007631D01*
X001681Y007631D01*
X001681Y007181D01*
X001601Y007181D01*
X001601Y007101D01*
X001681Y007101D01*
X001681Y007053D02*
X001601Y007053D01*
X001601Y007101D02*
X001601Y006651D01*
X001273Y006651D01*
X001237Y006661D01*
X001205Y006679D01*
X001179Y006705D01*
X001161Y006737D01*
X001151Y006773D01*
X001151Y007101D01*
X001601Y007101D01*
X001601Y007131D02*
X000281Y007131D01*
X000281Y007053D02*
X001151Y007053D01*
X001151Y006974D02*
X000281Y006974D01*
X000281Y006896D02*
X001151Y006896D01*
X001151Y006817D02*
X000281Y006817D01*
X000281Y006739D02*
X001160Y006739D01*
X001239Y006660D02*
X000281Y006660D01*
X000281Y007210D02*
X001151Y007210D01*
X001151Y007181D02*
X001601Y007181D01*
X001601Y007631D01*
X001273Y007631D01*
X001237Y007622D01*
X001205Y007603D01*
X001179Y007577D01*
X001161Y007545D01*
X001151Y007510D01*
X001151Y007181D01*
X001151Y007289D02*
X000281Y007289D01*
X000281Y007367D02*
X001151Y007367D01*
X001151Y007446D02*
X000281Y007446D01*
X000281Y007524D02*
X001155Y007524D01*
X001205Y007603D02*
X000281Y007603D01*
X000281Y007681D02*
X001471Y007681D01*
X001453Y007687D02*
X001526Y007663D01*
X001601Y007651D01*
X001601Y008101D01*
X001151Y008101D01*
X001163Y008026D01*
X001187Y007953D01*
X001222Y007884D01*
X001267Y007822D01*
X001322Y007767D01*
X001384Y007722D01*
X001453Y007687D01*
X001332Y007760D02*
X000281Y007760D01*
X000281Y007838D02*
X001255Y007838D01*
X001205Y007917D02*
X000281Y007917D01*
X000281Y007995D02*
X001173Y007995D01*
X001156Y008074D02*
X000281Y008074D01*
X000281Y008153D02*
X001601Y008153D01*
X001601Y008231D02*
X001681Y008231D01*
X001681Y008153D02*
X011412Y008153D01*
X011491Y008231D02*
X002123Y008231D01*
X002102Y008310D02*
X011569Y008310D01*
X011334Y008074D02*
X002127Y008074D01*
X002109Y007995D02*
X011255Y007995D01*
X011176Y007917D02*
X002077Y007917D01*
X002027Y007838D02*
X011098Y007838D01*
X011019Y007760D02*
X001950Y007760D01*
X001811Y007681D02*
X010941Y007681D01*
X010862Y007603D02*
X002077Y007603D01*
X002127Y007524D02*
X006284Y007524D01*
X006205Y007446D02*
X002131Y007446D01*
X002131Y007367D02*
X006127Y007367D01*
X006048Y007289D02*
X002131Y007289D01*
X002131Y007210D02*
X005970Y007210D01*
X007199Y008545D02*
X001918Y008545D01*
X002008Y008467D02*
X007919Y008467D01*
X007953Y008388D02*
X002065Y008388D01*
X001681Y008388D02*
X001601Y008388D01*
X001601Y008310D02*
X001681Y008310D01*
X001681Y008467D02*
X001601Y008467D01*
X001601Y008545D02*
X001681Y008545D01*
X001364Y008545D02*
X000281Y008545D01*
X000281Y008467D02*
X001274Y008467D01*
X001217Y008388D02*
X000281Y008388D01*
X000281Y008310D02*
X001181Y008310D01*
X001159Y008231D02*
X000281Y008231D01*
X001601Y008074D02*
X001681Y008074D01*
X001681Y007995D02*
X001601Y007995D01*
X001601Y007917D02*
X001681Y007917D01*
X001681Y007838D02*
X001601Y007838D01*
X001601Y007760D02*
X001681Y007760D01*
X001681Y007681D02*
X001601Y007681D01*
X001601Y007603D02*
X001681Y007603D01*
X001681Y007524D02*
X001601Y007524D01*
X001601Y007446D02*
X001681Y007446D01*
X001681Y007367D02*
X001601Y007367D01*
X001601Y007289D02*
X001681Y007289D01*
X001681Y007210D02*
X001601Y007210D01*
X001601Y006974D02*
X001681Y006974D01*
X001681Y006896D02*
X001601Y006896D01*
X001601Y006817D02*
X001681Y006817D01*
X001681Y006739D02*
X001601Y006739D01*
X001601Y006660D02*
X001681Y006660D01*
X000281Y005482D02*
X004916Y005482D01*
X004838Y005404D02*
X000281Y005404D01*
X000281Y005325D02*
X004759Y005325D01*
X004741Y005246D02*
X000281Y005246D01*
X000281Y005168D02*
X004741Y005168D01*
X004741Y005089D02*
X000281Y005089D01*
X000281Y005011D02*
X004741Y005011D01*
X004784Y004932D02*
X000281Y004932D01*
X000281Y004854D02*
X004863Y004854D01*
X004941Y004775D02*
X000281Y004775D01*
X000281Y004697D02*
X004961Y004697D01*
X004961Y004618D02*
X000281Y004618D01*
X000281Y004540D02*
X004961Y004540D01*
X004961Y004461D02*
X000281Y004461D01*
X000281Y004382D02*
X004961Y004382D01*
X004961Y004304D02*
X000281Y004304D01*
X000281Y004225D02*
X004961Y004225D01*
X004961Y004147D02*
X000281Y004147D01*
X000281Y004068D02*
X004961Y004068D01*
X004961Y003990D02*
X000281Y003990D01*
X000281Y003911D02*
X004961Y003911D01*
X004961Y003833D02*
X000281Y003833D01*
X000281Y003754D02*
X001965Y003754D01*
X001776Y003740D02*
X001776Y003740D01*
X001612Y003676D02*
X000281Y003676D01*
X000281Y003597D02*
X001412Y003597D01*
X001321Y003561D02*
X001321Y003561D01*
X001267Y003518D02*
X000281Y003518D01*
X000281Y003440D02*
X001169Y003440D01*
X001070Y003361D02*
X000281Y003361D01*
X000281Y003283D02*
X000972Y003283D01*
X000903Y003204D02*
X000281Y003204D01*
X000281Y003126D02*
X000850Y003126D01*
X000796Y003047D02*
X000281Y003047D01*
X000281Y002969D02*
X000743Y002969D01*
X000689Y002890D02*
X000281Y002890D01*
X000281Y002812D02*
X000651Y002812D01*
X000627Y002733D02*
X000281Y002733D01*
X000281Y002654D02*
X000602Y002654D01*
X000578Y002576D02*
X000281Y002576D01*
X000281Y002497D02*
X000554Y002497D01*
X000530Y002419D02*
X000281Y002419D01*
X000281Y002340D02*
X000519Y002340D01*
X000519Y002262D02*
X000281Y002262D01*
X000281Y002183D02*
X000519Y002183D01*
X000519Y002105D02*
X000283Y002105D01*
X000288Y002026D02*
X000519Y002026D01*
X000519Y001948D02*
X000292Y001948D01*
X000307Y001869D02*
X000528Y001869D01*
X000552Y001791D02*
X000325Y001791D01*
X000343Y001712D02*
X000576Y001712D01*
X000601Y001633D02*
X000361Y001633D01*
X000379Y001555D02*
X000625Y001555D01*
X000649Y001476D02*
X000410Y001476D01*
X000448Y001398D02*
X000685Y001398D01*
X000664Y001430D02*
X000664Y001430D01*
X000739Y001319D02*
X000485Y001319D01*
X000523Y001241D02*
X000792Y001241D01*
X001382Y000455D02*
X017900Y000455D01*
X017717Y000377D02*
X001565Y000377D01*
X002264Y000506D02*
X002264Y000506D01*
X002387Y000534D02*
X008461Y000534D01*
X008393Y000612D02*
X002731Y000612D01*
X002740Y000614D02*
X002740Y000614D01*
X002873Y000691D02*
X008393Y000691D01*
X008393Y000769D02*
X003009Y000769D01*
X003145Y000848D02*
X008393Y000848D01*
X008393Y000927D02*
X003226Y000927D01*
X003164Y000859D02*
X003164Y000859D01*
X003164Y000859D01*
X003299Y001005D02*
X006359Y001005D01*
X006305Y001084D02*
X003372Y001084D01*
X003367Y003204D02*
X004961Y003204D01*
X004961Y003283D02*
X003294Y003283D01*
X003221Y003361D02*
X004961Y003361D01*
X004961Y003440D02*
X003135Y003440D01*
X003164Y003423D02*
X003164Y003423D01*
X002999Y003518D02*
X004961Y003518D01*
X004961Y003597D02*
X002863Y003597D01*
X002740Y003668D02*
X002740Y003668D01*
X002706Y003676D02*
X004961Y003676D01*
X004961Y003754D02*
X002362Y003754D01*
X005905Y003126D02*
X007121Y003126D01*
X007200Y003204D02*
X006976Y003204D01*
X006998Y003283D02*
X007278Y003283D01*
X007357Y003361D02*
X006998Y003361D01*
X006978Y003047D02*
X007043Y003047D01*
X006681Y003518D02*
X006601Y003518D01*
X006601Y003597D02*
X006681Y003597D01*
X006681Y003676D02*
X006601Y003676D01*
X006601Y003754D02*
X006681Y003754D01*
X007560Y001476D02*
X008393Y001476D01*
X008393Y001398D02*
X007639Y001398D01*
X007444Y001084D02*
X006978Y001084D01*
X006923Y001005D02*
X007523Y001005D01*
X008822Y000534D02*
X008936Y000534D01*
X009846Y000534D02*
X009961Y000534D01*
X010322Y000534D02*
X010436Y000534D01*
X010617Y000534D02*
X010665Y000534D01*
X010665Y000612D02*
X010617Y000612D01*
X010617Y000691D02*
X010665Y000691D01*
X010665Y000769D02*
X010617Y000769D01*
X010617Y000848D02*
X010665Y000848D01*
X010665Y000927D02*
X010617Y000927D01*
X010617Y001005D02*
X010665Y001005D01*
X010665Y001084D02*
X010617Y001084D01*
X010909Y001005D02*
X015965Y001005D01*
X015939Y001026D02*
X015939Y001026D01*
X016063Y000927D02*
X010909Y000927D01*
X010909Y000848D02*
X016162Y000848D01*
X016260Y000769D02*
X010909Y000769D01*
X010909Y000691D02*
X016397Y000691D01*
X016597Y000612D02*
X010904Y000612D01*
X010846Y000534D02*
X016888Y000534D01*
X016776Y003740D02*
X016776Y003740D01*
X017918Y005246D02*
X014541Y005246D01*
X014541Y005307D02*
X014541Y004975D01*
X014307Y004741D01*
X013975Y004741D01*
X013741Y004975D01*
X013741Y005307D01*
X013975Y005541D01*
X014307Y005541D01*
X014541Y005307D01*
X014523Y005325D02*
X017821Y005325D01*
X017752Y005404D02*
X014444Y005404D01*
X014366Y005482D02*
X017720Y005482D01*
X017926Y006110D02*
X019001Y006110D01*
X019001Y006032D02*
X018374Y006032D01*
X018465Y005953D02*
X019001Y005953D01*
X019001Y005875D02*
X018531Y005875D01*
X018564Y005796D02*
X019001Y005796D01*
X019001Y005718D02*
X018591Y005718D01*
X018591Y005639D02*
X019001Y005639D01*
X019001Y005561D02*
X018591Y005561D01*
X018562Y005482D02*
X019001Y005482D01*
X019001Y005404D02*
X018530Y005404D01*
X018461Y005325D02*
X019001Y005325D01*
X019001Y005246D02*
X018364Y005246D01*
X019001Y005168D02*
X014541Y005168D01*
X014541Y005089D02*
X019001Y005089D01*
X019001Y005011D02*
X014541Y005011D01*
X014498Y004932D02*
X019001Y004932D01*
X019001Y004854D02*
X014419Y004854D01*
X014341Y004775D02*
X019001Y004775D01*
X017211Y009331D02*
X017206Y009331D01*
X017211Y009409D02*
X017127Y009409D01*
X017065Y009488D02*
X017211Y009488D01*
X017211Y009566D02*
X017091Y009566D01*
X017091Y009645D02*
X017211Y009645D01*
X017211Y009723D02*
X017091Y009723D01*
X017062Y009802D02*
X017211Y009802D01*
X017211Y009880D02*
X017029Y009880D01*
X016960Y009959D02*
X017211Y009959D01*
X017211Y010038D02*
X016860Y010038D01*
X016681Y010195D02*
X016601Y010195D01*
X016601Y010273D02*
X016681Y010273D01*
X016681Y010352D02*
X016601Y010352D01*
X016601Y010430D02*
X016681Y010430D01*
X016681Y010509D02*
X016601Y010509D01*
X016601Y010587D02*
X016681Y010587D01*
X016681Y010823D02*
X016601Y010823D01*
X016601Y010902D02*
X016681Y010902D01*
X016681Y010980D02*
X016601Y010980D01*
X016601Y011059D02*
X016681Y011059D01*
X016790Y011216D02*
X016812Y011216D01*
X016238Y011844D02*
X015929Y011844D01*
X015850Y011923D02*
X016286Y011923D01*
X016365Y012001D02*
X015771Y012001D01*
X015693Y012080D02*
X016524Y012080D01*
X017369Y012158D02*
X015614Y012158D01*
X015041Y011923D02*
X014241Y011923D01*
X014360Y011844D02*
X014922Y011844D01*
X014525Y011766D02*
X014413Y011766D01*
X014439Y011687D02*
X014447Y011687D01*
X013001Y013022D02*
X013001Y013022D01*
X013001Y013101D02*
X013001Y013101D01*
X013001Y013179D02*
X013001Y013179D01*
X012719Y012708D02*
X011978Y012708D01*
X011681Y012472D02*
X011601Y012472D01*
X011601Y012394D02*
X011681Y012394D01*
X011681Y012315D02*
X011601Y012315D01*
X011503Y012158D02*
X011230Y012158D01*
X011230Y012080D02*
X011425Y012080D01*
X011346Y012001D02*
X011230Y012001D01*
X011230Y011923D02*
X011268Y011923D01*
X010913Y012043D02*
X010668Y012043D01*
X010454Y011829D01*
X010454Y011454D01*
X010391Y011391D01*
X010391Y010891D01*
X010913Y011058D02*
X011803Y011058D01*
X011745Y011255D02*
X010913Y011255D01*
X010266Y011641D02*
X010266Y011891D01*
X010615Y012240D01*
X010913Y012240D01*
X010913Y012436D02*
X010561Y012436D01*
X009954Y011829D01*
X010266Y011641D02*
X009954Y011329D01*
X009633Y011649D02*
X009141Y012141D01*
X009141Y012141D01*
X010224Y013224D01*
X010913Y013224D01*
X011203Y013224D01*
X011315Y013336D01*
X011641Y013336D01*
X011641Y013704D01*
X011704Y013766D01*
X011597Y013886D02*
X010384Y013886D01*
X010383Y013808D02*
X011519Y013808D01*
X011481Y013729D02*
X010383Y013729D01*
X010367Y013651D02*
X011373Y013651D01*
X011324Y013572D02*
X009596Y013572D01*
X009596Y013493D02*
X011246Y013493D01*
X011167Y013415D02*
X009596Y013415D01*
X009596Y013336D02*
X010110Y013336D01*
X010032Y013258D02*
X009634Y013258D01*
X009672Y013179D02*
X009953Y013179D01*
X009875Y013101D02*
X009689Y013101D01*
X009689Y013022D02*
X009796Y013022D01*
X009717Y012944D02*
X009658Y012944D01*
X009639Y012865D02*
X009600Y012865D01*
X009560Y012787D02*
X009466Y012787D01*
X009482Y012708D02*
X009193Y012708D01*
X009233Y012787D02*
X009316Y012787D01*
X009403Y012629D02*
X009102Y012629D01*
X009036Y012472D02*
X009246Y012472D01*
X009168Y012394D02*
X009115Y012394D01*
X008954Y012329D02*
X009141Y012141D01*
X008058Y011058D01*
X007369Y011058D01*
X007183Y011058D01*
X006766Y010641D01*
X006476Y010641D01*
X006476Y009976D01*
X006141Y009641D01*
X004976Y009641D01*
X004976Y009226D01*
X004891Y009141D01*
X001641Y009141D01*
X002071Y009331D02*
X004034Y009331D01*
X003990Y009409D02*
X003939Y009409D01*
X003409Y009723D02*
X003393Y009723D01*
X003393Y009802D02*
X003409Y009802D01*
X003441Y009880D02*
X003368Y009880D01*
X002798Y009802D02*
X001967Y009802D01*
X001861Y009723D02*
X002798Y009723D01*
X002798Y009566D02*
X001843Y009566D01*
X001959Y009488D02*
X002798Y009488D01*
X002820Y009409D02*
X002038Y009409D01*
X002107Y010038D02*
X005111Y010038D01*
X005093Y010116D02*
X002111Y010116D01*
X002111Y010195D02*
X005093Y010195D01*
X005117Y010273D02*
X002095Y010273D01*
X001641Y010141D02*
X000891Y010891D01*
X000891Y012891D01*
X001641Y013641D01*
X006766Y013641D01*
X006891Y013766D01*
X006618Y013886D02*
X004554Y013886D01*
X004562Y014357D02*
X006353Y014357D01*
X006431Y014436D02*
X004514Y014436D01*
X003938Y014436D02*
X003873Y014436D01*
X003596Y014043D02*
X003516Y014043D01*
X003516Y013965D02*
X003596Y013965D01*
X003596Y013886D02*
X003516Y013886D01*
X003516Y013808D02*
X003596Y013808D01*
X003804Y013808D02*
X006593Y013808D01*
X006668Y013965D02*
X006469Y013965D01*
X006548Y014043D02*
X006781Y014043D01*
X007141Y014141D02*
X007369Y013913D01*
X008058Y013913D01*
X008058Y012974D01*
X008399Y012633D01*
X008596Y012436D01*
X008704Y012329D01*
X008954Y012329D01*
X008887Y012169D02*
X008770Y012169D01*
X008637Y012169D01*
X008530Y012276D01*
X007686Y012276D01*
X007686Y012150D01*
X007677Y012141D01*
X007686Y012132D01*
X007686Y011954D01*
X007677Y011944D01*
X007686Y011935D01*
X007686Y011757D01*
X007677Y011747D01*
X007686Y011738D01*
X007686Y011560D01*
X007677Y011551D01*
X007686Y011541D01*
X007686Y011367D01*
X007697Y011349D01*
X007706Y011313D01*
X007706Y011255D01*
X007370Y011255D01*
X007370Y011255D01*
X007706Y011255D01*
X007706Y011218D01*
X007992Y011218D01*
X008915Y012141D01*
X008887Y012169D01*
X008898Y012158D02*
X007686Y012158D01*
X007686Y012080D02*
X008853Y012080D01*
X008775Y012001D02*
X007686Y012001D01*
X007686Y011923D02*
X008696Y011923D01*
X008618Y011844D02*
X007686Y011844D01*
X007686Y011766D02*
X008539Y011766D01*
X008461Y011687D02*
X007686Y011687D01*
X007686Y011608D02*
X008382Y011608D01*
X008304Y011530D02*
X007686Y011530D01*
X007686Y011451D02*
X008225Y011451D01*
X008147Y011373D02*
X007686Y011373D01*
X007706Y011294D02*
X008068Y011294D01*
X008058Y011058D02*
X008058Y010369D01*
X007898Y010352D02*
X006769Y010352D01*
X006812Y010430D02*
X007898Y010430D01*
X007898Y010509D02*
X006860Y010509D01*
X006939Y010587D02*
X007898Y010587D01*
X007898Y010666D02*
X007017Y010666D01*
X007096Y010744D02*
X007898Y010744D01*
X007898Y010823D02*
X007174Y010823D01*
X006957Y011059D02*
X005680Y011059D01*
X005689Y011137D02*
X007036Y011137D01*
X007033Y011216D02*
X005683Y011216D01*
X005766Y011294D02*
X005846Y011294D01*
X005846Y011373D02*
X005766Y011373D01*
X005766Y011451D02*
X005846Y011451D01*
X005846Y011530D02*
X005766Y011530D01*
X005847Y011608D02*
X006159Y011608D01*
X006159Y011530D02*
X006143Y011530D01*
X006143Y011451D02*
X006159Y011451D01*
X006161Y011373D02*
X006134Y011373D01*
X006058Y011294D02*
X007033Y011294D01*
X007033Y011255D02*
X007369Y011255D01*
X007033Y011255D01*
X007053Y011373D02*
X006791Y011373D01*
X006793Y011451D02*
X007053Y011451D01*
X007053Y011530D02*
X006944Y011530D01*
X006989Y011575D02*
X006989Y011575D01*
X007022Y011608D02*
X007053Y011608D01*
X006829Y011641D02*
X007033Y011846D01*
X007033Y011891D01*
X007079Y011846D01*
X007369Y011846D01*
X007033Y011891D02*
X007033Y011999D01*
X006891Y012141D01*
X006643Y012315D02*
X006080Y012315D01*
X006127Y011923D02*
X006174Y011923D01*
X006159Y011844D02*
X006143Y011844D01*
X006143Y011766D02*
X006159Y011766D01*
X006159Y011687D02*
X006143Y011687D01*
X006476Y011641D02*
X006829Y011641D01*
X006879Y010980D02*
X005647Y010980D01*
X005766Y010902D02*
X005846Y010902D01*
X005846Y010823D02*
X005766Y010823D01*
X005766Y010744D02*
X005846Y010744D01*
X005766Y010666D02*
X005293Y010666D01*
X005293Y010744D02*
X005450Y010744D01*
X005450Y010823D02*
X005293Y010823D01*
X005293Y010587D02*
X005450Y010587D01*
X005450Y010509D02*
X005334Y010509D01*
X005391Y010226D02*
X004976Y010641D01*
X005391Y010226D02*
X005391Y010141D01*
X005671Y010038D02*
X006311Y010038D01*
X006316Y010042D02*
X006075Y009801D01*
X005293Y009801D01*
X005293Y009859D01*
X005332Y009843D01*
X005450Y009843D01*
X005560Y009888D01*
X005644Y009972D01*
X005689Y010082D01*
X005689Y010200D01*
X005646Y010304D01*
X005766Y010304D01*
X005766Y010601D01*
X005846Y010601D01*
X005846Y010304D01*
X006041Y010304D01*
X006077Y010314D01*
X006109Y010332D01*
X006135Y010358D01*
X006150Y010384D01*
X006209Y010324D01*
X006316Y010324D01*
X006316Y010042D01*
X006316Y010116D02*
X005689Y010116D01*
X005689Y010195D02*
X006316Y010195D01*
X006316Y010273D02*
X005659Y010273D01*
X005766Y010352D02*
X005846Y010352D01*
X005846Y010430D02*
X005766Y010430D01*
X005766Y010509D02*
X005846Y010509D01*
X005846Y010587D02*
X005766Y010587D01*
X006128Y010352D02*
X006182Y010352D01*
X006233Y009959D02*
X005631Y009959D01*
X005542Y009880D02*
X006154Y009880D01*
X006076Y009802D02*
X005293Y009802D01*
X005293Y009409D02*
X007179Y009409D01*
X007179Y009331D02*
X005248Y009331D01*
X005136Y009252D02*
X007179Y009252D01*
X007207Y009174D02*
X005136Y009174D01*
X005071Y009095D02*
X007222Y009095D01*
X007199Y009016D02*
X004993Y009016D01*
X004703Y009331D02*
X004579Y009331D01*
X004623Y009409D02*
X004659Y009409D01*
X004659Y009488D02*
X004623Y009488D01*
X004623Y009566D02*
X004659Y009566D01*
X006148Y010902D02*
X006153Y010902D01*
X006636Y010273D02*
X007899Y010273D01*
X007899Y010195D02*
X006636Y010195D01*
X006636Y010116D02*
X007906Y010116D01*
X007939Y009880D02*
X006607Y009880D01*
X006636Y009959D02*
X008686Y009959D01*
X008686Y010038D02*
X006636Y010038D01*
X006528Y009802D02*
X007231Y009802D01*
X007183Y009723D02*
X006450Y009723D01*
X006371Y009645D02*
X007179Y009645D01*
X007179Y009566D02*
X006293Y009566D01*
X006214Y009488D02*
X007476Y009488D01*
X007476Y009566D02*
X007556Y009566D01*
X007556Y009516D02*
X007556Y009832D01*
X007731Y009832D01*
X007767Y009823D01*
X007799Y009804D01*
X007825Y009778D01*
X007843Y009746D01*
X007853Y009711D01*
X007853Y009516D01*
X007556Y009516D01*
X007556Y009488D02*
X007919Y009488D01*
X007919Y009566D02*
X007853Y009566D01*
X007853Y009645D02*
X007919Y009645D01*
X007919Y009723D02*
X007850Y009723D01*
X007801Y009802D02*
X007919Y009802D01*
X007556Y009802D02*
X007476Y009802D01*
X007476Y009723D02*
X007556Y009723D01*
X007556Y009645D02*
X007476Y009645D01*
X007853Y009409D02*
X007919Y009409D01*
X007919Y009331D02*
X007853Y009331D01*
X007853Y009252D02*
X008981Y009252D01*
X008981Y009174D02*
X007825Y009174D01*
X007811Y009095D02*
X008981Y009095D01*
X008981Y009016D02*
X008845Y009016D01*
X008907Y008938D02*
X008962Y008938D01*
X008981Y009331D02*
X008907Y009331D01*
X008907Y009409D02*
X008981Y009409D01*
X008981Y009488D02*
X008907Y009488D01*
X008907Y009566D02*
X008981Y009566D01*
X008911Y009645D02*
X008907Y009645D01*
X009301Y009488D02*
X009318Y009488D01*
X009301Y009409D02*
X009375Y009409D01*
X009375Y009331D02*
X009301Y009331D01*
X009301Y009252D02*
X010449Y009252D01*
X010449Y009331D02*
X010363Y009331D01*
X010363Y009409D02*
X010449Y009409D01*
X010485Y009174D02*
X009301Y009174D01*
X009378Y009880D02*
X009396Y009880D01*
X009299Y009959D02*
X012471Y009959D01*
X012471Y010038D02*
X009513Y010038D01*
X009437Y010038D02*
X009436Y010038D01*
X009360Y010038D02*
X009221Y010038D01*
X009436Y010116D02*
X009437Y010116D01*
X009436Y010195D02*
X009437Y010195D01*
X009436Y010273D02*
X009437Y010273D01*
X009436Y010352D02*
X009437Y010352D01*
X009436Y010370D02*
X009436Y010706D01*
X009379Y010706D01*
X009343Y010697D01*
X009325Y010686D01*
X009150Y010686D01*
X009141Y010677D01*
X009132Y010686D01*
X008954Y010686D01*
X008944Y010677D01*
X008935Y010686D01*
X008757Y010686D01*
X008747Y010677D01*
X008738Y010686D01*
X008560Y010686D01*
X008551Y010677D01*
X008541Y010686D01*
X008363Y010686D01*
X008354Y010677D01*
X008344Y010686D01*
X008218Y010686D01*
X008218Y010992D01*
X009141Y011915D01*
X009473Y011583D01*
X009473Y010706D01*
X009437Y010706D01*
X009437Y010370D01*
X009436Y010370D01*
X009436Y010430D02*
X009437Y010430D01*
X009436Y010509D02*
X009437Y010509D01*
X009436Y010587D02*
X009437Y010587D01*
X009436Y010666D02*
X009437Y010666D01*
X009473Y010744D02*
X008218Y010744D01*
X008218Y010823D02*
X009473Y010823D01*
X009473Y010902D02*
X008218Y010902D01*
X008218Y010980D02*
X009473Y010980D01*
X009473Y011059D02*
X008285Y011059D01*
X008363Y011137D02*
X009473Y011137D01*
X009473Y011216D02*
X008442Y011216D01*
X008521Y011294D02*
X009473Y011294D01*
X009473Y011373D02*
X008599Y011373D01*
X008678Y011451D02*
X009473Y011451D01*
X009473Y011530D02*
X008756Y011530D01*
X008835Y011608D02*
X009447Y011608D01*
X009369Y011687D02*
X008913Y011687D01*
X008992Y011766D02*
X009290Y011766D01*
X009212Y011844D02*
X009070Y011844D01*
X009633Y011649D02*
X009633Y010369D01*
X010376Y010116D02*
X012471Y010116D01*
X010079Y012204D02*
X009704Y012204D01*
X010079Y012204D02*
X010508Y012633D01*
X010913Y012633D01*
X010913Y012830D02*
X010268Y012830D01*
X010016Y012579D01*
X010216Y012990D02*
X010290Y013064D01*
X010576Y013064D01*
X010576Y013027D01*
X010912Y013027D01*
X010912Y013027D01*
X010576Y013027D01*
X010576Y012990D01*
X010334Y012990D01*
X010216Y012990D01*
X010248Y013022D02*
X010576Y013022D01*
X010913Y013027D02*
X011250Y013027D01*
X010913Y013027D01*
X010913Y013027D01*
X011250Y013022D02*
X011372Y013022D01*
X011324Y013101D02*
X011306Y013101D01*
X011318Y012944D02*
X011243Y012944D01*
X011230Y012865D02*
X011304Y012865D01*
X011304Y012787D02*
X011230Y012787D01*
X011230Y012708D02*
X011304Y012708D01*
X012489Y013022D02*
X012490Y013022D01*
X012489Y013101D02*
X012490Y013101D01*
X012489Y013179D02*
X012490Y013179D01*
X012489Y013258D02*
X012490Y013258D01*
X012418Y013965D02*
X010384Y013965D01*
X010395Y014043D02*
X012530Y014043D01*
X012183Y014122D02*
X013093Y014122D01*
X013109Y014043D02*
X012752Y014043D01*
X012864Y013965D02*
X013145Y013965D01*
X013227Y013886D02*
X012914Y013886D01*
X013185Y014357D02*
X012301Y014357D01*
X012301Y014436D02*
X013231Y014436D01*
X013231Y014515D02*
X012932Y014515D01*
X012978Y014593D02*
X013231Y014593D01*
X013231Y014672D02*
X012978Y014672D01*
X012978Y014750D02*
X013231Y014750D01*
X013231Y014829D02*
X012978Y014829D01*
X012978Y014907D02*
X013231Y014907D01*
X013260Y014986D02*
X012978Y014986D01*
X012966Y015064D02*
X013338Y015064D01*
X013481Y015207D02*
X013481Y015207D01*
X012641Y014806D02*
X012181Y014806D01*
X012141Y014766D01*
X012141Y016141D01*
X013641Y017641D01*
X015177Y017641D01*
X015592Y017656D02*
X015603Y017656D01*
X015592Y017735D02*
X015627Y017735D01*
X015651Y017813D02*
X015592Y017813D01*
X015592Y017892D02*
X015690Y017892D01*
X015744Y017970D02*
X015592Y017970D01*
X015529Y018049D02*
X015797Y018049D01*
X015851Y018128D02*
X011168Y018128D01*
X011158Y018098D02*
X011179Y018164D01*
X011189Y018226D01*
X010793Y018226D01*
X010793Y017830D01*
X010856Y017840D01*
X010921Y017861D01*
X010982Y017892D01*
X011038Y017933D01*
X011086Y017981D01*
X011127Y018037D01*
X011158Y018098D01*
X011133Y018049D02*
X011725Y018049D01*
X011675Y017970D02*
X011075Y017970D01*
X010981Y017892D02*
X011670Y017892D01*
X011670Y017813D02*
X010106Y017813D01*
X010135Y017892D02*
X010525Y017892D01*
X010524Y017892D02*
X010586Y017861D01*
X010651Y017840D01*
X010713Y017830D01*
X010713Y018226D01*
X010317Y018226D01*
X010327Y018164D01*
X010348Y018098D01*
X010380Y018037D01*
X010420Y017981D01*
X010469Y017933D01*
X010524Y017892D01*
X010431Y017970D02*
X010135Y017970D01*
X010135Y018049D02*
X010374Y018049D01*
X010339Y018128D02*
X010135Y018128D01*
X010135Y018206D02*
X010320Y018206D01*
X010317Y018306D02*
X010713Y018306D01*
X010713Y018226D01*
X010793Y018226D01*
X010793Y018306D01*
X010713Y018306D01*
X010713Y018702D01*
X010651Y018692D01*
X010586Y018671D01*
X010524Y018640D01*
X010469Y018599D01*
X010420Y018551D01*
X010380Y018495D01*
X010348Y018434D01*
X010327Y018368D01*
X010317Y018306D01*
X010326Y018363D02*
X010135Y018363D01*
X010135Y018285D02*
X010713Y018285D01*
X010713Y018363D02*
X010793Y018363D01*
X010793Y018306D02*
X010793Y018702D01*
X010856Y018692D01*
X010921Y018671D01*
X010982Y018640D01*
X011038Y018599D01*
X011086Y018551D01*
X011127Y018495D01*
X011158Y018434D01*
X011179Y018368D01*
X011189Y018306D01*
X010793Y018306D01*
X010793Y018285D02*
X015974Y018285D01*
X015904Y018206D02*
X011186Y018206D01*
X011180Y018363D02*
X016073Y018363D01*
X016171Y018442D02*
X011154Y018442D01*
X011109Y018520D02*
X016270Y018520D01*
X016321Y018561D02*
X016321Y018561D01*
X016416Y018599D02*
X011038Y018599D01*
X010901Y018677D02*
X016617Y018677D01*
X016776Y018740D02*
X016776Y018740D01*
X016988Y018756D02*
X010069Y018756D01*
X010135Y018677D02*
X010605Y018677D01*
X010713Y018677D02*
X010793Y018677D01*
X010793Y018599D02*
X010713Y018599D01*
X010713Y018520D02*
X010793Y018520D01*
X010793Y018442D02*
X010713Y018442D01*
X010713Y018206D02*
X010793Y018206D01*
X010793Y018128D02*
X010713Y018128D01*
X010713Y018049D02*
X010793Y018049D01*
X010793Y017970D02*
X010713Y017970D01*
X010713Y017892D02*
X010793Y017892D01*
X010506Y017656D02*
X012066Y017656D01*
X012066Y017578D02*
X012146Y017578D01*
X012146Y017601D02*
X012146Y017206D01*
X012419Y017206D01*
X012455Y017215D01*
X012487Y017234D01*
X012513Y017260D01*
X012531Y017292D01*
X012541Y017327D01*
X012541Y017601D01*
X012146Y017601D01*
X012146Y017656D02*
X013430Y017656D01*
X013351Y017578D02*
X012541Y017578D01*
X012541Y017499D02*
X013273Y017499D01*
X013194Y017421D02*
X012541Y017421D01*
X012541Y017342D02*
X013116Y017342D01*
X013037Y017264D02*
X012515Y017264D01*
X012146Y017264D02*
X012066Y017264D01*
X012066Y017342D02*
X012146Y017342D01*
X012146Y017421D02*
X012066Y017421D01*
X012066Y017499D02*
X012146Y017499D01*
X012146Y017735D02*
X012066Y017735D01*
X012066Y017813D02*
X012146Y017813D01*
X012146Y017892D02*
X012066Y017892D01*
X012066Y017970D02*
X012146Y017970D01*
X012146Y018049D02*
X012066Y018049D01*
X012486Y018049D02*
X014824Y018049D01*
X014761Y017970D02*
X012537Y017970D01*
X012541Y017892D02*
X014761Y017892D01*
X014761Y017813D02*
X012541Y017813D01*
X012541Y017735D02*
X013509Y017735D01*
X013647Y017421D02*
X014761Y017421D01*
X014761Y017342D02*
X013568Y017342D01*
X013490Y017264D02*
X014794Y017264D01*
X015519Y017185D02*
X013411Y017185D01*
X013333Y017106D02*
X015519Y017106D01*
X015519Y017028D02*
X013254Y017028D01*
X013176Y016949D02*
X015519Y016949D01*
X015527Y016871D02*
X013097Y016871D01*
X013019Y016792D02*
X015552Y016792D01*
X015576Y016714D02*
X012940Y016714D01*
X011981Y015771D02*
X011957Y015771D01*
X011681Y015771D02*
X011601Y015771D01*
X011601Y015693D02*
X011681Y015693D01*
X011681Y015614D02*
X011601Y015614D01*
X011601Y015536D02*
X011681Y015536D01*
X012301Y015064D02*
X012316Y015064D01*
X012305Y014986D02*
X012301Y014986D01*
X012141Y014766D02*
X012141Y014306D01*
X012038Y014204D01*
X010329Y014204D01*
X010224Y014099D01*
X010224Y013913D01*
X010027Y013913D02*
X010027Y014192D01*
X010641Y014806D01*
X011641Y014806D01*
X011305Y014593D02*
X010978Y014593D01*
X010932Y014515D02*
X011350Y014515D01*
X012301Y014515D02*
X012350Y014515D01*
X012305Y014593D02*
X012301Y014593D01*
X010201Y014593D02*
X009978Y014593D01*
X009932Y014515D02*
X010123Y014515D01*
X010044Y014436D02*
X009412Y014436D01*
X009334Y014357D02*
X009966Y014357D01*
X009887Y014279D02*
X009255Y014279D01*
X009141Y014391D02*
X009556Y014806D01*
X009641Y014806D01*
X009305Y014829D02*
X008978Y014829D01*
X008978Y014907D02*
X009305Y014907D01*
X009305Y014986D02*
X008978Y014986D01*
X008966Y015064D02*
X009316Y015064D01*
X009312Y015221D02*
X008970Y015221D01*
X008978Y015300D02*
X009305Y015300D01*
X009305Y015379D02*
X008978Y015379D01*
X008978Y015457D02*
X009305Y015457D01*
X009305Y015536D02*
X008978Y015536D01*
X009006Y015614D02*
X009305Y015614D01*
X009305Y015693D02*
X009084Y015693D01*
X009163Y015771D02*
X009354Y015771D01*
X009241Y015850D02*
X009481Y015850D01*
X009481Y015928D02*
X009320Y015928D01*
X009398Y016007D02*
X009481Y016007D01*
X009477Y016085D02*
X009481Y016085D01*
X009641Y016141D02*
X009641Y015476D01*
X009641Y016141D02*
X009897Y016397D01*
X009897Y017115D01*
X010153Y017115D02*
X010153Y016129D01*
X009641Y016476D02*
X009641Y017115D01*
X009129Y017106D02*
X009129Y017106D01*
X009129Y017028D02*
X009129Y017028D01*
X009129Y016949D02*
X009129Y016949D01*
X009129Y016871D02*
X009129Y016871D01*
X009129Y016792D02*
X009129Y016792D01*
X009129Y016714D02*
X009129Y016714D01*
X009129Y016635D02*
X009129Y016635D01*
X009129Y016557D02*
X009129Y016557D01*
X009339Y016400D02*
X007301Y016400D01*
X007301Y016321D02*
X009260Y016321D01*
X009182Y016242D02*
X007301Y016242D01*
X007301Y016164D02*
X009103Y016164D01*
X009025Y016085D02*
X007301Y016085D01*
X007301Y016007D02*
X008946Y016007D01*
X008867Y015928D02*
X007301Y015928D01*
X007301Y015850D02*
X008789Y015850D01*
X008354Y015771D02*
X007929Y015771D01*
X007978Y015693D02*
X008305Y015693D01*
X008305Y015300D02*
X007978Y015300D01*
X007970Y015221D02*
X008312Y015221D01*
X008316Y015064D02*
X007966Y015064D01*
X007978Y014986D02*
X008305Y014986D01*
X008305Y014907D02*
X007978Y014907D01*
X007978Y014829D02*
X008305Y014829D01*
X008305Y014750D02*
X007978Y014750D01*
X007978Y014672D02*
X008039Y014672D01*
X008244Y014672D02*
X008305Y014672D01*
X008641Y014806D02*
X008649Y014799D01*
X008649Y013913D01*
X008846Y013913D02*
X008846Y014346D01*
X008891Y014391D01*
X009141Y014391D01*
X009117Y014593D02*
X008978Y014593D01*
X008978Y014672D02*
X009195Y014672D01*
X009274Y014750D02*
X008978Y014750D01*
X008452Y014330D02*
X008391Y014391D01*
X008141Y014391D01*
X008452Y014330D02*
X008452Y013913D01*
X008452Y013330D01*
X008516Y013266D01*
X008891Y013266D01*
X009043Y013418D01*
X009043Y013913D01*
X009240Y013913D02*
X009240Y013365D01*
X008954Y013079D01*
X008954Y012891D01*
X008741Y013101D02*
X008218Y013101D01*
X008218Y013179D02*
X008377Y013179D01*
X008298Y013258D02*
X008218Y013258D01*
X008218Y013336D02*
X008292Y013336D01*
X008292Y013415D02*
X008218Y013415D01*
X008218Y013493D02*
X008292Y013493D01*
X008292Y013572D02*
X008218Y013572D01*
X008255Y013651D02*
X008255Y013651D01*
X008255Y013729D02*
X008255Y013729D01*
X008255Y013808D02*
X008255Y013808D01*
X008255Y013886D02*
X008255Y013886D01*
X007641Y014266D02*
X007641Y014806D01*
X007350Y014515D02*
X007301Y014515D01*
X007301Y014593D02*
X007305Y014593D01*
X007301Y014672D02*
X007305Y014672D01*
X007301Y014750D02*
X007305Y014750D01*
X007301Y014436D02*
X007389Y014436D01*
X007356Y014357D02*
X007301Y014357D01*
X007301Y014279D02*
X007343Y014279D01*
X007345Y014200D02*
X007308Y014200D01*
X006618Y013415D02*
X001641Y013415D01*
X001563Y013336D02*
X002610Y013336D01*
X002532Y013258D02*
X001484Y013258D01*
X001406Y013179D02*
X002453Y013179D01*
X002374Y013101D02*
X001327Y013101D01*
X001248Y013022D02*
X002296Y013022D01*
X002231Y012944D02*
X001170Y012944D01*
X001091Y012865D02*
X002231Y012865D01*
X002231Y012787D02*
X001051Y012787D01*
X001051Y012708D02*
X002231Y012708D01*
X002391Y012891D02*
X002391Y011891D01*
X002551Y012394D02*
X002830Y012394D01*
X002826Y012398D02*
X002852Y012372D01*
X002884Y012353D01*
X002920Y012344D01*
X003057Y012344D01*
X003057Y012602D01*
X003135Y012602D01*
X003135Y012680D01*
X003393Y012680D01*
X003393Y012817D01*
X003384Y012853D01*
X003365Y012885D01*
X003339Y012911D01*
X003307Y012929D01*
X003272Y012939D01*
X003135Y012939D01*
X003135Y012680D01*
X003057Y012680D01*
X003057Y012939D01*
X002920Y012939D01*
X002884Y012929D01*
X002852Y012911D01*
X002826Y012885D01*
X002808Y012853D01*
X002798Y012817D01*
X002798Y012680D01*
X003057Y012680D01*
X003057Y012602D01*
X002798Y012602D01*
X002798Y012465D01*
X002808Y012430D01*
X002826Y012398D01*
X002798Y012472D02*
X002551Y012472D01*
X002551Y012551D02*
X002798Y012551D01*
X002798Y012708D02*
X002551Y012708D01*
X002551Y012629D02*
X003057Y012629D01*
X003135Y012629D02*
X003409Y012629D01*
X003393Y012602D02*
X003135Y012602D01*
X003135Y012344D01*
X003272Y012344D01*
X003307Y012353D01*
X003339Y012372D01*
X003365Y012398D01*
X003384Y012430D01*
X003393Y012465D01*
X003393Y012602D01*
X003393Y012551D02*
X003409Y012551D01*
X003409Y012472D02*
X003393Y012472D01*
X003362Y012394D02*
X003449Y012394D01*
X003135Y012394D02*
X003057Y012394D01*
X003057Y012472D02*
X003135Y012472D01*
X003135Y012551D02*
X003057Y012551D01*
X003057Y012708D02*
X003135Y012708D01*
X003135Y012787D02*
X003057Y012787D01*
X003057Y012865D02*
X003135Y012865D01*
X003377Y012865D02*
X003426Y012865D01*
X003409Y012787D02*
X003393Y012787D01*
X003393Y012708D02*
X003409Y012708D01*
X003686Y012641D02*
X004306Y012641D01*
X003990Y012472D02*
X003964Y012472D01*
X003990Y012394D02*
X003924Y012394D01*
X003947Y012865D02*
X003990Y012865D01*
X004026Y012944D02*
X002670Y012944D01*
X002748Y013022D02*
X006588Y013022D01*
X006829Y013204D02*
X002704Y013204D01*
X002391Y012891D01*
X002551Y012787D02*
X002798Y012787D01*
X002815Y012865D02*
X002591Y012865D01*
X003386Y011844D02*
X003409Y011844D01*
X003409Y011766D02*
X003393Y011766D01*
X003393Y011687D02*
X003409Y011687D01*
X005391Y011226D02*
X005391Y011141D01*
X006484Y012633D02*
X006476Y012641D01*
X006484Y012633D02*
X007369Y012633D01*
X008399Y012633D01*
X008550Y012708D02*
X008715Y012708D01*
X008674Y012787D02*
X008472Y012787D01*
X008393Y012865D02*
X008655Y012865D01*
X008655Y012944D02*
X008315Y012944D01*
X008236Y013022D02*
X008685Y013022D01*
X008629Y012629D02*
X008805Y012629D01*
X008707Y012551D02*
X009325Y012551D01*
X009391Y013079D02*
X009436Y013124D01*
X009436Y013913D01*
X008596Y012436D02*
X007369Y012436D01*
X007686Y012237D02*
X008569Y012237D01*
X007369Y011255D02*
X007369Y011255D01*
X006800Y010902D02*
X006798Y010902D01*
X007833Y009016D02*
X007981Y009016D01*
X007919Y008938D02*
X007833Y008938D01*
X007833Y008859D02*
X007919Y008859D01*
X005846Y012708D02*
X005766Y012708D01*
X005766Y012681D02*
X005766Y012978D01*
X005571Y012978D01*
X005536Y012968D01*
X005504Y012950D01*
X005478Y012924D01*
X005459Y012892D01*
X005450Y012856D01*
X005450Y012681D01*
X005766Y012681D01*
X005766Y012787D02*
X005846Y012787D01*
X005846Y012865D02*
X005766Y012865D01*
X005766Y012944D02*
X005846Y012944D01*
X006115Y012944D02*
X006195Y012944D01*
X006829Y013204D02*
X006849Y013224D01*
X007369Y013224D01*
X006350Y014515D02*
X005956Y014515D01*
X005978Y014593D02*
X006324Y014593D01*
X006324Y014672D02*
X005978Y014672D01*
X005978Y014750D02*
X006324Y014750D01*
X005498Y012944D02*
X005256Y012944D01*
X005293Y012865D02*
X005452Y012865D01*
X005450Y012787D02*
X005293Y012787D01*
X005293Y012708D02*
X005450Y012708D01*
X003200Y014200D02*
X000281Y014200D01*
X000281Y014279D02*
X003200Y014279D01*
X003200Y014357D02*
X000281Y014357D01*
X000281Y015221D02*
X004096Y015221D01*
X004049Y015300D02*
X000281Y015300D01*
X000281Y015379D02*
X004049Y015379D01*
X004049Y015457D02*
X000281Y015457D01*
X002996Y018520D02*
X008174Y018520D01*
X008155Y018495D02*
X008124Y018434D01*
X008103Y018368D01*
X008093Y018306D01*
X008489Y018306D01*
X008489Y018285D02*
X003292Y018285D01*
X003219Y018363D02*
X008102Y018363D01*
X008128Y018442D02*
X003132Y018442D01*
X003164Y018423D02*
X003164Y018423D01*
X003365Y018206D02*
X008096Y018206D01*
X008155Y018495D02*
X008196Y018551D01*
X008244Y018599D01*
X009213Y018756D02*
X002354Y018756D01*
X008931Y017656D02*
X008951Y017656D01*
X009129Y017656D02*
X009129Y017656D01*
X009129Y017578D02*
X009129Y017578D01*
X009129Y017499D02*
X009129Y017499D01*
X009129Y017421D02*
X009129Y017421D01*
X009129Y017342D02*
X009129Y017342D01*
X009129Y017264D02*
X009129Y017264D01*
X009129Y017185D02*
X009129Y017185D01*
X010302Y017656D02*
X010351Y017656D01*
X010353Y018442D02*
X010135Y018442D01*
X010135Y018520D02*
X010398Y018520D01*
X010468Y018599D02*
X010135Y018599D01*
X017821Y012080D02*
X018024Y012080D01*
X017865Y012001D02*
X017821Y012001D01*
X018417Y012001D02*
X018461Y012001D01*
X018461Y012237D02*
X018383Y012237D01*
X013916Y005482D02*
X013366Y005482D01*
X013444Y005404D02*
X013838Y005404D01*
X013759Y005325D02*
X013523Y005325D01*
X013541Y005246D02*
X013741Y005246D01*
X013741Y005168D02*
X013541Y005168D01*
X013541Y005089D02*
X013741Y005089D01*
X013741Y005011D02*
X013541Y005011D01*
X013498Y004932D02*
X013784Y004932D01*
X013863Y004854D02*
X013419Y004854D01*
X013341Y004775D02*
X013941Y004775D01*
X009961Y003361D02*
X009821Y003361D01*
X009821Y003283D02*
X009961Y003283D01*
X009917Y003204D02*
X009866Y003204D01*
X009889Y003126D02*
X009893Y003126D01*
X009889Y003047D02*
X009893Y003047D01*
X009889Y002969D02*
X009893Y002969D01*
X009889Y002890D02*
X009893Y002890D01*
X009889Y002812D02*
X009893Y002812D01*
X009889Y002733D02*
X009893Y002733D01*
X009889Y002654D02*
X009893Y002654D01*
X009889Y002576D02*
X009893Y002576D01*
X009889Y002497D02*
X009893Y002497D01*
X009889Y002419D02*
X009893Y002419D01*
X009889Y002340D02*
X009893Y002340D01*
X009889Y002262D02*
X009893Y002262D01*
X009889Y002183D02*
X009893Y002183D01*
X009889Y002105D02*
X009893Y002105D01*
X009925Y002026D02*
X009857Y002026D01*
X009848Y001791D02*
X009959Y001791D01*
X009920Y003440D02*
X009821Y003440D01*
X009821Y003518D02*
X009869Y003518D01*
X001421Y009723D02*
X000281Y009723D01*
X000281Y009802D02*
X001316Y009802D01*
X001240Y009880D02*
X000281Y009880D01*
X000281Y009959D02*
X001208Y009959D01*
X001175Y010038D02*
X000281Y010038D01*
X000281Y010116D02*
X001171Y010116D01*
X001171Y010195D02*
X000281Y010195D01*
X000281Y010273D02*
X001187Y010273D01*
X001204Y010352D02*
X000281Y010352D01*
X000281Y010430D02*
X001126Y010430D01*
X001047Y010509D02*
X000281Y010509D01*
X000281Y010587D02*
X000969Y010587D01*
X000890Y010666D02*
X000281Y010666D01*
X000281Y010744D02*
X000811Y010744D01*
X000733Y010823D02*
X000281Y010823D01*
X000281Y010902D02*
X000731Y010902D01*
X000731Y010980D02*
X000281Y010980D01*
X000281Y011059D02*
X000731Y011059D01*
X000731Y011137D02*
X000281Y011137D01*
X001421Y010587D02*
X001490Y010587D01*
D31*
X004226Y014141D02*
X006391Y014141D01*
X006641Y014391D01*
X006641Y014806D01*
X005641Y015476D02*
X005306Y015476D01*
X005266Y015516D01*
X005266Y016141D01*
X005266Y015516D02*
X005266Y015391D01*
X005260Y015397D01*
X004966Y015397D01*
X005266Y015391D02*
X005266Y014954D01*
X005204Y014891D01*
X004972Y014891D01*
X004966Y014885D01*
X004316Y014885D02*
X004316Y014151D01*
X004226Y014141D01*
X008141Y006891D02*
X007641Y006391D01*
X007641Y003391D01*
X007056Y002806D01*
X006641Y002806D01*
X006641Y002391D01*
X005766Y002391D01*
X005641Y002516D01*
X005641Y002806D01*
X006641Y002391D02*
X006641Y001976D01*
X006641Y001306D02*
X005476Y001306D01*
X005141Y001641D01*
X005141Y005141D01*
X005141Y006141D01*
X008141Y005141D02*
X008141Y004141D01*
X008641Y003641D01*
X008641Y002619D01*
X009141Y002619D02*
X009141Y005141D01*
X009641Y003641D02*
X009641Y002619D01*
X010141Y002619D02*
X010141Y003641D01*
X009641Y003641D02*
X011141Y005141D01*
X012141Y005141D02*
X010641Y003641D01*
X010641Y002619D01*
X008641Y001163D02*
X007619Y001163D01*
X007476Y001306D01*
X006641Y001306D01*
X016641Y007141D02*
X016641Y008641D01*
X017141Y009141D02*
X017141Y008141D01*
X017641Y007641D01*
X018141Y007641D01*
X017891Y008141D02*
X018391Y008141D01*
X018641Y007891D01*
X018641Y007141D01*
X018141Y006641D01*
X018141Y005641D02*
X016641Y007141D01*
X017891Y008141D02*
X017391Y008641D01*
X017391Y010891D01*
X016641Y011641D01*
X016641Y012641D02*
X017141Y012641D01*
X017641Y012141D01*
X017641Y011141D01*
X018141Y010641D01*
X018641Y009141D02*
X018641Y012891D01*
X018391Y013141D01*
X017641Y013141D01*
X017141Y013641D01*
X016641Y013641D01*
X016641Y009641D02*
X017141Y009141D01*
X018141Y008641D02*
X018641Y009141D01*
D32*
X016641Y008641D02*
X016391Y008641D01*
X015244Y009788D01*
X014766Y009788D01*
X014766Y010266D01*
X014641Y010391D01*
X014793Y010543D01*
X014793Y010992D01*
X014281Y010992D02*
X014281Y011281D01*
X014641Y011641D01*
X015141Y011641D01*
X015391Y012141D02*
X015891Y011641D01*
X016641Y011641D01*
X015391Y012141D02*
X014141Y012141D01*
X013257Y011257D01*
X013257Y010992D01*
X013257Y009257D01*
X011141Y007141D01*
X009391Y007141D01*
X008641Y006391D01*
X008641Y005641D01*
X008141Y005141D01*
X009141Y005141D02*
X009641Y005641D01*
X010391Y005641D01*
X010641Y005891D01*
X010641Y006391D01*
X011141Y006891D01*
X011391Y006891D01*
X012891Y008391D01*
X013513Y009013D01*
X013513Y010992D01*
X013769Y010992D02*
X013769Y011269D01*
X014141Y011641D01*
X014025Y010992D02*
X014025Y008525D01*
X013891Y008391D01*
X013769Y008769D02*
X011641Y006641D01*
X011641Y005641D01*
X011141Y005141D01*
X012141Y005141D02*
X012641Y005641D01*
X012641Y006641D01*
X014281Y008281D01*
X014281Y010992D01*
X013769Y010992D02*
X013769Y008769D01*
X012641Y009141D02*
X010891Y007391D01*
X006391Y007391D01*
X005141Y006141D01*
X012641Y009141D02*
X012641Y010391D01*
X012745Y010495D01*
X012745Y010992D01*
X013891Y014141D02*
X013891Y014747D01*
X013458Y015476D02*
X013517Y015535D01*
X013458Y015476D02*
X012641Y015476D01*
M02*
