G75*
G70*
%OFA0B0*%
%FSLAX24Y24*%
%IPPOS*%
%LPD*%
%AMOC8*
5,1,8,0,0,1.08239X$1,22.5*
%
%ADD10C,0.0000*%
%ADD11C,0.0297*%
%ADD12C,0.0674*%
%ADD13R,0.0780X0.0780*%
%ADD14C,0.0780*%
%ADD15C,0.0740*%
%ADD16OC8,0.0640*%
%ADD17C,0.1340*%
D10*
X000141Y002141D02*
X000141Y017141D01*
X001511Y017141D02*
X001513Y017191D01*
X001519Y017241D01*
X001529Y017290D01*
X001543Y017338D01*
X001560Y017385D01*
X001581Y017430D01*
X001606Y017474D01*
X001634Y017515D01*
X001666Y017554D01*
X001700Y017591D01*
X001737Y017625D01*
X001777Y017655D01*
X001819Y017682D01*
X001863Y017706D01*
X001909Y017727D01*
X001956Y017743D01*
X002004Y017756D01*
X002054Y017765D01*
X002103Y017770D01*
X002154Y017771D01*
X002204Y017768D01*
X002253Y017761D01*
X002302Y017750D01*
X002350Y017735D01*
X002396Y017717D01*
X002441Y017695D01*
X002484Y017669D01*
X002525Y017640D01*
X002564Y017608D01*
X002600Y017573D01*
X002632Y017535D01*
X002662Y017495D01*
X002689Y017452D01*
X002712Y017408D01*
X002731Y017362D01*
X002747Y017314D01*
X002759Y017265D01*
X002767Y017216D01*
X002771Y017166D01*
X002771Y017116D01*
X002767Y017066D01*
X002759Y017017D01*
X002747Y016968D01*
X002731Y016920D01*
X002712Y016874D01*
X002689Y016830D01*
X002662Y016787D01*
X002632Y016747D01*
X002600Y016709D01*
X002564Y016674D01*
X002525Y016642D01*
X002484Y016613D01*
X002441Y016587D01*
X002396Y016565D01*
X002350Y016547D01*
X002302Y016532D01*
X002253Y016521D01*
X002204Y016514D01*
X002154Y016511D01*
X002103Y016512D01*
X002054Y016517D01*
X002004Y016526D01*
X001956Y016539D01*
X001909Y016555D01*
X001863Y016576D01*
X001819Y016600D01*
X001777Y016627D01*
X001737Y016657D01*
X001700Y016691D01*
X001666Y016728D01*
X001634Y016767D01*
X001606Y016808D01*
X001581Y016852D01*
X001560Y016897D01*
X001543Y016944D01*
X001529Y016992D01*
X001519Y017041D01*
X001513Y017091D01*
X001511Y017141D01*
X000141Y017141D02*
X000143Y017236D01*
X000150Y017331D01*
X000161Y017426D01*
X000177Y017520D01*
X000197Y017613D01*
X000222Y017704D01*
X000251Y017795D01*
X000284Y017884D01*
X000322Y017972D01*
X000363Y018057D01*
X000409Y018141D01*
X000458Y018222D01*
X000512Y018301D01*
X000569Y018377D01*
X000630Y018451D01*
X000694Y018521D01*
X000761Y018588D01*
X000831Y018652D01*
X000905Y018713D01*
X000981Y018770D01*
X001060Y018824D01*
X001141Y018873D01*
X001225Y018919D01*
X001310Y018960D01*
X001398Y018998D01*
X001487Y019031D01*
X001578Y019060D01*
X001669Y019085D01*
X001762Y019105D01*
X001856Y019121D01*
X001951Y019132D01*
X002046Y019139D01*
X002141Y019141D01*
X017141Y019141D01*
X016511Y017141D02*
X016513Y017191D01*
X016519Y017241D01*
X016529Y017290D01*
X016543Y017338D01*
X016560Y017385D01*
X016581Y017430D01*
X016606Y017474D01*
X016634Y017515D01*
X016666Y017554D01*
X016700Y017591D01*
X016737Y017625D01*
X016777Y017655D01*
X016819Y017682D01*
X016863Y017706D01*
X016909Y017727D01*
X016956Y017743D01*
X017004Y017756D01*
X017054Y017765D01*
X017103Y017770D01*
X017154Y017771D01*
X017204Y017768D01*
X017253Y017761D01*
X017302Y017750D01*
X017350Y017735D01*
X017396Y017717D01*
X017441Y017695D01*
X017484Y017669D01*
X017525Y017640D01*
X017564Y017608D01*
X017600Y017573D01*
X017632Y017535D01*
X017662Y017495D01*
X017689Y017452D01*
X017712Y017408D01*
X017731Y017362D01*
X017747Y017314D01*
X017759Y017265D01*
X017767Y017216D01*
X017771Y017166D01*
X017771Y017116D01*
X017767Y017066D01*
X017759Y017017D01*
X017747Y016968D01*
X017731Y016920D01*
X017712Y016874D01*
X017689Y016830D01*
X017662Y016787D01*
X017632Y016747D01*
X017600Y016709D01*
X017564Y016674D01*
X017525Y016642D01*
X017484Y016613D01*
X017441Y016587D01*
X017396Y016565D01*
X017350Y016547D01*
X017302Y016532D01*
X017253Y016521D01*
X017204Y016514D01*
X017154Y016511D01*
X017103Y016512D01*
X017054Y016517D01*
X017004Y016526D01*
X016956Y016539D01*
X016909Y016555D01*
X016863Y016576D01*
X016819Y016600D01*
X016777Y016627D01*
X016737Y016657D01*
X016700Y016691D01*
X016666Y016728D01*
X016634Y016767D01*
X016606Y016808D01*
X016581Y016852D01*
X016560Y016897D01*
X016543Y016944D01*
X016529Y016992D01*
X016519Y017041D01*
X016513Y017091D01*
X016511Y017141D01*
X017141Y019141D02*
X017236Y019139D01*
X017331Y019132D01*
X017426Y019121D01*
X017520Y019105D01*
X017613Y019085D01*
X017704Y019060D01*
X017795Y019031D01*
X017884Y018998D01*
X017972Y018960D01*
X018057Y018919D01*
X018141Y018873D01*
X018222Y018824D01*
X018301Y018770D01*
X018377Y018713D01*
X018451Y018652D01*
X018521Y018588D01*
X018588Y018521D01*
X018652Y018451D01*
X018713Y018377D01*
X018770Y018301D01*
X018824Y018222D01*
X018873Y018141D01*
X018919Y018057D01*
X018960Y017972D01*
X018998Y017884D01*
X019031Y017795D01*
X019060Y017704D01*
X019085Y017613D01*
X019105Y017520D01*
X019121Y017426D01*
X019132Y017331D01*
X019139Y017236D01*
X019141Y017141D01*
X019141Y002141D01*
X016511Y002141D02*
X016513Y002191D01*
X016519Y002241D01*
X016529Y002290D01*
X016543Y002338D01*
X016560Y002385D01*
X016581Y002430D01*
X016606Y002474D01*
X016634Y002515D01*
X016666Y002554D01*
X016700Y002591D01*
X016737Y002625D01*
X016777Y002655D01*
X016819Y002682D01*
X016863Y002706D01*
X016909Y002727D01*
X016956Y002743D01*
X017004Y002756D01*
X017054Y002765D01*
X017103Y002770D01*
X017154Y002771D01*
X017204Y002768D01*
X017253Y002761D01*
X017302Y002750D01*
X017350Y002735D01*
X017396Y002717D01*
X017441Y002695D01*
X017484Y002669D01*
X017525Y002640D01*
X017564Y002608D01*
X017600Y002573D01*
X017632Y002535D01*
X017662Y002495D01*
X017689Y002452D01*
X017712Y002408D01*
X017731Y002362D01*
X017747Y002314D01*
X017759Y002265D01*
X017767Y002216D01*
X017771Y002166D01*
X017771Y002116D01*
X017767Y002066D01*
X017759Y002017D01*
X017747Y001968D01*
X017731Y001920D01*
X017712Y001874D01*
X017689Y001830D01*
X017662Y001787D01*
X017632Y001747D01*
X017600Y001709D01*
X017564Y001674D01*
X017525Y001642D01*
X017484Y001613D01*
X017441Y001587D01*
X017396Y001565D01*
X017350Y001547D01*
X017302Y001532D01*
X017253Y001521D01*
X017204Y001514D01*
X017154Y001511D01*
X017103Y001512D01*
X017054Y001517D01*
X017004Y001526D01*
X016956Y001539D01*
X016909Y001555D01*
X016863Y001576D01*
X016819Y001600D01*
X016777Y001627D01*
X016737Y001657D01*
X016700Y001691D01*
X016666Y001728D01*
X016634Y001767D01*
X016606Y001808D01*
X016581Y001852D01*
X016560Y001897D01*
X016543Y001944D01*
X016529Y001992D01*
X016519Y002041D01*
X016513Y002091D01*
X016511Y002141D01*
X017141Y000141D02*
X017236Y000143D01*
X017331Y000150D01*
X017426Y000161D01*
X017520Y000177D01*
X017613Y000197D01*
X017704Y000222D01*
X017795Y000251D01*
X017884Y000284D01*
X017972Y000322D01*
X018057Y000363D01*
X018141Y000409D01*
X018222Y000458D01*
X018301Y000512D01*
X018377Y000569D01*
X018451Y000630D01*
X018521Y000694D01*
X018588Y000761D01*
X018652Y000831D01*
X018713Y000905D01*
X018770Y000981D01*
X018824Y001060D01*
X018873Y001141D01*
X018919Y001225D01*
X018960Y001310D01*
X018998Y001398D01*
X019031Y001487D01*
X019060Y001578D01*
X019085Y001669D01*
X019105Y001762D01*
X019121Y001856D01*
X019132Y001951D01*
X019139Y002046D01*
X019141Y002141D01*
X017141Y000141D02*
X002141Y000141D01*
X001511Y002141D02*
X001513Y002191D01*
X001519Y002241D01*
X001529Y002290D01*
X001543Y002338D01*
X001560Y002385D01*
X001581Y002430D01*
X001606Y002474D01*
X001634Y002515D01*
X001666Y002554D01*
X001700Y002591D01*
X001737Y002625D01*
X001777Y002655D01*
X001819Y002682D01*
X001863Y002706D01*
X001909Y002727D01*
X001956Y002743D01*
X002004Y002756D01*
X002054Y002765D01*
X002103Y002770D01*
X002154Y002771D01*
X002204Y002768D01*
X002253Y002761D01*
X002302Y002750D01*
X002350Y002735D01*
X002396Y002717D01*
X002441Y002695D01*
X002484Y002669D01*
X002525Y002640D01*
X002564Y002608D01*
X002600Y002573D01*
X002632Y002535D01*
X002662Y002495D01*
X002689Y002452D01*
X002712Y002408D01*
X002731Y002362D01*
X002747Y002314D01*
X002759Y002265D01*
X002767Y002216D01*
X002771Y002166D01*
X002771Y002116D01*
X002767Y002066D01*
X002759Y002017D01*
X002747Y001968D01*
X002731Y001920D01*
X002712Y001874D01*
X002689Y001830D01*
X002662Y001787D01*
X002632Y001747D01*
X002600Y001709D01*
X002564Y001674D01*
X002525Y001642D01*
X002484Y001613D01*
X002441Y001587D01*
X002396Y001565D01*
X002350Y001547D01*
X002302Y001532D01*
X002253Y001521D01*
X002204Y001514D01*
X002154Y001511D01*
X002103Y001512D01*
X002054Y001517D01*
X002004Y001526D01*
X001956Y001539D01*
X001909Y001555D01*
X001863Y001576D01*
X001819Y001600D01*
X001777Y001627D01*
X001737Y001657D01*
X001700Y001691D01*
X001666Y001728D01*
X001634Y001767D01*
X001606Y001808D01*
X001581Y001852D01*
X001560Y001897D01*
X001543Y001944D01*
X001529Y001992D01*
X001519Y002041D01*
X001513Y002091D01*
X001511Y002141D01*
X000141Y002141D02*
X000143Y002046D01*
X000150Y001951D01*
X000161Y001856D01*
X000177Y001762D01*
X000197Y001669D01*
X000222Y001578D01*
X000251Y001487D01*
X000284Y001398D01*
X000322Y001310D01*
X000363Y001225D01*
X000409Y001141D01*
X000458Y001060D01*
X000512Y000981D01*
X000569Y000905D01*
X000630Y000831D01*
X000694Y000761D01*
X000761Y000694D01*
X000831Y000630D01*
X000905Y000569D01*
X000981Y000512D01*
X001060Y000458D01*
X001141Y000409D01*
X001225Y000363D01*
X001310Y000322D01*
X001398Y000284D01*
X001487Y000251D01*
X001578Y000222D01*
X001669Y000197D01*
X001762Y000177D01*
X001856Y000161D01*
X001951Y000150D01*
X002046Y000143D01*
X002141Y000141D01*
X008746Y017420D02*
X008748Y017440D01*
X008754Y017460D01*
X008763Y017478D01*
X008776Y017495D01*
X008791Y017508D01*
X008809Y017518D01*
X008829Y017525D01*
X008849Y017528D01*
X008869Y017527D01*
X008889Y017522D01*
X008908Y017514D01*
X008925Y017502D01*
X008939Y017487D01*
X008950Y017469D01*
X008958Y017450D01*
X008962Y017430D01*
X008962Y017410D01*
X008958Y017390D01*
X008950Y017371D01*
X008939Y017353D01*
X008925Y017338D01*
X008908Y017326D01*
X008889Y017318D01*
X008869Y017313D01*
X008849Y017312D01*
X008829Y017315D01*
X008809Y017322D01*
X008791Y017332D01*
X008776Y017345D01*
X008763Y017362D01*
X008754Y017380D01*
X008748Y017400D01*
X008746Y017420D01*
X010321Y017420D02*
X010323Y017440D01*
X010329Y017460D01*
X010338Y017478D01*
X010351Y017495D01*
X010366Y017508D01*
X010384Y017518D01*
X010404Y017525D01*
X010424Y017528D01*
X010444Y017527D01*
X010464Y017522D01*
X010483Y017514D01*
X010500Y017502D01*
X010514Y017487D01*
X010525Y017469D01*
X010533Y017450D01*
X010537Y017430D01*
X010537Y017410D01*
X010533Y017390D01*
X010525Y017371D01*
X010514Y017353D01*
X010500Y017338D01*
X010483Y017326D01*
X010464Y017318D01*
X010444Y017313D01*
X010424Y017312D01*
X010404Y017315D01*
X010384Y017322D01*
X010366Y017332D01*
X010351Y017345D01*
X010338Y017362D01*
X010329Y017380D01*
X010323Y017400D01*
X010321Y017420D01*
D11*
X010429Y017420D03*
X008854Y017420D03*
D12*
X008529Y018266D03*
X010753Y018266D03*
D13*
X001641Y007141D03*
D14*
X001641Y008141D03*
X001641Y009141D03*
X001641Y010141D03*
X001641Y011141D03*
X001641Y012141D03*
D15*
X016641Y011641D03*
X016641Y010641D03*
X016641Y009641D03*
X016641Y008641D03*
X018141Y008641D03*
X018141Y007641D03*
X018141Y006641D03*
X018141Y005641D03*
X018141Y009641D03*
X018141Y010641D03*
X018141Y011641D03*
X018141Y012641D03*
X018141Y013641D03*
X016641Y013641D03*
X016641Y012641D03*
D16*
X014141Y006141D03*
X014141Y005141D03*
X013141Y005141D03*
X013141Y006141D03*
X012141Y006141D03*
X012141Y005141D03*
X011141Y005141D03*
X010141Y005141D03*
X009141Y005141D03*
X008141Y005141D03*
X007141Y005141D03*
X007141Y006141D03*
X008141Y006141D03*
X009141Y006141D03*
X010141Y006141D03*
X011141Y006141D03*
X006141Y006141D03*
X006141Y005141D03*
X005141Y005141D03*
X005141Y006141D03*
D17*
X002141Y002141D03*
X002141Y017141D03*
X017141Y017141D03*
X017141Y002141D03*
M02*
