%
M48
M72
T01C0.0197
T02C0.0217
T03C0.0360
T04C0.0394
T05C0.1260
%
T01
X5266Y16141
X6141Y15641
X7641Y14266
X8141Y14391
X9391Y13079
X8954Y12891
X9704Y12204
X9954Y11829
X9954Y11329
X10391Y10891
X9266Y11016
X8016Y11516
X6891Y12141
X6829Y13204
X6891Y13766
X5391Y12141
X5391Y11141
X5391Y10141
X8141Y6891
X10141Y3641
X12891Y8391
X13891Y8391
X14641Y10391
X14141Y11641
X15141Y11641
X13249Y12697
X12881Y12452
X12141Y12766
X12146Y11840
X11656Y11656
X12641Y10391
X10016Y12579
X9891Y13391
X10141Y16141
X8641Y16579
X12641Y13766
X13391Y14141
X13891Y14141
X12891Y16391
T02
X8854Y17420
X10429Y17420
T03
X10141Y6141
X10141Y5141
X9141Y5141
X8141Y5141
X7141Y5141
X7141Y6141
X8141Y6141
X9141Y6141
X11141Y6141
X11141Y5141
X12141Y5141
X12141Y6141
X13141Y6141
X13141Y5141
X14141Y5141
X14141Y6141
X6141Y6141
X6141Y5141
X5141Y5141
X5141Y6141
T04
X1641Y7141
X1641Y8141
X1641Y9141
X1641Y10141
X1641Y11141
X1641Y12141
X8529Y18266
X10753Y18266
X16641Y13641
X16641Y12641
X16641Y11641
X16641Y10641
X16641Y9641
X16641Y8641
X18141Y8641
X18141Y7641
X18141Y6641
X18141Y5641
X18141Y9641
X18141Y10641
X18141Y11641
X18141Y12641
X18141Y13641
T05
X2141Y2141
X17141Y2141
X17141Y17141
X2141Y17141
M30
