G75*
G70*
%OFA0B0*%
%FSLAX24Y24*%
%IPPOS*%
%LPD*%
%AMOC8*
5,1,8,0,0,1.08239X$1,22.5*
%
%ADD10C,0.0000*%
%ADD11C,0.0080*%
%ADD12C,0.0100*%
%ADD13C,0.0060*%
%ADD14C,0.0050*%
%ADD15R,0.0118X0.0059*%
%ADD16R,0.0118X0.0118*%
%ADD17C,0.0020*%
%ADD18C,0.0040*%
D10*
X000141Y002141D02*
X000141Y017141D01*
X001511Y017141D02*
X001513Y017191D01*
X001519Y017241D01*
X001529Y017290D01*
X001543Y017338D01*
X001560Y017385D01*
X001581Y017430D01*
X001606Y017474D01*
X001634Y017515D01*
X001666Y017554D01*
X001700Y017591D01*
X001737Y017625D01*
X001777Y017655D01*
X001819Y017682D01*
X001863Y017706D01*
X001909Y017727D01*
X001956Y017743D01*
X002004Y017756D01*
X002054Y017765D01*
X002103Y017770D01*
X002154Y017771D01*
X002204Y017768D01*
X002253Y017761D01*
X002302Y017750D01*
X002350Y017735D01*
X002396Y017717D01*
X002441Y017695D01*
X002484Y017669D01*
X002525Y017640D01*
X002564Y017608D01*
X002600Y017573D01*
X002632Y017535D01*
X002662Y017495D01*
X002689Y017452D01*
X002712Y017408D01*
X002731Y017362D01*
X002747Y017314D01*
X002759Y017265D01*
X002767Y017216D01*
X002771Y017166D01*
X002771Y017116D01*
X002767Y017066D01*
X002759Y017017D01*
X002747Y016968D01*
X002731Y016920D01*
X002712Y016874D01*
X002689Y016830D01*
X002662Y016787D01*
X002632Y016747D01*
X002600Y016709D01*
X002564Y016674D01*
X002525Y016642D01*
X002484Y016613D01*
X002441Y016587D01*
X002396Y016565D01*
X002350Y016547D01*
X002302Y016532D01*
X002253Y016521D01*
X002204Y016514D01*
X002154Y016511D01*
X002103Y016512D01*
X002054Y016517D01*
X002004Y016526D01*
X001956Y016539D01*
X001909Y016555D01*
X001863Y016576D01*
X001819Y016600D01*
X001777Y016627D01*
X001737Y016657D01*
X001700Y016691D01*
X001666Y016728D01*
X001634Y016767D01*
X001606Y016808D01*
X001581Y016852D01*
X001560Y016897D01*
X001543Y016944D01*
X001529Y016992D01*
X001519Y017041D01*
X001513Y017091D01*
X001511Y017141D01*
X000141Y017141D02*
X000143Y017236D01*
X000150Y017331D01*
X000161Y017426D01*
X000177Y017520D01*
X000197Y017613D01*
X000222Y017704D01*
X000251Y017795D01*
X000284Y017884D01*
X000322Y017972D01*
X000363Y018057D01*
X000409Y018141D01*
X000458Y018222D01*
X000512Y018301D01*
X000569Y018377D01*
X000630Y018451D01*
X000694Y018521D01*
X000761Y018588D01*
X000831Y018652D01*
X000905Y018713D01*
X000981Y018770D01*
X001060Y018824D01*
X001141Y018873D01*
X001225Y018919D01*
X001310Y018960D01*
X001398Y018998D01*
X001487Y019031D01*
X001578Y019060D01*
X001669Y019085D01*
X001762Y019105D01*
X001856Y019121D01*
X001951Y019132D01*
X002046Y019139D01*
X002141Y019141D01*
X017141Y019141D01*
X016511Y017141D02*
X016513Y017191D01*
X016519Y017241D01*
X016529Y017290D01*
X016543Y017338D01*
X016560Y017385D01*
X016581Y017430D01*
X016606Y017474D01*
X016634Y017515D01*
X016666Y017554D01*
X016700Y017591D01*
X016737Y017625D01*
X016777Y017655D01*
X016819Y017682D01*
X016863Y017706D01*
X016909Y017727D01*
X016956Y017743D01*
X017004Y017756D01*
X017054Y017765D01*
X017103Y017770D01*
X017154Y017771D01*
X017204Y017768D01*
X017253Y017761D01*
X017302Y017750D01*
X017350Y017735D01*
X017396Y017717D01*
X017441Y017695D01*
X017484Y017669D01*
X017525Y017640D01*
X017564Y017608D01*
X017600Y017573D01*
X017632Y017535D01*
X017662Y017495D01*
X017689Y017452D01*
X017712Y017408D01*
X017731Y017362D01*
X017747Y017314D01*
X017759Y017265D01*
X017767Y017216D01*
X017771Y017166D01*
X017771Y017116D01*
X017767Y017066D01*
X017759Y017017D01*
X017747Y016968D01*
X017731Y016920D01*
X017712Y016874D01*
X017689Y016830D01*
X017662Y016787D01*
X017632Y016747D01*
X017600Y016709D01*
X017564Y016674D01*
X017525Y016642D01*
X017484Y016613D01*
X017441Y016587D01*
X017396Y016565D01*
X017350Y016547D01*
X017302Y016532D01*
X017253Y016521D01*
X017204Y016514D01*
X017154Y016511D01*
X017103Y016512D01*
X017054Y016517D01*
X017004Y016526D01*
X016956Y016539D01*
X016909Y016555D01*
X016863Y016576D01*
X016819Y016600D01*
X016777Y016627D01*
X016737Y016657D01*
X016700Y016691D01*
X016666Y016728D01*
X016634Y016767D01*
X016606Y016808D01*
X016581Y016852D01*
X016560Y016897D01*
X016543Y016944D01*
X016529Y016992D01*
X016519Y017041D01*
X016513Y017091D01*
X016511Y017141D01*
X017141Y019141D02*
X017236Y019139D01*
X017331Y019132D01*
X017426Y019121D01*
X017520Y019105D01*
X017613Y019085D01*
X017704Y019060D01*
X017795Y019031D01*
X017884Y018998D01*
X017972Y018960D01*
X018057Y018919D01*
X018141Y018873D01*
X018222Y018824D01*
X018301Y018770D01*
X018377Y018713D01*
X018451Y018652D01*
X018521Y018588D01*
X018588Y018521D01*
X018652Y018451D01*
X018713Y018377D01*
X018770Y018301D01*
X018824Y018222D01*
X018873Y018141D01*
X018919Y018057D01*
X018960Y017972D01*
X018998Y017884D01*
X019031Y017795D01*
X019060Y017704D01*
X019085Y017613D01*
X019105Y017520D01*
X019121Y017426D01*
X019132Y017331D01*
X019139Y017236D01*
X019141Y017141D01*
X019141Y002141D01*
X016511Y002141D02*
X016513Y002191D01*
X016519Y002241D01*
X016529Y002290D01*
X016543Y002338D01*
X016560Y002385D01*
X016581Y002430D01*
X016606Y002474D01*
X016634Y002515D01*
X016666Y002554D01*
X016700Y002591D01*
X016737Y002625D01*
X016777Y002655D01*
X016819Y002682D01*
X016863Y002706D01*
X016909Y002727D01*
X016956Y002743D01*
X017004Y002756D01*
X017054Y002765D01*
X017103Y002770D01*
X017154Y002771D01*
X017204Y002768D01*
X017253Y002761D01*
X017302Y002750D01*
X017350Y002735D01*
X017396Y002717D01*
X017441Y002695D01*
X017484Y002669D01*
X017525Y002640D01*
X017564Y002608D01*
X017600Y002573D01*
X017632Y002535D01*
X017662Y002495D01*
X017689Y002452D01*
X017712Y002408D01*
X017731Y002362D01*
X017747Y002314D01*
X017759Y002265D01*
X017767Y002216D01*
X017771Y002166D01*
X017771Y002116D01*
X017767Y002066D01*
X017759Y002017D01*
X017747Y001968D01*
X017731Y001920D01*
X017712Y001874D01*
X017689Y001830D01*
X017662Y001787D01*
X017632Y001747D01*
X017600Y001709D01*
X017564Y001674D01*
X017525Y001642D01*
X017484Y001613D01*
X017441Y001587D01*
X017396Y001565D01*
X017350Y001547D01*
X017302Y001532D01*
X017253Y001521D01*
X017204Y001514D01*
X017154Y001511D01*
X017103Y001512D01*
X017054Y001517D01*
X017004Y001526D01*
X016956Y001539D01*
X016909Y001555D01*
X016863Y001576D01*
X016819Y001600D01*
X016777Y001627D01*
X016737Y001657D01*
X016700Y001691D01*
X016666Y001728D01*
X016634Y001767D01*
X016606Y001808D01*
X016581Y001852D01*
X016560Y001897D01*
X016543Y001944D01*
X016529Y001992D01*
X016519Y002041D01*
X016513Y002091D01*
X016511Y002141D01*
X017141Y000141D02*
X017236Y000143D01*
X017331Y000150D01*
X017426Y000161D01*
X017520Y000177D01*
X017613Y000197D01*
X017704Y000222D01*
X017795Y000251D01*
X017884Y000284D01*
X017972Y000322D01*
X018057Y000363D01*
X018141Y000409D01*
X018222Y000458D01*
X018301Y000512D01*
X018377Y000569D01*
X018451Y000630D01*
X018521Y000694D01*
X018588Y000761D01*
X018652Y000831D01*
X018713Y000905D01*
X018770Y000981D01*
X018824Y001060D01*
X018873Y001141D01*
X018919Y001225D01*
X018960Y001310D01*
X018998Y001398D01*
X019031Y001487D01*
X019060Y001578D01*
X019085Y001669D01*
X019105Y001762D01*
X019121Y001856D01*
X019132Y001951D01*
X019139Y002046D01*
X019141Y002141D01*
X017141Y000141D02*
X002141Y000141D01*
X001511Y002141D02*
X001513Y002191D01*
X001519Y002241D01*
X001529Y002290D01*
X001543Y002338D01*
X001560Y002385D01*
X001581Y002430D01*
X001606Y002474D01*
X001634Y002515D01*
X001666Y002554D01*
X001700Y002591D01*
X001737Y002625D01*
X001777Y002655D01*
X001819Y002682D01*
X001863Y002706D01*
X001909Y002727D01*
X001956Y002743D01*
X002004Y002756D01*
X002054Y002765D01*
X002103Y002770D01*
X002154Y002771D01*
X002204Y002768D01*
X002253Y002761D01*
X002302Y002750D01*
X002350Y002735D01*
X002396Y002717D01*
X002441Y002695D01*
X002484Y002669D01*
X002525Y002640D01*
X002564Y002608D01*
X002600Y002573D01*
X002632Y002535D01*
X002662Y002495D01*
X002689Y002452D01*
X002712Y002408D01*
X002731Y002362D01*
X002747Y002314D01*
X002759Y002265D01*
X002767Y002216D01*
X002771Y002166D01*
X002771Y002116D01*
X002767Y002066D01*
X002759Y002017D01*
X002747Y001968D01*
X002731Y001920D01*
X002712Y001874D01*
X002689Y001830D01*
X002662Y001787D01*
X002632Y001747D01*
X002600Y001709D01*
X002564Y001674D01*
X002525Y001642D01*
X002484Y001613D01*
X002441Y001587D01*
X002396Y001565D01*
X002350Y001547D01*
X002302Y001532D01*
X002253Y001521D01*
X002204Y001514D01*
X002154Y001511D01*
X002103Y001512D01*
X002054Y001517D01*
X002004Y001526D01*
X001956Y001539D01*
X001909Y001555D01*
X001863Y001576D01*
X001819Y001600D01*
X001777Y001627D01*
X001737Y001657D01*
X001700Y001691D01*
X001666Y001728D01*
X001634Y001767D01*
X001606Y001808D01*
X001581Y001852D01*
X001560Y001897D01*
X001543Y001944D01*
X001529Y001992D01*
X001519Y002041D01*
X001513Y002091D01*
X001511Y002141D01*
X000141Y002141D02*
X000143Y002046D01*
X000150Y001951D01*
X000161Y001856D01*
X000177Y001762D01*
X000197Y001669D01*
X000222Y001578D01*
X000251Y001487D01*
X000284Y001398D01*
X000322Y001310D01*
X000363Y001225D01*
X000409Y001141D01*
X000458Y001060D01*
X000512Y000981D01*
X000569Y000905D01*
X000630Y000831D01*
X000694Y000761D01*
X000761Y000694D01*
X000831Y000630D01*
X000905Y000569D01*
X000981Y000512D01*
X001060Y000458D01*
X001141Y000409D01*
X001225Y000363D01*
X001310Y000322D01*
X001398Y000284D01*
X001487Y000251D01*
X001578Y000222D01*
X001669Y000197D01*
X001762Y000177D01*
X001856Y000161D01*
X001951Y000150D01*
X002046Y000143D01*
X002141Y000141D01*
X008746Y017420D02*
X008748Y017440D01*
X008754Y017460D01*
X008763Y017478D01*
X008776Y017495D01*
X008791Y017508D01*
X008809Y017518D01*
X008829Y017525D01*
X008849Y017528D01*
X008869Y017527D01*
X008889Y017522D01*
X008908Y017514D01*
X008925Y017502D01*
X008939Y017487D01*
X008950Y017469D01*
X008958Y017450D01*
X008962Y017430D01*
X008962Y017410D01*
X008958Y017390D01*
X008950Y017371D01*
X008939Y017353D01*
X008925Y017338D01*
X008908Y017326D01*
X008889Y017318D01*
X008869Y017313D01*
X008849Y017312D01*
X008829Y017315D01*
X008809Y017322D01*
X008791Y017332D01*
X008776Y017345D01*
X008763Y017362D01*
X008754Y017380D01*
X008748Y017400D01*
X008746Y017420D01*
X010321Y017420D02*
X010323Y017440D01*
X010329Y017460D01*
X010338Y017478D01*
X010351Y017495D01*
X010366Y017508D01*
X010384Y017518D01*
X010404Y017525D01*
X010424Y017528D01*
X010444Y017527D01*
X010464Y017522D01*
X010483Y017514D01*
X010500Y017502D01*
X010514Y017487D01*
X010525Y017469D01*
X010533Y017450D01*
X010537Y017430D01*
X010537Y017410D01*
X010533Y017390D01*
X010525Y017371D01*
X010514Y017353D01*
X010500Y017338D01*
X010483Y017326D01*
X010464Y017318D01*
X010444Y017313D01*
X010424Y017312D01*
X010404Y017315D01*
X010384Y017322D01*
X010366Y017332D01*
X010351Y017345D01*
X010338Y017362D01*
X010329Y017380D01*
X010323Y017400D01*
X010321Y017420D01*
D11*
X016141Y014141D02*
X016141Y008141D01*
X017141Y008141D01*
X017141Y014141D01*
X016141Y014141D01*
X017641Y014141D02*
X017641Y005141D01*
X018641Y005141D01*
X018641Y014141D01*
X017641Y014141D01*
X016472Y017141D02*
X016474Y017192D01*
X016480Y017243D01*
X016490Y017293D01*
X016503Y017343D01*
X016521Y017391D01*
X016541Y017438D01*
X016566Y017483D01*
X016594Y017526D01*
X016625Y017567D01*
X016659Y017605D01*
X016696Y017640D01*
X016735Y017673D01*
X016777Y017703D01*
X016821Y017729D01*
X016867Y017751D01*
X016915Y017771D01*
X016964Y017786D01*
X017014Y017798D01*
X017064Y017806D01*
X017115Y017810D01*
X017167Y017810D01*
X017218Y017806D01*
X017268Y017798D01*
X017318Y017786D01*
X017367Y017771D01*
X017415Y017751D01*
X017461Y017729D01*
X017505Y017703D01*
X017547Y017673D01*
X017586Y017640D01*
X017623Y017605D01*
X017657Y017567D01*
X017688Y017526D01*
X017716Y017483D01*
X017741Y017438D01*
X017761Y017391D01*
X017779Y017343D01*
X017792Y017293D01*
X017802Y017243D01*
X017808Y017192D01*
X017810Y017141D01*
X017808Y017090D01*
X017802Y017039D01*
X017792Y016989D01*
X017779Y016939D01*
X017761Y016891D01*
X017741Y016844D01*
X017716Y016799D01*
X017688Y016756D01*
X017657Y016715D01*
X017623Y016677D01*
X017586Y016642D01*
X017547Y016609D01*
X017505Y016579D01*
X017461Y016553D01*
X017415Y016531D01*
X017367Y016511D01*
X017318Y016496D01*
X017268Y016484D01*
X017218Y016476D01*
X017167Y016472D01*
X017115Y016472D01*
X017064Y016476D01*
X017014Y016484D01*
X016964Y016496D01*
X016915Y016511D01*
X016867Y016531D01*
X016821Y016553D01*
X016777Y016579D01*
X016735Y016609D01*
X016696Y016642D01*
X016659Y016677D01*
X016625Y016715D01*
X016594Y016756D01*
X016566Y016799D01*
X016541Y016844D01*
X016521Y016891D01*
X016503Y016939D01*
X016490Y016989D01*
X016480Y017039D01*
X016474Y017090D01*
X016472Y017141D01*
X009377Y009771D02*
X008905Y009771D01*
X008157Y009259D02*
X008157Y009023D01*
X008905Y008511D02*
X009377Y008511D01*
X010125Y009023D02*
X010125Y009259D01*
X016472Y002141D02*
X016474Y002192D01*
X016480Y002243D01*
X016490Y002293D01*
X016503Y002343D01*
X016521Y002391D01*
X016541Y002438D01*
X016566Y002483D01*
X016594Y002526D01*
X016625Y002567D01*
X016659Y002605D01*
X016696Y002640D01*
X016735Y002673D01*
X016777Y002703D01*
X016821Y002729D01*
X016867Y002751D01*
X016915Y002771D01*
X016964Y002786D01*
X017014Y002798D01*
X017064Y002806D01*
X017115Y002810D01*
X017167Y002810D01*
X017218Y002806D01*
X017268Y002798D01*
X017318Y002786D01*
X017367Y002771D01*
X017415Y002751D01*
X017461Y002729D01*
X017505Y002703D01*
X017547Y002673D01*
X017586Y002640D01*
X017623Y002605D01*
X017657Y002567D01*
X017688Y002526D01*
X017716Y002483D01*
X017741Y002438D01*
X017761Y002391D01*
X017779Y002343D01*
X017792Y002293D01*
X017802Y002243D01*
X017808Y002192D01*
X017810Y002141D01*
X017808Y002090D01*
X017802Y002039D01*
X017792Y001989D01*
X017779Y001939D01*
X017761Y001891D01*
X017741Y001844D01*
X017716Y001799D01*
X017688Y001756D01*
X017657Y001715D01*
X017623Y001677D01*
X017586Y001642D01*
X017547Y001609D01*
X017505Y001579D01*
X017461Y001553D01*
X017415Y001531D01*
X017367Y001511D01*
X017318Y001496D01*
X017268Y001484D01*
X017218Y001476D01*
X017167Y001472D01*
X017115Y001472D01*
X017064Y001476D01*
X017014Y001484D01*
X016964Y001496D01*
X016915Y001511D01*
X016867Y001531D01*
X016821Y001553D01*
X016777Y001579D01*
X016735Y001609D01*
X016696Y001642D01*
X016659Y001677D01*
X016625Y001715D01*
X016594Y001756D01*
X016566Y001799D01*
X016541Y001844D01*
X016521Y001891D01*
X016503Y001939D01*
X016490Y001989D01*
X016480Y002039D01*
X016474Y002090D01*
X016472Y002141D01*
X017891Y004641D02*
X018391Y004641D01*
X018141Y004891D01*
X017891Y004641D01*
X017947Y004697D02*
X018336Y004697D01*
X018257Y004775D02*
X018025Y004775D01*
X018104Y004854D02*
X018179Y004854D01*
X001472Y002141D02*
X001474Y002192D01*
X001480Y002243D01*
X001490Y002293D01*
X001503Y002343D01*
X001521Y002391D01*
X001541Y002438D01*
X001566Y002483D01*
X001594Y002526D01*
X001625Y002567D01*
X001659Y002605D01*
X001696Y002640D01*
X001735Y002673D01*
X001777Y002703D01*
X001821Y002729D01*
X001867Y002751D01*
X001915Y002771D01*
X001964Y002786D01*
X002014Y002798D01*
X002064Y002806D01*
X002115Y002810D01*
X002167Y002810D01*
X002218Y002806D01*
X002268Y002798D01*
X002318Y002786D01*
X002367Y002771D01*
X002415Y002751D01*
X002461Y002729D01*
X002505Y002703D01*
X002547Y002673D01*
X002586Y002640D01*
X002623Y002605D01*
X002657Y002567D01*
X002688Y002526D01*
X002716Y002483D01*
X002741Y002438D01*
X002761Y002391D01*
X002779Y002343D01*
X002792Y002293D01*
X002802Y002243D01*
X002808Y002192D01*
X002810Y002141D01*
X002808Y002090D01*
X002802Y002039D01*
X002792Y001989D01*
X002779Y001939D01*
X002761Y001891D01*
X002741Y001844D01*
X002716Y001799D01*
X002688Y001756D01*
X002657Y001715D01*
X002623Y001677D01*
X002586Y001642D01*
X002547Y001609D01*
X002505Y001579D01*
X002461Y001553D01*
X002415Y001531D01*
X002367Y001511D01*
X002318Y001496D01*
X002268Y001484D01*
X002218Y001476D01*
X002167Y001472D01*
X002115Y001472D01*
X002064Y001476D01*
X002014Y001484D01*
X001964Y001496D01*
X001915Y001511D01*
X001867Y001531D01*
X001821Y001553D01*
X001777Y001579D01*
X001735Y001609D01*
X001696Y001642D01*
X001659Y001677D01*
X001625Y001715D01*
X001594Y001756D01*
X001566Y001799D01*
X001541Y001844D01*
X001521Y001891D01*
X001503Y001939D01*
X001490Y001989D01*
X001480Y002039D01*
X001474Y002090D01*
X001472Y002141D01*
X001472Y017141D02*
X001474Y017192D01*
X001480Y017243D01*
X001490Y017293D01*
X001503Y017343D01*
X001521Y017391D01*
X001541Y017438D01*
X001566Y017483D01*
X001594Y017526D01*
X001625Y017567D01*
X001659Y017605D01*
X001696Y017640D01*
X001735Y017673D01*
X001777Y017703D01*
X001821Y017729D01*
X001867Y017751D01*
X001915Y017771D01*
X001964Y017786D01*
X002014Y017798D01*
X002064Y017806D01*
X002115Y017810D01*
X002167Y017810D01*
X002218Y017806D01*
X002268Y017798D01*
X002318Y017786D01*
X002367Y017771D01*
X002415Y017751D01*
X002461Y017729D01*
X002505Y017703D01*
X002547Y017673D01*
X002586Y017640D01*
X002623Y017605D01*
X002657Y017567D01*
X002688Y017526D01*
X002716Y017483D01*
X002741Y017438D01*
X002761Y017391D01*
X002779Y017343D01*
X002792Y017293D01*
X002802Y017243D01*
X002808Y017192D01*
X002810Y017141D01*
X002808Y017090D01*
X002802Y017039D01*
X002792Y016989D01*
X002779Y016939D01*
X002761Y016891D01*
X002741Y016844D01*
X002716Y016799D01*
X002688Y016756D01*
X002657Y016715D01*
X002623Y016677D01*
X002586Y016642D01*
X002547Y016609D01*
X002505Y016579D01*
X002461Y016553D01*
X002415Y016531D01*
X002367Y016511D01*
X002318Y016496D01*
X002268Y016484D01*
X002218Y016476D01*
X002167Y016472D01*
X002115Y016472D01*
X002064Y016476D01*
X002014Y016484D01*
X001964Y016496D01*
X001915Y016511D01*
X001867Y016531D01*
X001821Y016553D01*
X001777Y016579D01*
X001735Y016609D01*
X001696Y016642D01*
X001659Y016677D01*
X001625Y016715D01*
X001594Y016756D01*
X001566Y016799D01*
X001541Y016844D01*
X001521Y016891D01*
X001503Y016939D01*
X001490Y016989D01*
X001480Y017039D01*
X001474Y017090D01*
X001472Y017141D01*
D12*
X004460Y016932D02*
X004460Y018350D01*
X006822Y018350D01*
X006822Y016932D01*
X004460Y016932D01*
X005129Y017385D02*
X006153Y017385D01*
X006153Y017897D01*
X005129Y017897D01*
X005129Y017385D01*
X007921Y013470D02*
X010362Y013470D01*
X010470Y013362D01*
X010470Y010921D01*
X010362Y010812D01*
X007921Y010812D01*
X007812Y010921D01*
X007812Y013362D01*
X007921Y013470D01*
X008118Y011354D02*
X008120Y011384D01*
X008126Y011414D01*
X008135Y011443D01*
X008148Y011470D01*
X008165Y011495D01*
X008184Y011518D01*
X008207Y011539D01*
X008232Y011556D01*
X008258Y011570D01*
X008287Y011580D01*
X008316Y011587D01*
X008346Y011590D01*
X008377Y011589D01*
X008407Y011584D01*
X008436Y011575D01*
X008463Y011563D01*
X008489Y011548D01*
X008513Y011529D01*
X008534Y011507D01*
X008552Y011483D01*
X008567Y011456D01*
X008578Y011428D01*
X008586Y011399D01*
X008590Y011369D01*
X008590Y011339D01*
X008586Y011309D01*
X008578Y011280D01*
X008567Y011252D01*
X008552Y011225D01*
X008534Y011201D01*
X008513Y011179D01*
X008489Y011160D01*
X008463Y011145D01*
X008436Y011133D01*
X008407Y011124D01*
X008377Y011119D01*
X008346Y011118D01*
X008316Y011121D01*
X008287Y011128D01*
X008258Y011138D01*
X008232Y011152D01*
X008207Y011169D01*
X008184Y011190D01*
X008165Y011213D01*
X008148Y011238D01*
X008135Y011265D01*
X008126Y011294D01*
X008120Y011324D01*
X008118Y011354D01*
X012460Y016932D02*
X012460Y018350D01*
X014822Y018350D01*
X014822Y016932D01*
X012460Y016932D01*
X013129Y017385D02*
X014153Y017385D01*
X014153Y017897D01*
X013129Y017897D01*
X013129Y017385D01*
X002641Y013141D02*
X002641Y006141D01*
X000641Y006141D01*
X000641Y013141D01*
X002641Y013141D01*
D13*
X002016Y013421D02*
X001789Y013421D01*
X001903Y013421D02*
X001903Y013761D01*
X001789Y013648D01*
X001648Y013761D02*
X001421Y013421D01*
X001648Y013421D02*
X001421Y013761D01*
X003421Y013205D02*
X003478Y013261D01*
X003591Y013261D01*
X003648Y013205D01*
X003648Y013148D01*
X003421Y012921D01*
X003648Y012921D01*
X004171Y012921D02*
X004171Y013261D01*
X004341Y013261D01*
X004398Y013205D01*
X004398Y013091D01*
X004341Y013035D01*
X004171Y013035D01*
X004285Y013035D02*
X004398Y012921D01*
X004539Y012921D02*
X004766Y012921D01*
X004653Y012921D02*
X004653Y013261D01*
X004539Y013148D01*
X004908Y013148D02*
X005021Y013261D01*
X005021Y012921D01*
X004908Y012921D02*
X005135Y012921D01*
X005671Y012978D02*
X005728Y012921D01*
X005841Y012921D01*
X005898Y012978D01*
X006039Y013091D02*
X006266Y013091D01*
X006210Y012921D02*
X006210Y013261D01*
X006039Y013091D01*
X005898Y013205D02*
X005841Y013261D01*
X005728Y013261D01*
X005671Y013205D01*
X005671Y012978D01*
X005671Y012261D02*
X005841Y012261D01*
X005898Y012205D01*
X005898Y012091D01*
X005841Y012035D01*
X005671Y012035D01*
X005785Y012035D02*
X005898Y011921D01*
X006039Y011921D02*
X006266Y011921D01*
X006153Y011921D02*
X006153Y012261D01*
X006039Y012148D01*
X006408Y012205D02*
X006464Y012261D01*
X006578Y012261D01*
X006635Y012205D01*
X006635Y012148D01*
X006578Y012091D01*
X006635Y012035D01*
X006635Y011978D01*
X006578Y011921D01*
X006464Y011921D01*
X006408Y011978D01*
X006521Y012091D02*
X006578Y012091D01*
X006266Y011261D02*
X006039Y011261D01*
X006039Y011091D01*
X006153Y011148D01*
X006210Y011148D01*
X006266Y011091D01*
X006266Y010978D01*
X006210Y010921D01*
X006096Y010921D01*
X006039Y010978D01*
X005898Y010978D02*
X005841Y010921D01*
X005728Y010921D01*
X005671Y010978D01*
X005671Y011205D01*
X005728Y011261D01*
X005841Y011261D01*
X005898Y011205D01*
X005671Y011921D02*
X005671Y012261D01*
X005135Y012205D02*
X005135Y011978D01*
X005078Y011921D01*
X004964Y011921D01*
X004908Y011978D01*
X005135Y012205D01*
X005078Y012261D01*
X004964Y012261D01*
X004908Y012205D01*
X004908Y011978D01*
X004766Y011921D02*
X004539Y011921D01*
X004653Y011921D02*
X004653Y012261D01*
X004539Y012148D01*
X004398Y012205D02*
X004398Y012091D01*
X004341Y012035D01*
X004171Y012035D01*
X004285Y012035D02*
X004398Y011921D01*
X004171Y011921D02*
X004171Y012261D01*
X004341Y012261D01*
X004398Y012205D01*
X003648Y011921D02*
X003421Y011921D01*
X003535Y011921D02*
X003535Y012261D01*
X003421Y012148D01*
X003478Y011261D02*
X003421Y011205D01*
X003421Y010978D01*
X003648Y011205D01*
X003648Y010978D01*
X003591Y010921D01*
X003478Y010921D01*
X003421Y010978D01*
X003478Y011261D02*
X003591Y011261D01*
X003648Y011205D01*
X004171Y011261D02*
X004171Y010921D01*
X004171Y011035D02*
X004341Y011035D01*
X004398Y011091D01*
X004398Y011205D01*
X004341Y011261D01*
X004171Y011261D01*
X004285Y011035D02*
X004398Y010921D01*
X004539Y010978D02*
X004596Y010921D01*
X004710Y010921D01*
X004766Y010978D01*
X004766Y011205D01*
X004710Y011261D01*
X004596Y011261D01*
X004539Y011205D01*
X004539Y011148D01*
X004596Y011091D01*
X004766Y011091D01*
X004710Y010261D02*
X004596Y010261D01*
X004539Y010205D01*
X004539Y010148D01*
X004596Y010091D01*
X004710Y010091D01*
X004766Y010035D01*
X004766Y009978D01*
X004710Y009921D01*
X004596Y009921D01*
X004539Y009978D01*
X004539Y010035D01*
X004596Y010091D01*
X004710Y010091D02*
X004766Y010148D01*
X004766Y010205D01*
X004710Y010261D01*
X004398Y010205D02*
X004398Y010091D01*
X004341Y010035D01*
X004171Y010035D01*
X004285Y010035D02*
X004398Y009921D01*
X004171Y009921D02*
X004171Y010261D01*
X004341Y010261D01*
X004398Y010205D01*
X003648Y010205D02*
X003648Y010091D01*
X003591Y010035D01*
X003421Y010035D01*
X003421Y009921D02*
X003421Y010261D01*
X003591Y010261D01*
X003648Y010205D01*
X003653Y008011D02*
X003653Y007671D01*
X003641Y007491D02*
X003641Y007391D01*
X003141Y007391D01*
X003141Y003891D01*
X004841Y003891D01*
X004841Y003941D01*
X005441Y003941D01*
X005441Y003891D01*
X005991Y003891D01*
X006141Y004091D01*
X006341Y004091D01*
X006941Y004091D01*
X007141Y004091D01*
X007291Y003891D01*
X008841Y003891D01*
X008841Y004291D01*
X008841Y004391D01*
X006941Y004391D01*
X006341Y004391D01*
X003641Y004391D01*
X003641Y006891D01*
X015641Y006891D01*
X015641Y004391D01*
X013941Y004391D01*
X013341Y004391D01*
X010441Y004391D01*
X010441Y004291D01*
X010441Y003891D01*
X008841Y003891D01*
X008786Y003760D02*
X008729Y003703D01*
X008729Y003476D01*
X008786Y003420D01*
X008899Y003420D01*
X008956Y003476D01*
X008956Y003590D01*
X008843Y003590D01*
X008956Y003703D02*
X008899Y003760D01*
X008786Y003760D01*
X008588Y003646D02*
X008588Y003420D01*
X008588Y003590D02*
X008361Y003590D01*
X008361Y003646D02*
X008474Y003760D01*
X008588Y003646D01*
X008361Y003646D02*
X008361Y003420D01*
X008106Y003420D02*
X008106Y003760D01*
X007993Y003760D02*
X008219Y003760D01*
X007851Y003760D02*
X007738Y003760D01*
X007794Y003760D02*
X007794Y003476D01*
X007738Y003420D01*
X007681Y003420D01*
X007624Y003476D01*
X006941Y004091D02*
X006941Y004291D01*
X006941Y004391D01*
X006341Y004391D02*
X006341Y004291D01*
X006341Y004091D01*
X006309Y002549D02*
X006480Y002549D01*
X006536Y002492D01*
X006536Y002379D01*
X006480Y002322D01*
X006309Y002322D01*
X006309Y002209D02*
X006309Y002549D01*
X006423Y002322D02*
X006536Y002209D01*
X006678Y002209D02*
X006678Y002265D01*
X006905Y002492D01*
X006905Y002549D01*
X006678Y002549D01*
X005905Y002549D02*
X005791Y002492D01*
X005678Y002379D01*
X005848Y002379D01*
X005905Y002322D01*
X005905Y002265D01*
X005848Y002209D01*
X005734Y002209D01*
X005678Y002265D01*
X005678Y002379D01*
X005536Y002492D02*
X005480Y002549D01*
X005366Y002549D01*
X005309Y002492D01*
X005309Y002265D01*
X005366Y002209D01*
X005480Y002209D01*
X005536Y002265D01*
X006309Y001049D02*
X006480Y001049D01*
X006536Y000992D01*
X006536Y000879D01*
X006480Y000822D01*
X006309Y000822D01*
X006309Y000709D02*
X006309Y001049D01*
X006423Y000822D02*
X006536Y000709D01*
X006678Y000765D02*
X006678Y000879D01*
X006848Y000879D01*
X006905Y000822D01*
X006905Y000765D01*
X006848Y000709D01*
X006734Y000709D01*
X006678Y000765D01*
X006678Y000879D02*
X006791Y000992D01*
X006905Y001049D01*
X009097Y003420D02*
X009324Y003420D01*
X009211Y003420D02*
X009211Y003760D01*
X009097Y003646D01*
X008841Y004391D02*
X008841Y004691D01*
X010441Y004691D01*
X010441Y004391D01*
X010441Y003891D02*
X012991Y003891D01*
X013141Y004091D01*
X013341Y004091D01*
X013941Y004091D01*
X013941Y004291D01*
X013941Y004391D01*
X013941Y004091D02*
X014141Y004091D01*
X014291Y003891D01*
X016141Y003891D01*
X016141Y007391D01*
X015641Y007391D01*
X015641Y007491D01*
X015141Y007491D01*
X015141Y007391D01*
X009891Y007391D01*
X009891Y007491D01*
X009391Y007491D01*
X009391Y007391D01*
X004141Y007391D01*
X004141Y007491D01*
X003641Y007491D01*
X003341Y007728D02*
X003341Y008011D01*
X003285Y008011D02*
X003398Y008011D01*
X003539Y008011D02*
X003766Y008011D01*
X003908Y007898D02*
X004021Y008011D01*
X004135Y007898D01*
X004135Y007671D01*
X004276Y007728D02*
X004276Y007955D01*
X004333Y008011D01*
X004446Y008011D01*
X004503Y007955D01*
X004503Y007841D02*
X004389Y007841D01*
X004503Y007841D02*
X004503Y007728D01*
X004446Y007671D01*
X004333Y007671D01*
X004276Y007728D01*
X004135Y007841D02*
X003908Y007841D01*
X003908Y007898D02*
X003908Y007671D01*
X003341Y007728D02*
X003285Y007671D01*
X003228Y007671D01*
X003171Y007728D01*
X004644Y007671D02*
X004871Y007898D01*
X004871Y007955D01*
X004814Y008011D01*
X004701Y008011D01*
X004644Y007955D01*
X004644Y007671D02*
X004871Y007671D01*
X007171Y009853D02*
X007171Y010080D01*
X007228Y010136D01*
X007341Y010136D01*
X007398Y010080D01*
X007539Y010080D02*
X007596Y010136D01*
X007710Y010136D01*
X007766Y010080D01*
X007766Y010023D01*
X007539Y009796D01*
X007766Y009796D01*
X007398Y009853D02*
X007341Y009796D01*
X007228Y009796D01*
X007171Y009853D01*
X007241Y010521D02*
X007355Y010521D01*
X007411Y010578D01*
X007553Y010521D02*
X007780Y010521D01*
X007666Y010521D02*
X007666Y010861D01*
X007553Y010748D01*
X007411Y010805D02*
X007355Y010861D01*
X007241Y010861D01*
X007184Y010805D01*
X007184Y010578D01*
X007241Y010521D01*
X007052Y010521D02*
X006939Y010521D01*
X006996Y010521D02*
X006996Y010861D01*
X007052Y010861D02*
X006939Y010861D01*
X007991Y008361D02*
X008105Y008361D01*
X008161Y008305D01*
X008161Y008078D01*
X008105Y008021D01*
X007991Y008021D01*
X007934Y008078D01*
X007934Y008305D01*
X007991Y008361D01*
X008048Y008135D02*
X008161Y008021D01*
X008303Y008021D02*
X008530Y008021D01*
X008416Y008021D02*
X008416Y008361D01*
X008303Y008248D01*
X008948Y008248D02*
X008948Y008305D01*
X009005Y008361D01*
X009118Y008361D01*
X009175Y008305D01*
X009175Y008248D01*
X009118Y008191D01*
X009005Y008191D01*
X008948Y008248D01*
X009005Y008191D02*
X008948Y008135D01*
X008948Y008078D01*
X009005Y008021D01*
X009118Y008021D01*
X009175Y008078D01*
X009175Y008135D01*
X009118Y008191D01*
X009316Y008021D02*
X009316Y008361D01*
X009430Y008248D01*
X009543Y008361D01*
X009543Y008021D01*
X009684Y008021D02*
X009684Y008361D01*
X009684Y008191D02*
X009911Y008191D01*
X010053Y008248D02*
X010280Y008248D01*
X010053Y008021D01*
X010280Y008021D01*
X009911Y008021D02*
X009911Y008361D01*
X010478Y009796D02*
X010591Y009796D01*
X010648Y009853D01*
X010789Y009796D02*
X011016Y009796D01*
X010903Y009796D02*
X010903Y010136D01*
X010789Y010023D01*
X010648Y010080D02*
X010591Y010136D01*
X010478Y010136D01*
X010421Y010080D01*
X010421Y009853D01*
X010478Y009796D01*
X011259Y010875D02*
X011372Y010875D01*
X011316Y010875D02*
X011316Y011215D01*
X011372Y011215D02*
X011259Y011215D01*
X011504Y011159D02*
X011504Y010932D01*
X011561Y010875D01*
X011675Y010875D01*
X011731Y010932D01*
X011873Y010875D02*
X012100Y011102D01*
X012100Y011159D01*
X012043Y011215D01*
X011929Y011215D01*
X011873Y011159D01*
X011731Y011159D02*
X011675Y011215D01*
X011561Y011215D01*
X011504Y011159D01*
X011873Y010875D02*
X012100Y010875D01*
X012395Y011242D02*
X012395Y013040D01*
X011679Y013671D02*
X011679Y013728D01*
X011906Y013955D01*
X011906Y014011D01*
X011679Y014011D01*
X011538Y013955D02*
X011481Y014011D01*
X011368Y014011D01*
X011311Y013955D01*
X011311Y013728D01*
X011368Y013671D01*
X011481Y013671D01*
X011538Y013728D01*
X011648Y015921D02*
X011535Y016035D01*
X011591Y016035D02*
X011421Y016035D01*
X011421Y015921D02*
X011421Y016261D01*
X011591Y016261D01*
X011648Y016205D01*
X011648Y016091D01*
X011591Y016035D01*
X011789Y016091D02*
X011789Y016261D01*
X012016Y016261D01*
X011960Y016148D02*
X011903Y016148D01*
X011789Y016091D01*
X011789Y015978D02*
X011846Y015921D01*
X011960Y015921D01*
X012016Y015978D01*
X012016Y016091D01*
X011960Y016148D01*
X012421Y016261D02*
X012421Y015921D01*
X012421Y016035D02*
X012591Y016035D01*
X012648Y016091D01*
X012648Y016205D01*
X012591Y016261D01*
X012421Y016261D01*
X012535Y016035D02*
X012648Y015921D01*
X012789Y015921D02*
X013016Y015921D01*
X012903Y015921D02*
X012903Y016261D01*
X012789Y016148D01*
X013158Y016205D02*
X013214Y016261D01*
X013328Y016261D01*
X013385Y016205D01*
X013385Y016148D01*
X013158Y015921D01*
X013385Y015921D01*
X014666Y015272D02*
X014666Y015045D01*
X014723Y014989D01*
X014836Y014989D01*
X014893Y015045D01*
X014893Y015272D01*
X014836Y015329D01*
X014723Y015329D01*
X014666Y015272D01*
X014780Y015102D02*
X014893Y014989D01*
X015034Y014989D02*
X015261Y015215D01*
X015261Y015272D01*
X015205Y015329D01*
X015091Y015329D01*
X015034Y015272D01*
X015034Y014989D02*
X015261Y014989D01*
X014887Y013040D02*
X014887Y011242D01*
X015521Y010117D02*
X015748Y009890D01*
X015691Y009947D02*
X015861Y010117D01*
X015861Y009890D02*
X015521Y009890D01*
X015521Y009748D02*
X015861Y009748D01*
X015521Y009522D01*
X015861Y009522D01*
X015861Y009389D02*
X015861Y009276D01*
X015861Y009333D02*
X015521Y009333D01*
X015521Y009389D02*
X015521Y009276D01*
X015521Y008908D02*
X015861Y008908D01*
X015861Y009135D01*
X015861Y008653D02*
X015521Y008653D01*
X015521Y008766D02*
X015521Y008539D01*
X015578Y008398D02*
X015521Y008341D01*
X015521Y008228D01*
X015578Y008171D01*
X015634Y008171D01*
X015691Y008228D01*
X015691Y008341D01*
X015748Y008398D01*
X015804Y008398D01*
X015861Y008341D01*
X015861Y008228D01*
X015804Y008171D01*
X015092Y008453D02*
X015035Y008396D01*
X014922Y008396D01*
X014865Y008453D01*
X014865Y008510D01*
X014922Y008566D01*
X015035Y008566D01*
X015092Y008510D01*
X015092Y008453D01*
X015035Y008566D02*
X015092Y008623D01*
X015092Y008680D01*
X015035Y008736D01*
X014922Y008736D01*
X014865Y008680D01*
X014865Y008623D01*
X014922Y008566D01*
X014724Y008453D02*
X014667Y008396D01*
X014554Y008396D01*
X014497Y008453D01*
X014497Y008680D01*
X014554Y008736D01*
X014667Y008736D01*
X014724Y008680D01*
X017021Y007485D02*
X017248Y007258D01*
X017191Y007315D02*
X017361Y007485D01*
X017361Y007258D02*
X017021Y007258D01*
X017021Y007117D02*
X017361Y007117D01*
X017021Y006890D01*
X017361Y006890D01*
X017361Y006758D02*
X017361Y006644D01*
X017361Y006701D02*
X017021Y006701D01*
X017021Y006644D02*
X017021Y006758D01*
X017361Y006503D02*
X017361Y006276D01*
X017021Y006276D01*
X017078Y006135D02*
X017021Y006078D01*
X017021Y005964D01*
X017078Y005908D01*
X017304Y005908D01*
X017361Y005964D01*
X017361Y006078D01*
X017304Y006135D01*
X017191Y005766D02*
X017078Y005766D01*
X017021Y005710D01*
X017021Y005539D01*
X017361Y005539D01*
X017248Y005539D02*
X017248Y005710D01*
X017191Y005766D01*
X017361Y005398D02*
X017361Y005171D01*
X017021Y005171D01*
X014391Y002471D02*
X014211Y002211D01*
X014191Y002191D02*
X014291Y001941D01*
X014591Y001891D01*
X014591Y001641D01*
X014291Y001641D01*
X014191Y001291D01*
X014341Y001091D01*
X014191Y000941D01*
X013991Y001091D01*
X013891Y001041D01*
X013691Y001441D01*
X013891Y001641D01*
X013891Y001891D01*
X013741Y002141D01*
X013491Y002191D01*
X013191Y002091D01*
X013241Y002091D01*
X013091Y001841D01*
X013191Y001541D01*
X013291Y001441D01*
X013141Y001041D01*
X013041Y001091D01*
X012841Y000941D01*
X012691Y001091D01*
X012841Y001341D01*
X012741Y001591D01*
X012441Y001691D01*
X012441Y001641D01*
X012441Y001891D01*
X012741Y001941D01*
X012841Y002241D01*
X012641Y002441D01*
X012791Y002591D01*
X013091Y002441D01*
X013391Y002591D01*
X013341Y002591D01*
X013391Y002841D01*
X013641Y002841D01*
X013641Y002541D01*
X013941Y002441D01*
X014191Y002591D01*
X014341Y002491D01*
X014191Y002191D01*
X014191Y002190D02*
X013496Y002190D01*
X013488Y002190D02*
X012824Y002190D01*
X012801Y002211D02*
X012621Y002471D01*
X012811Y002651D01*
X013071Y002471D01*
X013008Y002483D02*
X012683Y002483D01*
X012658Y002424D02*
X014308Y002424D01*
X014278Y002366D02*
X012716Y002366D01*
X012775Y002307D02*
X014249Y002307D01*
X014220Y002249D02*
X012834Y002249D01*
X012805Y002132D02*
X013313Y002132D01*
X013230Y002073D02*
X012785Y002073D01*
X012766Y002014D02*
X013195Y002014D01*
X013160Y001956D02*
X012746Y001956D01*
X012691Y001961D02*
X012391Y001901D01*
X012391Y001641D01*
X012691Y001591D01*
X012700Y001605D02*
X013170Y001605D01*
X013150Y001663D02*
X012525Y001663D01*
X012441Y001722D02*
X013131Y001722D01*
X013111Y001780D02*
X012441Y001780D01*
X012441Y001839D02*
X013092Y001839D01*
X013125Y001897D02*
X012479Y001897D01*
X012759Y001546D02*
X013189Y001546D01*
X013245Y001488D02*
X012783Y001488D01*
X012806Y001429D02*
X013287Y001429D01*
X013265Y001371D02*
X012829Y001371D01*
X012824Y001312D02*
X013243Y001312D01*
X013221Y001253D02*
X012788Y001253D01*
X012753Y001195D02*
X013199Y001195D01*
X013177Y001136D02*
X012718Y001136D01*
X012704Y001078D02*
X013023Y001078D01*
X013051Y001061D02*
X012811Y000891D01*
X012631Y001081D01*
X012791Y001321D01*
X012763Y001019D02*
X012945Y001019D01*
X012867Y000961D02*
X012821Y000961D01*
X013051Y001061D02*
X013151Y001001D01*
X013351Y001451D01*
X013671Y001451D02*
X013861Y001001D01*
X013961Y001061D01*
X014201Y000891D01*
X014391Y001081D01*
X014221Y001321D01*
X014197Y001312D02*
X013756Y001312D01*
X013785Y001253D02*
X014219Y001253D01*
X014263Y001195D02*
X013814Y001195D01*
X013844Y001136D02*
X014307Y001136D01*
X014328Y001078D02*
X014009Y001078D01*
X013964Y001078D02*
X013873Y001078D01*
X014087Y001019D02*
X014269Y001019D01*
X014211Y000961D02*
X014165Y000961D01*
X014214Y001371D02*
X013726Y001371D01*
X013697Y001429D02*
X014231Y001429D01*
X014247Y001488D02*
X013738Y001488D01*
X013796Y001546D02*
X014264Y001546D01*
X014281Y001605D02*
X013855Y001605D01*
X013891Y001663D02*
X014591Y001663D01*
X014621Y001641D02*
X014321Y001591D01*
X014591Y001722D02*
X013891Y001722D01*
X013891Y001780D02*
X014591Y001780D01*
X014591Y001839D02*
X013891Y001839D01*
X013887Y001897D02*
X014553Y001897D01*
X014621Y001901D02*
X014621Y001641D01*
X014621Y001901D02*
X014321Y001961D01*
X014285Y001956D02*
X013852Y001956D01*
X013817Y002014D02*
X014262Y002014D01*
X014238Y002073D02*
X013782Y002073D01*
X013747Y002132D02*
X014215Y002132D01*
X014337Y002483D02*
X014011Y002483D01*
X013941Y002471D02*
X014201Y002651D01*
X014391Y002471D01*
X014266Y002541D02*
X014108Y002541D01*
X013816Y002483D02*
X013175Y002483D01*
X013292Y002541D02*
X013641Y002541D01*
X013691Y002571D02*
X013641Y002891D01*
X013371Y002891D01*
X013321Y002571D01*
X013343Y002600D02*
X013641Y002600D01*
X013641Y002658D02*
X013355Y002658D01*
X013366Y002717D02*
X013641Y002717D01*
X013641Y002776D02*
X013378Y002776D01*
X013390Y002834D02*
X013641Y002834D01*
X012891Y002541D02*
X012741Y002541D01*
X013351Y001461D02*
X013318Y001479D01*
X013288Y001500D01*
X013259Y001524D01*
X013233Y001551D01*
X013211Y001580D01*
X013191Y001612D01*
X013174Y001645D01*
X013161Y001680D01*
X013152Y001716D01*
X013146Y001753D01*
X013144Y001790D01*
X013146Y001827D01*
X013151Y001864D01*
X013161Y001900D01*
X013173Y001935D01*
X013190Y001969D01*
X013209Y002000D01*
X013232Y002030D01*
X013258Y002057D01*
X013286Y002081D01*
X013317Y002102D01*
X013349Y002120D01*
X013383Y002135D01*
X013419Y002146D01*
X013455Y002154D01*
X013492Y002158D01*
X013530Y002158D01*
X013567Y002154D01*
X013603Y002146D01*
X013639Y002135D01*
X013673Y002120D01*
X013705Y002102D01*
X013736Y002081D01*
X013764Y002057D01*
X013790Y002030D01*
X013813Y002000D01*
X013832Y001969D01*
X013849Y001935D01*
X013861Y001900D01*
X013871Y001864D01*
X013876Y001827D01*
X013878Y001790D01*
X013876Y001753D01*
X013870Y001716D01*
X013861Y001680D01*
X013848Y001645D01*
X013831Y001612D01*
X013811Y001580D01*
X013789Y001551D01*
X013763Y001524D01*
X013734Y001500D01*
X013704Y001479D01*
X013671Y001461D01*
X014221Y001321D02*
X014244Y001362D01*
X014265Y001405D01*
X014283Y001450D01*
X014298Y001495D01*
X014311Y001541D01*
X014321Y001588D01*
X014320Y001961D02*
X014305Y002013D01*
X014286Y002064D01*
X014264Y002114D01*
X014239Y002162D01*
X014210Y002209D01*
X013945Y002473D02*
X013898Y002500D01*
X013849Y002523D01*
X013799Y002543D01*
X013748Y002560D01*
X013696Y002574D01*
X013314Y002571D02*
X013264Y002558D01*
X013215Y002541D01*
X013167Y002522D01*
X013120Y002499D01*
X013075Y002474D01*
X012802Y002206D02*
X012775Y002160D01*
X012751Y002112D01*
X012730Y002063D01*
X012712Y002012D01*
X012698Y001961D01*
X012692Y001590D02*
X012705Y001534D01*
X012722Y001479D01*
X012743Y001426D01*
X012767Y001374D01*
X012795Y001324D01*
X013068Y001078D02*
X013155Y001078D01*
X013341Y004091D02*
X013341Y004291D01*
X013341Y004391D01*
X015791Y002141D02*
X015793Y002214D01*
X015799Y002287D01*
X015809Y002359D01*
X015823Y002431D01*
X015840Y002502D01*
X015862Y002572D01*
X015887Y002641D01*
X015916Y002708D01*
X015948Y002773D01*
X015984Y002837D01*
X016024Y002899D01*
X016066Y002958D01*
X016112Y003015D01*
X016161Y003069D01*
X016213Y003121D01*
X016267Y003170D01*
X016324Y003216D01*
X016383Y003258D01*
X016445Y003298D01*
X016509Y003334D01*
X016574Y003366D01*
X016641Y003395D01*
X016710Y003420D01*
X016780Y003442D01*
X016851Y003459D01*
X016923Y003473D01*
X016995Y003483D01*
X017068Y003489D01*
X017141Y003491D01*
X017214Y003489D01*
X017287Y003483D01*
X017359Y003473D01*
X017431Y003459D01*
X017502Y003442D01*
X017572Y003420D01*
X017641Y003395D01*
X017708Y003366D01*
X017773Y003334D01*
X017837Y003298D01*
X017899Y003258D01*
X017958Y003216D01*
X018015Y003170D01*
X018069Y003121D01*
X018121Y003069D01*
X018170Y003015D01*
X018216Y002958D01*
X018258Y002899D01*
X018298Y002837D01*
X018334Y002773D01*
X018366Y002708D01*
X018395Y002641D01*
X018420Y002572D01*
X018442Y002502D01*
X018459Y002431D01*
X018473Y002359D01*
X018483Y002287D01*
X018489Y002214D01*
X018491Y002141D01*
X018489Y002068D01*
X018483Y001995D01*
X018473Y001923D01*
X018459Y001851D01*
X018442Y001780D01*
X018420Y001710D01*
X018395Y001641D01*
X018366Y001574D01*
X018334Y001509D01*
X018298Y001445D01*
X018258Y001383D01*
X018216Y001324D01*
X018170Y001267D01*
X018121Y001213D01*
X018069Y001161D01*
X018015Y001112D01*
X017958Y001066D01*
X017899Y001024D01*
X017837Y000984D01*
X017773Y000948D01*
X017708Y000916D01*
X017641Y000887D01*
X017572Y000862D01*
X017502Y000840D01*
X017431Y000823D01*
X017359Y000809D01*
X017287Y000799D01*
X017214Y000793D01*
X017141Y000791D01*
X017068Y000793D01*
X016995Y000799D01*
X016923Y000809D01*
X016851Y000823D01*
X016780Y000840D01*
X016710Y000862D01*
X016641Y000887D01*
X016574Y000916D01*
X016509Y000948D01*
X016445Y000984D01*
X016383Y001024D01*
X016324Y001066D01*
X016267Y001112D01*
X016213Y001161D01*
X016161Y001213D01*
X016112Y001267D01*
X016066Y001324D01*
X016024Y001383D01*
X015984Y001445D01*
X015948Y001509D01*
X015916Y001574D01*
X015887Y001641D01*
X015862Y001710D01*
X015840Y001780D01*
X015823Y001851D01*
X015809Y001923D01*
X015799Y001995D01*
X015793Y002068D01*
X015791Y002141D01*
X012565Y011661D02*
X012567Y011687D01*
X012573Y011713D01*
X012582Y011737D01*
X012595Y011760D01*
X012611Y011781D01*
X012630Y011799D01*
X012651Y011815D01*
X012675Y011827D01*
X012699Y011835D01*
X012725Y011840D01*
X012752Y011841D01*
X012778Y011838D01*
X012803Y011831D01*
X012827Y011821D01*
X012850Y011807D01*
X012870Y011791D01*
X012887Y011771D01*
X012902Y011749D01*
X012913Y011725D01*
X012921Y011700D01*
X012925Y011674D01*
X012925Y011648D01*
X012921Y011622D01*
X012913Y011597D01*
X012902Y011573D01*
X012887Y011551D01*
X012870Y011531D01*
X012850Y011515D01*
X012827Y011501D01*
X012803Y011491D01*
X012778Y011484D01*
X012752Y011481D01*
X012725Y011482D01*
X012699Y011487D01*
X012675Y011495D01*
X012651Y011507D01*
X012630Y011523D01*
X012611Y011541D01*
X012595Y011562D01*
X012582Y011585D01*
X012573Y011609D01*
X012567Y011635D01*
X012565Y011661D01*
X010960Y015921D02*
X010960Y016261D01*
X010789Y016091D01*
X011016Y016091D01*
X010648Y016091D02*
X010591Y016035D01*
X010421Y016035D01*
X010535Y016035D02*
X010648Y015921D01*
X010648Y016091D02*
X010648Y016205D01*
X010591Y016261D01*
X010421Y016261D01*
X010421Y015921D01*
X010016Y015921D02*
X009789Y015921D01*
X009903Y015921D02*
X009903Y016261D01*
X009789Y016148D01*
X009648Y016205D02*
X009648Y016091D01*
X009591Y016035D01*
X009421Y016035D01*
X009535Y016035D02*
X009648Y015921D01*
X009421Y015921D02*
X009421Y016261D01*
X009591Y016261D01*
X009648Y016205D01*
X009016Y016205D02*
X009016Y016148D01*
X008789Y015921D01*
X009016Y015921D01*
X009016Y016205D02*
X008960Y016261D01*
X008846Y016261D01*
X008789Y016205D01*
X008648Y016205D02*
X008648Y016091D01*
X008591Y016035D01*
X008421Y016035D01*
X008535Y016035D02*
X008648Y015921D01*
X008421Y015921D02*
X008421Y016261D01*
X008591Y016261D01*
X008648Y016205D01*
X008016Y016205D02*
X008016Y016148D01*
X007960Y016091D01*
X008016Y016035D01*
X008016Y015978D01*
X007960Y015921D01*
X007846Y015921D01*
X007789Y015978D01*
X007648Y015921D02*
X007535Y016035D01*
X007591Y016035D02*
X007421Y016035D01*
X007421Y015921D02*
X007421Y016261D01*
X007591Y016261D01*
X007648Y016205D01*
X007648Y016091D01*
X007591Y016035D01*
X007789Y016205D02*
X007846Y016261D01*
X007960Y016261D01*
X008016Y016205D01*
X007960Y016091D02*
X007903Y016091D01*
X007016Y016035D02*
X007016Y015978D01*
X006960Y015921D01*
X006846Y015921D01*
X006789Y015978D01*
X006648Y015978D02*
X006591Y015921D01*
X006478Y015921D01*
X006421Y015978D01*
X006421Y016205D01*
X006478Y016261D01*
X006591Y016261D01*
X006648Y016205D01*
X006789Y016205D02*
X006846Y016261D01*
X006960Y016261D01*
X007016Y016205D01*
X007016Y016148D01*
X006960Y016091D01*
X007016Y016035D01*
X006960Y016091D02*
X006903Y016091D01*
X006016Y016091D02*
X005846Y016091D01*
X005789Y016148D01*
X005789Y016205D01*
X005846Y016261D01*
X005960Y016261D01*
X006016Y016205D01*
X006016Y015978D01*
X005960Y015921D01*
X005846Y015921D01*
X005789Y015978D01*
X005648Y015978D02*
X005591Y015921D01*
X005478Y015921D01*
X005421Y015978D01*
X005421Y016205D01*
X005478Y016261D01*
X005591Y016261D01*
X005648Y016205D01*
X005099Y016180D02*
X005099Y016123D01*
X005043Y016066D01*
X005099Y016010D01*
X005099Y015953D01*
X005043Y015896D01*
X004929Y015896D01*
X004872Y015953D01*
X004731Y015953D02*
X004674Y015896D01*
X004561Y015896D01*
X004504Y015953D01*
X004504Y016180D01*
X004561Y016236D01*
X004674Y016236D01*
X004731Y016180D01*
X004872Y016180D02*
X004929Y016236D01*
X005043Y016236D01*
X005099Y016180D01*
X005043Y016066D02*
X004986Y016066D01*
X004372Y015896D02*
X004259Y015896D01*
X004315Y015896D02*
X004315Y016236D01*
X004259Y016236D02*
X004372Y016236D01*
X004728Y014261D02*
X004671Y014205D01*
X004671Y013978D01*
X004728Y013921D01*
X004841Y013921D01*
X004898Y013978D01*
X005039Y013921D02*
X005266Y013921D01*
X005153Y013921D02*
X005153Y014261D01*
X005039Y014148D01*
X004898Y014205D02*
X004841Y014261D01*
X004728Y014261D01*
X005408Y014205D02*
X005408Y013978D01*
X005635Y014205D01*
X005635Y013978D01*
X005578Y013921D01*
X005464Y013921D01*
X005408Y013978D01*
X005408Y014205D02*
X005464Y014261D01*
X005578Y014261D01*
X005635Y014205D01*
X007708Y017171D02*
X007992Y017171D01*
X008049Y017228D01*
X008049Y017341D01*
X007992Y017398D01*
X007708Y017398D01*
X007765Y017539D02*
X007708Y017596D01*
X007708Y017710D01*
X007765Y017766D01*
X007879Y017710D02*
X007935Y017766D01*
X007992Y017766D01*
X008049Y017710D01*
X008049Y017596D01*
X007992Y017539D01*
X007879Y017596D02*
X007879Y017710D01*
X007879Y017596D02*
X007822Y017539D01*
X007765Y017539D01*
X007708Y017908D02*
X007708Y018078D01*
X007765Y018135D01*
X007822Y018135D01*
X007879Y018078D01*
X007879Y017908D01*
X008049Y017908D02*
X008049Y018078D01*
X007992Y018135D01*
X007935Y018135D01*
X007879Y018078D01*
X007822Y018276D02*
X007708Y018389D01*
X008049Y018389D01*
X008049Y018276D02*
X008049Y018503D01*
X008049Y017908D02*
X007708Y017908D01*
X007064Y018546D02*
X006951Y018546D01*
X006894Y018603D01*
X007121Y018830D01*
X007121Y018603D01*
X007064Y018546D01*
X006894Y018603D02*
X006894Y018830D01*
X006951Y018886D01*
X007064Y018886D01*
X007121Y018830D01*
X006753Y018886D02*
X006526Y018886D01*
X006639Y018886D02*
X006639Y018546D01*
X006385Y018603D02*
X006385Y018830D01*
X006328Y018886D01*
X006214Y018886D01*
X006158Y018830D01*
X006158Y018603D01*
X006214Y018546D01*
X006328Y018546D01*
X006385Y018603D01*
X006016Y018603D02*
X006016Y018830D01*
X005960Y018886D01*
X005846Y018886D01*
X005789Y018830D01*
X005789Y018603D01*
X005846Y018546D01*
X005960Y018546D01*
X006016Y018603D01*
X005648Y018603D02*
X005591Y018546D01*
X005421Y018546D01*
X005421Y018886D01*
X005591Y018886D01*
X005648Y018830D01*
X005648Y018773D01*
X005591Y018716D01*
X005421Y018716D01*
X005591Y018716D02*
X005648Y018660D01*
X005648Y018603D01*
X004766Y018546D02*
X004539Y018546D01*
X004653Y018546D02*
X004653Y018886D01*
X004539Y018773D01*
X004398Y018830D02*
X004341Y018886D01*
X004228Y018886D01*
X004171Y018830D01*
X004171Y018773D01*
X004228Y018716D01*
X004341Y018716D01*
X004398Y018660D01*
X004398Y018603D01*
X004341Y018546D01*
X004228Y018546D01*
X004171Y018603D01*
X000791Y017141D02*
X000793Y017214D01*
X000799Y017287D01*
X000809Y017359D01*
X000823Y017431D01*
X000840Y017502D01*
X000862Y017572D01*
X000887Y017641D01*
X000916Y017708D01*
X000948Y017773D01*
X000984Y017837D01*
X001024Y017899D01*
X001066Y017958D01*
X001112Y018015D01*
X001161Y018069D01*
X001213Y018121D01*
X001267Y018170D01*
X001324Y018216D01*
X001383Y018258D01*
X001445Y018298D01*
X001509Y018334D01*
X001574Y018366D01*
X001641Y018395D01*
X001710Y018420D01*
X001780Y018442D01*
X001851Y018459D01*
X001923Y018473D01*
X001995Y018483D01*
X002068Y018489D01*
X002141Y018491D01*
X002214Y018489D01*
X002287Y018483D01*
X002359Y018473D01*
X002431Y018459D01*
X002502Y018442D01*
X002572Y018420D01*
X002641Y018395D01*
X002708Y018366D01*
X002773Y018334D01*
X002837Y018298D01*
X002899Y018258D01*
X002958Y018216D01*
X003015Y018170D01*
X003069Y018121D01*
X003121Y018069D01*
X003170Y018015D01*
X003216Y017958D01*
X003258Y017899D01*
X003298Y017837D01*
X003334Y017773D01*
X003366Y017708D01*
X003395Y017641D01*
X003420Y017572D01*
X003442Y017502D01*
X003459Y017431D01*
X003473Y017359D01*
X003483Y017287D01*
X003489Y017214D01*
X003491Y017141D01*
X003489Y017068D01*
X003483Y016995D01*
X003473Y016923D01*
X003459Y016851D01*
X003442Y016780D01*
X003420Y016710D01*
X003395Y016641D01*
X003366Y016574D01*
X003334Y016509D01*
X003298Y016445D01*
X003258Y016383D01*
X003216Y016324D01*
X003170Y016267D01*
X003121Y016213D01*
X003069Y016161D01*
X003015Y016112D01*
X002958Y016066D01*
X002899Y016024D01*
X002837Y015984D01*
X002773Y015948D01*
X002708Y015916D01*
X002641Y015887D01*
X002572Y015862D01*
X002502Y015840D01*
X002431Y015823D01*
X002359Y015809D01*
X002287Y015799D01*
X002214Y015793D01*
X002141Y015791D01*
X002068Y015793D01*
X001995Y015799D01*
X001923Y015809D01*
X001851Y015823D01*
X001780Y015840D01*
X001710Y015862D01*
X001641Y015887D01*
X001574Y015916D01*
X001509Y015948D01*
X001445Y015984D01*
X001383Y016024D01*
X001324Y016066D01*
X001267Y016112D01*
X001213Y016161D01*
X001161Y016213D01*
X001112Y016267D01*
X001066Y016324D01*
X001024Y016383D01*
X000984Y016445D01*
X000948Y016509D01*
X000916Y016574D01*
X000887Y016641D01*
X000862Y016710D01*
X000840Y016780D01*
X000823Y016851D01*
X000809Y016923D01*
X000799Y016995D01*
X000793Y017068D01*
X000791Y017141D01*
X012171Y018603D02*
X012228Y018546D01*
X012341Y018546D01*
X012398Y018603D01*
X012398Y018660D01*
X012341Y018716D01*
X012228Y018716D01*
X012171Y018773D01*
X012171Y018830D01*
X012228Y018886D01*
X012341Y018886D01*
X012398Y018830D01*
X012539Y018830D02*
X012596Y018886D01*
X012710Y018886D01*
X012766Y018830D01*
X012766Y018773D01*
X012539Y018546D01*
X012766Y018546D01*
X013421Y018546D02*
X013421Y018886D01*
X013648Y018886D01*
X013789Y018830D02*
X013789Y018603D01*
X013846Y018546D01*
X013960Y018546D01*
X014016Y018603D01*
X014016Y018830D01*
X013960Y018886D01*
X013846Y018886D01*
X013789Y018830D01*
X013535Y018716D02*
X013421Y018716D01*
X014158Y018660D02*
X014328Y018660D01*
X014385Y018716D01*
X014385Y018830D01*
X014328Y018886D01*
X014158Y018886D01*
X014158Y018546D01*
X014271Y018660D02*
X014385Y018546D01*
X014526Y018603D02*
X014526Y018830D01*
X014583Y018886D01*
X014696Y018886D01*
X014753Y018830D01*
X014894Y018886D02*
X014894Y018546D01*
X015121Y018546D01*
X015008Y018716D02*
X014894Y018716D01*
X014894Y018886D02*
X015121Y018886D01*
X014753Y018603D02*
X014696Y018546D01*
X014583Y018546D01*
X014526Y018603D01*
X015791Y017141D02*
X015793Y017214D01*
X015799Y017287D01*
X015809Y017359D01*
X015823Y017431D01*
X015840Y017502D01*
X015862Y017572D01*
X015887Y017641D01*
X015916Y017708D01*
X015948Y017773D01*
X015984Y017837D01*
X016024Y017899D01*
X016066Y017958D01*
X016112Y018015D01*
X016161Y018069D01*
X016213Y018121D01*
X016267Y018170D01*
X016324Y018216D01*
X016383Y018258D01*
X016445Y018298D01*
X016509Y018334D01*
X016574Y018366D01*
X016641Y018395D01*
X016710Y018420D01*
X016780Y018442D01*
X016851Y018459D01*
X016923Y018473D01*
X016995Y018483D01*
X017068Y018489D01*
X017141Y018491D01*
X017214Y018489D01*
X017287Y018483D01*
X017359Y018473D01*
X017431Y018459D01*
X017502Y018442D01*
X017572Y018420D01*
X017641Y018395D01*
X017708Y018366D01*
X017773Y018334D01*
X017837Y018298D01*
X017899Y018258D01*
X017958Y018216D01*
X018015Y018170D01*
X018069Y018121D01*
X018121Y018069D01*
X018170Y018015D01*
X018216Y017958D01*
X018258Y017899D01*
X018298Y017837D01*
X018334Y017773D01*
X018366Y017708D01*
X018395Y017641D01*
X018420Y017572D01*
X018442Y017502D01*
X018459Y017431D01*
X018473Y017359D01*
X018483Y017287D01*
X018489Y017214D01*
X018491Y017141D01*
X018489Y017068D01*
X018483Y016995D01*
X018473Y016923D01*
X018459Y016851D01*
X018442Y016780D01*
X018420Y016710D01*
X018395Y016641D01*
X018366Y016574D01*
X018334Y016509D01*
X018298Y016445D01*
X018258Y016383D01*
X018216Y016324D01*
X018170Y016267D01*
X018121Y016213D01*
X018069Y016161D01*
X018015Y016112D01*
X017958Y016066D01*
X017899Y016024D01*
X017837Y015984D01*
X017773Y015948D01*
X017708Y015916D01*
X017641Y015887D01*
X017572Y015862D01*
X017502Y015840D01*
X017431Y015823D01*
X017359Y015809D01*
X017287Y015799D01*
X017214Y015793D01*
X017141Y015791D01*
X017068Y015793D01*
X016995Y015799D01*
X016923Y015809D01*
X016851Y015823D01*
X016780Y015840D01*
X016710Y015862D01*
X016641Y015887D01*
X016574Y015916D01*
X016509Y015948D01*
X016445Y015984D01*
X016383Y016024D01*
X016324Y016066D01*
X016267Y016112D01*
X016213Y016161D01*
X016161Y016213D01*
X016112Y016267D01*
X016066Y016324D01*
X016024Y016383D01*
X015984Y016445D01*
X015948Y016509D01*
X015916Y016574D01*
X015887Y016641D01*
X015862Y016710D01*
X015840Y016780D01*
X015823Y016851D01*
X015809Y016923D01*
X015799Y016995D01*
X015793Y017068D01*
X015791Y017141D01*
X000791Y002141D02*
X000793Y002214D01*
X000799Y002287D01*
X000809Y002359D01*
X000823Y002431D01*
X000840Y002502D01*
X000862Y002572D01*
X000887Y002641D01*
X000916Y002708D01*
X000948Y002773D01*
X000984Y002837D01*
X001024Y002899D01*
X001066Y002958D01*
X001112Y003015D01*
X001161Y003069D01*
X001213Y003121D01*
X001267Y003170D01*
X001324Y003216D01*
X001383Y003258D01*
X001445Y003298D01*
X001509Y003334D01*
X001574Y003366D01*
X001641Y003395D01*
X001710Y003420D01*
X001780Y003442D01*
X001851Y003459D01*
X001923Y003473D01*
X001995Y003483D01*
X002068Y003489D01*
X002141Y003491D01*
X002214Y003489D01*
X002287Y003483D01*
X002359Y003473D01*
X002431Y003459D01*
X002502Y003442D01*
X002572Y003420D01*
X002641Y003395D01*
X002708Y003366D01*
X002773Y003334D01*
X002837Y003298D01*
X002899Y003258D01*
X002958Y003216D01*
X003015Y003170D01*
X003069Y003121D01*
X003121Y003069D01*
X003170Y003015D01*
X003216Y002958D01*
X003258Y002899D01*
X003298Y002837D01*
X003334Y002773D01*
X003366Y002708D01*
X003395Y002641D01*
X003420Y002572D01*
X003442Y002502D01*
X003459Y002431D01*
X003473Y002359D01*
X003483Y002287D01*
X003489Y002214D01*
X003491Y002141D01*
X003489Y002068D01*
X003483Y001995D01*
X003473Y001923D01*
X003459Y001851D01*
X003442Y001780D01*
X003420Y001710D01*
X003395Y001641D01*
X003366Y001574D01*
X003334Y001509D01*
X003298Y001445D01*
X003258Y001383D01*
X003216Y001324D01*
X003170Y001267D01*
X003121Y001213D01*
X003069Y001161D01*
X003015Y001112D01*
X002958Y001066D01*
X002899Y001024D01*
X002837Y000984D01*
X002773Y000948D01*
X002708Y000916D01*
X002641Y000887D01*
X002572Y000862D01*
X002502Y000840D01*
X002431Y000823D01*
X002359Y000809D01*
X002287Y000799D01*
X002214Y000793D01*
X002141Y000791D01*
X002068Y000793D01*
X001995Y000799D01*
X001923Y000809D01*
X001851Y000823D01*
X001780Y000840D01*
X001710Y000862D01*
X001641Y000887D01*
X001574Y000916D01*
X001509Y000948D01*
X001445Y000984D01*
X001383Y001024D01*
X001324Y001066D01*
X001267Y001112D01*
X001213Y001161D01*
X001161Y001213D01*
X001112Y001267D01*
X001066Y001324D01*
X001024Y001383D01*
X000984Y001445D01*
X000948Y001509D01*
X000916Y001574D01*
X000887Y001641D01*
X000862Y001710D01*
X000840Y001780D01*
X000823Y001851D01*
X000809Y001923D01*
X000799Y001995D01*
X000793Y002068D01*
X000791Y002141D01*
D14*
X001166Y005416D02*
X001341Y005416D01*
X001400Y005474D01*
X001400Y005533D01*
X001341Y005591D01*
X001166Y005591D01*
X001166Y005416D02*
X001166Y005766D01*
X001341Y005766D01*
X001400Y005708D01*
X001400Y005650D01*
X001341Y005591D01*
X001534Y005416D02*
X001768Y005416D01*
X001903Y005416D02*
X001903Y005766D01*
X001961Y005591D02*
X002136Y005416D01*
X001903Y005533D02*
X002136Y005766D01*
X001534Y005766D02*
X001534Y005416D01*
X004166Y005216D02*
X004316Y005366D01*
X004316Y004916D01*
X004166Y004916D02*
X004466Y004916D01*
X004466Y005916D02*
X004166Y005916D01*
X004466Y006216D01*
X004466Y006291D01*
X004391Y006366D01*
X004241Y006366D01*
X004166Y006291D01*
X007566Y003269D02*
X007566Y000513D01*
X009247Y000513D01*
X009247Y000316D01*
X010035Y000316D01*
X010035Y000513D01*
X009247Y000513D01*
X010035Y000513D02*
X011716Y000513D01*
X011716Y003269D01*
X007566Y003269D01*
X009266Y004066D02*
X009566Y004366D01*
X009566Y004441D01*
X009491Y004516D01*
X009341Y004516D01*
X009266Y004441D01*
X009266Y004066D02*
X009566Y004066D01*
X009726Y004141D02*
X010027Y004441D01*
X010027Y004141D01*
X009952Y004066D01*
X009801Y004066D01*
X009726Y004141D01*
X009726Y004441D01*
X009801Y004516D01*
X009952Y004516D01*
X010027Y004441D01*
X007082Y001399D02*
X007377Y001104D01*
X007082Y000808D01*
X007082Y001399D01*
X007082Y001355D02*
X007126Y001355D01*
X007082Y001306D02*
X007175Y001306D01*
X007223Y001258D02*
X007082Y001258D01*
X007082Y001209D02*
X007272Y001209D01*
X007321Y001161D02*
X007082Y001161D01*
X007082Y001112D02*
X007369Y001112D01*
X007337Y001063D02*
X007082Y001063D01*
X007082Y001015D02*
X007289Y001015D01*
X007240Y000966D02*
X007082Y000966D01*
X007082Y000918D02*
X007191Y000918D01*
X007143Y000869D02*
X007082Y000869D01*
X007082Y000821D02*
X007094Y000821D01*
X008184Y017144D02*
X009051Y017144D01*
X008184Y017144D02*
X008184Y019113D01*
X011098Y019113D01*
X011098Y017144D01*
X010232Y017144D01*
D15*
X003332Y012789D03*
X003332Y012493D03*
X003332Y011789D03*
X003332Y011493D03*
X003332Y010789D03*
X003332Y010493D03*
X003332Y009789D03*
X003332Y009493D03*
D16*
X003332Y009641D03*
X003332Y010641D03*
X003332Y011641D03*
X003332Y012641D03*
D17*
X003541Y006991D02*
X003541Y004291D01*
X006341Y004291D01*
X006941Y004291D02*
X008841Y004291D01*
X010441Y004291D02*
X013341Y004291D01*
X013941Y004291D02*
X015741Y004291D01*
X015741Y006991D01*
X003541Y006991D01*
D18*
X013320Y014885D02*
X013320Y015397D01*
X013753Y015397D02*
X014029Y015397D01*
X014462Y015397D02*
X014462Y014885D01*
X014127Y014885D01*
X013655Y014885D02*
X013320Y014885D01*
M02*
